<svg xmlns="http://www.w3.org/2000/svg" xmlns:xlink="http://www.w3.org/1999/xlink" version="1.1" x="0px" y="0px" viewBox="0 0 100 125" enable-background="new 0 0 100 100" xml:space="preserve"><ellipse fill="#000000" cx="31.241" cy="69.696" rx="1.875" ry="2.812"/><ellipse fill="#000000" cx="49.985" cy="69.696" rx="1.875" ry="2.812"/><path fill="#000000" d="M49.985,74.382H31.241c-0.586,0-1.137,0.275-1.492,0.74c-0.354,0.467-0.471,1.072-0.313,1.636  c0.079,0.286,2.048,6.996,11.176,6.996c9.13,0,11.098-6.71,11.179-6.996c0.156-0.564,0.04-1.169-0.315-1.636  C51.124,74.657,50.571,74.382,49.985,74.382z"/><path fill="#000000" d="M22.807,92.188h35.613c2.584,0,4.686-2.102,4.686-4.686v-6.606c10.415-0.47,18.744-8.666,18.744-18.698  c0-10.033-8.329-18.228-18.744-18.698v-4.731c0-2.584-2.102-4.686-4.686-4.686H22.807c-2.584,0-4.686,2.102-4.686,4.686v48.733  C18.121,90.087,20.222,92.188,22.807,92.188z M63.105,50.998c6.117,0.455,10.95,5.299,10.95,11.201s-4.833,10.746-10.95,11.202  V50.998z M63.105,75.273c7.15-0.463,12.824-6.143,12.824-13.075c0-6.932-5.674-12.612-12.824-13.075v-3.749  c9.381,0.466,16.869,7.823,16.869,16.824c0,9.002-7.488,16.358-16.869,16.823V75.273z M19.995,38.769  c0-1.55,1.261-2.812,2.812-2.812h35.613c1.55,0,2.812,1.261,2.812,2.812v48.733c0,1.55-1.261,2.812-2.812,2.812H22.807  c-1.55,0-2.812-1.261-2.812-2.812V38.769z"/><path fill="#000000" d="M26.57,22.731c0.366-0.366,0.366-0.959,0-1.325c-0.944-0.943-3.732-4.313,0-8.046  c1.396-1.398,3.207-1.998,5.105-1.69c2.001,0.325,3.778,1.597,4.64,3.321c1.516,3.03,0.43,7.675-3.749,16.031  c-0.23,0.463-0.044,1.026,0.419,1.258c0.136,0.066,0.278,0.099,0.419,0.099c0.342,0,0.673-0.189,0.838-0.518  c3.273-6.545,5.991-13.221,3.749-17.708c-1.127-2.253-3.432-3.914-6.017-4.333c-2.502-0.407-4.895,0.379-6.73,2.215  c-3.948,3.947-2.467,8.229,0,10.697C25.611,23.098,26.204,23.098,26.57,22.731z"/><path fill="#000000" d="M46.236,32.378c0.099,0,0.197-0.016,0.296-0.048c0.491-0.163,0.756-0.694,0.593-1.186  c-1.913-5.738-1.607-10.78-0.227-12.161c1.594-1.594,3.368-1.459,4.345-0.658c0.965,0.791,1.501,2.601-0.165,5.099  c-0.288,0.431-0.17,1.012,0.26,1.3c0.427,0.284,1.01,0.173,1.3-0.26c2.361-3.541,1.363-6.3-0.207-7.588  c-1.66-1.36-4.549-1.525-6.858,0.783c-2.422,2.422-1.948,8.916-0.227,14.08C45.479,32.13,45.844,32.378,46.236,32.378z"/><path fill="#000000" d="M38.363,32.13c0.123,0.054,0.249,0.079,0.375,0.079c0.36,0,0.705-0.209,0.858-0.562  c1.688-3.855,1.942-7.655,1.951-7.814c0.033-0.517-0.36-0.962-0.877-0.994c-0.558-0.036-0.961,0.361-0.994,0.877  c-0.002,0.036-0.242,3.625-1.797,7.181C37.673,31.37,37.889,31.922,38.363,32.13z"/></svg>
