<svg xmlns="http://www.w3.org/2000/svg" xmlns:xlink="http://www.w3.org/1999/xlink" version="1.1" x="0px" y="0px" viewBox="0 0 100 125" enable-background="new 0 0 100 100" xml:space="preserve"><path d="M77.99,9.124H21.083C13.428,9.124,7.2,15.352,7.2,23.006v56.908c0,7.654,6.228,13.882,13.883,13.882H77.99  c7.654,0,13.882-6.228,13.882-13.882V23.006C91.872,15.352,85.645,9.124,77.99,9.124z M86.872,79.914  c0,4.897-3.984,8.882-8.882,8.882H21.083c-4.898,0-8.883-3.984-8.883-8.882V23.006c0-4.897,3.984-8.882,8.883-8.882H77.99  c4.897,0,8.882,3.984,8.882,8.882V79.914z M68.535,59.46H30.537c-4.259,0-7.47,1.964-7.47,4.568v10.864  c0,2.604,3.211,4.568,7.47,4.568h37.998c4.259,0,7.47-1.964,7.47-4.568V64.028C76.005,61.424,72.794,59.46,68.535,59.46z   M73.005,64.028v4.432h-7.469v-6h2.999C71.468,62.46,73.005,63.625,73.005,64.028z M43.661,68.46h-8.125v-6h8.125V68.46z   M45.661,62.46h7.75v6h-7.75V62.46z M43.661,70.46v6h-8.125v-6H43.661z M45.661,70.46h7.75v6h-7.75V70.46z M55.411,70.46h8.125v6  h-8.125V70.46z M55.411,68.46v-6h8.125v6H55.411z M30.537,62.46h2.999v6h-7.469v-4.432C26.067,63.625,27.604,62.46,30.537,62.46z   M26.067,74.892V70.46h7.469v6h-2.999C27.604,76.46,26.067,75.295,26.067,74.892z M68.535,76.46h-2.999v-6h7.469v4.432  C73.005,75.295,71.468,76.46,68.535,76.46z M24.567,50.804c-2.519,0-4.56-2.041-4.56-4.56c0-2.518,2.041-4.559,4.56-4.559  s4.56,2.041,4.56,4.559C29.127,48.763,27.086,50.804,24.567,50.804z M79.064,35.666c0,2.519-2.041,4.56-4.56,4.56  s-4.56-2.041-4.56-4.56c0-2.518,2.041-4.559,4.56-4.559S79.064,33.148,79.064,35.666z"/></svg>
