<svg xmlns="http://www.w3.org/2000/svg" data-name="Layer 1" viewBox="0 0 100 125" x="0px" y="0px"><title>pig</title><circle cx="43.54" cy="27.74" r="1.49"/><circle cx="52.03" cy="27.74" r="1.49"/><path d="M47,88.57A1.43,1.43,0,0,0,48.46,90H49a1.43,1.43,0,0,0,1.43-1.43V86.91H47Z"/><path d="M53.45,88.57A1.43,1.43,0,0,0,54.87,90h.53a1.43,1.43,0,0,0,1.43-1.43V86.91H53.45Z"/><path d="M41.07,63.69H62.8V48.25a17.29,17.29,0,0,0,3.78-22.64l-1.15-12-5.85,5.65a17.18,17.18,0,0,0-3.22-1.21L55.59,10l-8.48,8.18A17.33,17.33,0,0,0,35.39,29.73H32.55a1.78,1.78,0,0,0-1.78,1.78v5.8h8.55v1.94H30.77v1A1.78,1.78,0,0,0,32.55,42h3.68a17.35,17.35,0,0,0,4.83,6.2ZM33.21,33.27a1,1,0,1,1,1-1A1,1,0,0,1,33.21,33.27Zm3,0a1,1,0,1,1,1-1A1,1,0,0,1,36.23,33.27Zm4-4.59a4.63,4.63,0,0,1,8.88-1.85,4.63,4.63,0,1,1,0,3.7,4.63,4.63,0,0,1-8.88-1.85Z"/><path d="M66.59,69.5H62.8v-4H41.07v8.91a1.78,1.78,0,0,0,1.78,1.78H47v9.68h3.38V76.16h3v9.68h3.38V76.16H61a1.78,1.78,0,0,0,1.78-1.78V71.5h5.79V65.17h-2Z"/></svg>
