<svg xmlns="http://www.w3.org/2000/svg" viewBox="0 0 1000 1250" version="1.1" x="0px" y="0px"><g><path fill="#000000" opacity="1.00" d=" M 463.84 10.00 C 467.91 5.15 475.18 3.40 480.99 5.94 C 489.69 9.95 496.69 16.81 502.36 24.42 C 508.20 17.49 514.97 11.11 523.25 7.24 C 530.03 4.59 538.41 7.80 541.66 14.31 C 545.29 20.81 543.04 29.77 536.76 33.76 C 533.14 35.99 529.69 38.52 526.96 41.82 C 565.70 46.87 603.37 60.03 636.76 80.33 C 695.51 115.75 740.20 173.61 759.86 239.33 C 767.98 265.92 771.92 293.74 771.95 321.53 C 803.46 324.17 833.84 339.65 853.83 364.25 C 875.47 390.03 884.84 425.95 877.58 458.93 C 875.70 463.37 876.58 468.63 873.67 472.67 C 871.43 476.27 867.50 478.19 863.72 479.73 C 835.02 492.48 801.34 493.23 771.92 482.44 C 771.91 532.98 771.92 583.52 771.91 634.07 C 772.03 647.84 770.74 661.69 766.99 674.97 C 758.86 705.17 740.12 732.48 714.49 750.48 C 698.03 762.13 678.88 769.95 658.96 773.09 C 654.13 774.29 649.14 773.97 644.22 773.97 C 669.54 792.95 689.06 819.83 698.55 850.08 C 711.97 891.42 705.89 938.62 682.18 975.07 C 679.94 978.11 676.45 980.03 672.77 980.72 C 646.60 986.13 619.07 986.05 593.25 978.85 C 554.10 968.24 519.21 942.04 498.89 906.84 C 484.16 933.17 461.50 954.89 434.69 968.67 C 406.99 983.14 374.98 988.97 343.94 985.70 C 338.78 985.03 333.17 985.32 328.58 982.51 C 320.23 976.41 315.57 966.91 311.13 957.85 C 294.10 922.35 291.94 879.95 305.80 843.05 C 315.47 815.65 333.79 791.75 356.63 773.95 C 343.86 773.80 331.08 774.30 318.33 773.63 C 289.65 768.39 263.26 752.76 243.90 731.09 C 224.56 709.26 212.63 681.07 210.18 652.03 C 209.17 641.07 209.83 630.07 209.72 619.08 C 209.73 572.74 209.70 526.39 209.74 480.05 C 174.36 491.81 133.44 486.68 102.73 465.26 C 98.12 460.89 92.87 455.83 92.91 448.96 C 91.47 420.94 100.75 392.27 119.05 370.90 C 140.91 344.05 175.19 328.11 209.71 327.74 C 209.01 285.57 217.31 243.15 234.83 204.72 C 240.38 193.23 245.90 181.66 253.00 171.03 C 260.74 159.81 268.09 148.24 277.21 138.07 C 302.11 109.06 332.82 84.93 367.28 68.29 C 401.15 51.38 438.59 42.05 476.34 39.81 C 473.75 36.59 470.42 34.15 466.85 32.14 C 459.46 27.62 458.05 16.36 463.84 10.00 M 376.27 97.30 C 343.88 113.69 315.47 137.60 292.99 166.03 C 285.98 176.07 278.54 185.87 272.56 196.58 C 258.05 222.40 247.74 250.70 243.18 280.01 C 240.18 297.10 239.46 314.53 239.74 331.86 C 245.14 335.57 248.11 342.63 246.05 349.00 C 244.01 356.34 235.86 361.13 228.45 359.32 C 200.40 353.69 170.07 362.67 149.31 382.26 C 143.49 388.22 137.96 394.57 133.72 401.78 C 126.85 414.28 122.70 428.39 122.76 442.73 C 149.17 459.04 183.94 460.77 211.73 446.89 C 215.32 445.22 218.59 442.98 222.02 441.02 C 228.20 437.69 236.54 439.71 240.65 445.37 C 244.56 450.37 244.68 457.85 240.94 462.99 C 239.12 465.27 239.75 468.28 239.66 470.98 C 239.72 522.00 239.63 573.02 239.71 624.04 C 240.49 632.37 239.08 640.71 240.01 649.02 C 241.82 671.48 250.85 693.34 265.62 710.38 C 277.62 724.03 293.06 734.74 310.31 740.60 C 315.09 742.12 319.91 743.94 324.98 744.01 C 357.97 743.96 390.96 744.04 423.96 743.97 C 427.91 743.78 431.52 746.06 434.41 748.55 C 439.44 753.36 440.32 761.77 436.37 767.51 C 434.08 771.09 430.16 773.38 426.03 774.14 C 398.97 780.05 373.78 794.72 355.90 815.95 C 337.60 836.81 327.27 864.33 326.68 892.03 C 326.29 913.18 331.85 934.31 342.21 952.73 C 342.84 953.65 343.25 954.88 344.27 955.50 C 355.22 957.01 366.34 956.76 377.31 955.51 C 368.51 938.97 362.80 920.74 361.17 902.06 C 360.74 897.51 360.04 892.56 362.51 888.43 C 366.00 881.60 375.13 878.59 382.01 882.00 C 387.39 884.38 390.73 890.10 390.76 895.91 C 391.73 914.34 397.92 932.22 407.48 947.92 C 414.95 945.39 421.98 941.70 428.72 937.63 C 419.17 923.76 413.99 906.87 414.65 890.00 C 414.76 884.32 418.54 879.02 423.75 876.87 C 430.28 873.95 438.63 876.58 442.30 882.72 C 445.31 887.23 444.39 892.91 445.20 898.01 C 446.39 905.42 448.88 912.63 452.55 919.18 C 466.52 904.48 477.67 886.84 483.15 867.21 C 485.01 859.65 493.32 854.52 500.90 856.41 C 505.79 857.33 509.23 861.19 512.16 864.90 C 514.60 867.82 515.35 871.65 516.78 875.09 C 523.02 890.93 532.48 905.60 544.79 917.39 C 548.26 910.93 550.85 903.81 551.22 896.44 C 551.67 891.01 551.50 884.86 555.69 880.75 C 561.48 874.10 573.04 874.49 578.37 881.51 C 582.09 885.78 581.90 891.76 581.66 897.07 C 580.36 910.82 576.00 924.34 568.55 936.00 C 575.30 940.00 582.39 943.41 589.69 946.27 C 598.53 931.69 604.03 915.09 605.37 898.09 C 605.71 894.16 605.41 889.95 607.43 886.41 C 610.24 880.85 616.77 877.57 622.92 878.58 C 629.90 879.49 635.69 885.94 635.63 893.03 C 635.16 914.08 629.59 934.93 619.96 953.63 C 633.47 955.15 647.20 954.84 660.59 952.43 C 669.46 937.52 674.05 920.19 675.34 902.94 C 677.55 872.09 666.79 840.79 646.73 817.34 C 626.64 793.23 597.04 777.60 566.04 773.43 C 559.00 772.56 553.20 766.13 553.17 759.03 C 552.74 751.62 558.67 744.61 566.02 743.73 C 587.63 744.31 609.32 743.86 630.97 744.00 C 639.90 743.80 648.93 744.67 657.75 742.85 C 678.85 738.83 698.50 727.81 713.11 712.09 C 731.94 692.01 742.37 664.44 741.87 636.95 C 742.10 580.96 741.86 524.97 742.00 468.98 C 742.08 466.67 741.92 464.34 740.98 462.20 C 738.05 455.25 741.61 446.56 748.43 443.46 C 753.64 440.77 760.06 441.90 764.66 445.33 C 788.92 461.44 821.06 464.30 848.08 453.79 C 853.25 431.17 847.78 406.58 834.24 387.84 C 828.12 380.05 821.33 372.57 813.02 367.06 C 796.25 355.36 775.36 349.84 755.00 351.34 C 751.92 351.56 748.70 351.58 745.87 350.22 C 739.65 347.69 735.95 340.49 737.17 333.95 C 737.61 330.51 739.69 327.64 741.93 325.12 C 742.60 284.92 733.55 244.56 715.52 208.61 C 699.99 177.47 677.92 149.61 651.23 127.30 C 649.25 132.09 647.06 136.84 644.13 141.13 C 635.92 153.19 622.67 161.90 608.20 164.13 C 593.13 166.76 576.90 162.77 564.94 153.18 C 551.23 142.69 543.09 125.23 544.02 107.98 C 544.03 97.08 547.93 86.43 554.10 77.52 C 495.05 62.13 430.42 69.08 376.27 97.30 M 584.33 87.55 C 582.49 90.62 579.86 93.09 577.83 96.02 C 572.19 104.70 572.61 116.89 578.94 125.11 C 582.46 129.55 587.40 133.07 593.04 134.16 C 601.77 136.55 611.69 133.48 617.54 126.56 C 622.22 121.35 624.00 114.11 623.39 107.24 C 610.93 99.64 597.88 92.97 584.33 87.55 Z"/><path fill="#000000" opacity="1.00" d=" M 645.20 176.30 C 653.33 174.73 661.97 175.26 669.63 178.55 C 683.94 184.26 694.14 198.70 695.24 214.00 C 696.20 225.16 692.35 236.60 684.99 245.02 C 677.46 253.48 666.39 258.91 654.99 258.95 C 644.07 259.52 633.22 255.09 625.23 247.74 C 611.83 235.41 608.23 213.92 616.94 197.91 C 622.58 187.01 633.16 178.80 645.20 176.30 M 649.32 206.37 C 644.80 208.20 641.78 213.22 642.18 218.07 C 642.34 224.90 649.32 230.30 655.98 228.86 C 663.76 227.76 667.97 217.81 663.76 211.30 C 661.18 206.10 654.53 204.18 649.32 206.37 Z"/><path fill="#000000" opacity="1.00" d=" M 540.44 249.70 C 554.26 249.20 568.12 249.62 581.95 249.48 C 589.91 249.09 597.25 256.05 597.24 264.03 C 597.69 271.92 590.89 279.31 582.97 279.40 C 569.32 279.48 555.66 279.44 542.01 279.42 C 534.44 279.33 527.85 272.52 527.79 264.99 C 527.37 257.66 533.16 250.65 540.44 249.70 Z"/><path fill="#000000" opacity="1.00" d=" M 377.47 253.65 C 390.96 252.98 404.53 253.55 418.05 253.36 C 426.09 252.90 433.60 259.94 433.45 268.03 C 433.91 275.98 426.91 283.33 418.95 283.29 C 406.31 283.35 393.67 283.31 381.04 283.31 C 375.25 283.53 369.54 280.10 367.09 274.84 C 362.70 266.54 368.24 255.28 377.47 253.65 Z"/><path fill="#000000" opacity="1.00" d=" M 559.44 285.52 C 568.00 283.24 577.39 290.08 577.80 298.93 C 578.68 306.92 572.04 314.70 564.01 315.08 C 556.31 315.89 548.78 309.73 547.99 302.04 C 546.86 294.65 552.15 287.09 559.44 285.52 Z"/><path fill="#000000" opacity="1.00" d=" M 396.46 288.63 C 404.99 286.32 414.40 293.07 414.88 301.90 C 415.84 309.96 409.11 317.84 401.01 318.18 C 393.34 318.93 385.88 312.80 385.09 305.16 C 383.95 297.79 389.20 290.23 396.46 288.63 Z"/><path fill="#000000" opacity="1.00" d=" M 472.06 321.00 C 475.98 313.72 486.30 311.23 493.13 315.87 C 497.78 318.63 499.71 323.99 500.85 328.99 C 503.04 338.95 512.94 346.27 523.03 346.07 C 527.06 345.86 531.21 344.53 535.16 345.97 C 541.80 347.97 546.39 355.03 545.51 361.91 C 544.91 367.50 540.94 372.58 535.60 374.39 C 518.86 378.98 500.11 374.05 487.41 362.32 C 483.86 364.69 480.78 367.64 477.57 370.42 C 466.45 377.90 452.34 380.59 439.17 378.46 C 432.25 377.43 426.71 370.95 426.76 363.96 C 426.49 357.22 431.41 350.78 437.94 349.19 C 441.89 348.03 445.96 349.58 449.98 349.09 C 459.19 348.67 466.93 341.41 470.01 333.04 C 470.29 328.98 469.65 324.58 472.06 321.00 Z"/><path fill="#000000" opacity="1.00" d=" M 320.50 538.77 C 333.89 536.34 348.22 538.98 359.51 546.68 C 380.43 559.73 390.01 588.04 381.13 611.09 C 376.13 626.26 363.63 638.31 348.81 643.90 C 337.79 647.77 325.42 648.42 314.27 644.69 C 300.48 640.63 288.56 630.73 282.02 617.94 C 274.44 603.67 273.74 585.93 280.20 571.13 C 287.09 554.53 302.74 541.80 320.50 538.77 M 323.49 568.79 C 314.47 571.39 307.30 579.61 306.07 588.94 C 304.84 596.52 307.46 604.66 312.97 610.04 C 318.39 615.47 326.50 618.16 334.08 616.86 C 339.07 616.24 343.49 613.49 347.18 610.22 C 353.15 604.28 355.73 595.16 353.79 586.97 C 352.19 580.39 347.97 574.38 342.01 571.06 C 336.52 567.69 329.65 567.34 323.49 568.79 Z"/><path fill="#000000" opacity="1.00" d=" M 416.51 617.74 C 426.95 615.52 438.11 617.46 447.28 622.89 C 458.14 629.63 466.01 641.19 467.77 653.92 C 469.34 664.09 467.04 674.78 461.58 683.50 C 454.22 695.28 440.87 703.11 426.95 703.52 C 408.94 704.57 391.10 692.84 384.91 675.91 C 380.80 665.53 381.10 653.60 385.38 643.32 C 390.97 630.52 402.62 620.32 416.51 617.74 M 421.30 647.44 C 414.53 649.44 410.30 657.41 412.52 664.15 C 414.41 671.25 422.93 675.54 429.76 672.77 C 436.99 670.28 440.48 660.94 436.84 654.26 C 434.22 648.52 427.29 645.59 421.30 647.44 Z"/></g></svg>
