<svg xmlns="http://www.w3.org/2000/svg" xmlns:xlink="http://www.w3.org/1999/xlink" version="1.1" x="0px" y="0px" viewBox="0 0 100 125" enable-background="new 0 0 100 100" xml:space="preserve"><g display="none"><rect x="-848" y="-107" display="inline" fill="#000000" width="1158" height="397"/></g><g><rect x="39.944" y="63.845" width="20.111" height="1.964"/><circle cx="34.605" cy="52.009" r="3.34"/><circle cx="65.395" cy="52.009" r="3.34"/><path d="M93.961,45.224h-4.315c-2.303-6.928-8.919-11.951-16.712-11.951c-1.907,0-3.743,0.305-5.463,0.861   c-0.068-0.186-0.141-0.37-0.229-0.549c1.485-1,2.462-2.696,2.462-4.62s-0.977-3.62-2.462-4.62c0.786-1.608,0.784-3.565-0.178-5.232   c-0.962-1.667-2.656-2.647-4.442-2.77c-0.123-1.786-1.104-3.48-2.77-4.442c-1.667-0.962-3.624-0.964-5.232-0.178   c-1-1.485-2.696-2.462-4.62-2.462c-1.924,0-3.62,0.977-4.62,2.462c-1.608-0.786-3.565-0.784-5.232,0.178   c-1.667,0.962-2.647,2.656-2.77,4.442c-1.786,0.123-3.48,1.104-4.442,2.77c-0.962,1.667-0.964,3.624-0.178,5.232   c-1.485,1-2.462,2.696-2.462,4.62s0.977,3.62,2.462,4.62c-0.087,0.179-0.161,0.363-0.229,0.549   c-1.72-0.556-3.556-0.861-5.463-0.861c-7.793,0-14.409,5.023-16.712,11.951H6.039c0,0-1.039,1.223-1.039,3.768   c0,2.545,1.039,3.253,1.039,3.253h3.522c0.449,4.676,2.803,8.804,6.273,11.656c-0.72,0.435-1.241,1.17-1.341,2.061   c-0.172,1.536,0.957,2.922,2.52,3.097c0.001,0,0.002,0,0.003,0c-0.003,0.025-0.009,0.048-0.012,0.073   c-0.176,1.576,0.927,2.993,2.463,3.165c0.018,0.002,0.035,0.001,0.053,0.003c-0.13,1.478,0.86,2.798,2.267,3.061   c0.066,0.012,0.132,0.025,0.2,0.033c0.397,0.044,0.783,0,1.142-0.116c0.104-0.021,0.201-0.062,0.303-0.09   c1.194,2.818,3.988,4.799,7.236,4.799h6.276l0.005,1.827l-3.986,4.111c-0.592,0.6-0.608,1.544-0.035,2.108   c0.572,0.564,1.516,0.535,2.107-0.064c0.013-0.013,0.022-0.029,0.035-0.043l0.004,0.004l1.887-1.987l0.01,3.381l0.044-0.002   c0.001,0.371,0.138,0.735,0.416,1.01c0.572,0.564,1.516,0.535,2.107-0.064c0.305-0.31,0.454-0.711,0.451-1.104l0.003,0l-0.158-3.15   l1.791,2.139c0.572,0.564,1.516,0.535,2.107-0.064c0.592-0.6,0.608-1.544,0.035-2.108l-3.945-4.056l0.031-1.936h19.901l0.146,2.015   l-3.712,4.27c-0.54,0.595-0.471,1.537,0.153,2.103c0.624,0.566,1.568,0.542,2.108-0.054l1.668-2.236l0.018,3.154h0.003   c0.019,0.393,0.19,0.785,0.512,1.077c0.624,0.566,1.568,0.542,2.108-0.053c0.263-0.29,0.378-0.661,0.359-1.032l0.044,0   l-0.179-3.376l1.996,1.878l0.004-0.004c0.013,0.013,0.023,0.028,0.037,0.041c0.624,0.566,1.568,0.542,2.108-0.053   c0.54-0.595,0.471-1.537-0.153-2.103l-4.209-3.882l-0.093-1.745h6.661c3.269,0,6.076-2.009,7.257-4.856   c0.27,0.074,0.55,0.122,0.844,0.109c0.068-0.003,0.135-0.012,0.202-0.02c1.421-0.172,2.494-1.425,2.46-2.909   c0.018,0,0.035,0.001,0.053,0c1.544-0.072,2.736-1.415,2.662-2.999c-0.001-0.025-0.005-0.049-0.007-0.074c0.001,0,0.002,0,0.003,0   c1.571-0.073,2.787-1.384,2.715-2.928c-0.047-1.008-0.637-1.859-1.475-2.312c3.536-2.854,5.938-7.024,6.393-11.754h3.522   c0,0,1.039-0.708,1.039-3.253C95,46.447,93.961,45.224,93.961,45.224z M44.418,53.153c0-2.343,2.312-4.242,5.164-4.242   c0.141,0,0.28,0.008,0.418,0.017c0.138-0.009,0.277-0.017,0.418-0.017c2.852,0,5.164,1.899,5.164,4.242   c0,0.028-0.009,0.054-0.01,0.082c0.178,1.142,0.479,2.243,0.872,3.301H43.556c0.393-1.058,0.694-2.159,0.872-3.301   C44.427,53.207,44.418,53.181,44.418,53.153z M57.322,58.5c1.545,2.96,3.919,5.428,6.83,7.095v1.828   c0,2.057-1.674,3.731-3.731,3.731H39.579c-2.057,0-3.731-1.674-3.731-3.731v-1.828c2.911-1.666,5.285-4.134,6.83-7.095H57.322z    M60.595,58.518c1.975,0.093,3.557,1.716,3.557,3.713v0.019C62.755,61.224,61.549,59.959,60.595,58.518z M35.848,62.25v-0.019   c0-1.998,1.582-3.62,3.557-3.713C38.451,59.959,37.245,61.224,35.848,62.25z M38.901,45.038c0.36,0.378,0.772,0.717,1.247,0.991   c0.337,0.195,0.688,0.34,1.043,0.457c0.396,1.305,0.613,2.685,0.613,4.115c0,0.557-0.039,1.104-0.101,1.644   c-0.174,1.515-0.598,2.953-1.209,4.29h-0.916c-3.14,0-5.694,2.555-5.694,5.694v1.229c-1.468,0.759-3.081,1.275-4.787,1.508V46.609   c0-0.851,0.719-1.571,1.571-1.571H38.901z M22.814,46.609v17.468c-0.381-0.043-0.978-0.109-1.639-0.183   c-4.71-2.036-8.144-6.419-8.746-11.648c-0.062-0.54-0.101-1.088-0.101-1.644c0-1.901,0.383-3.712,1.06-5.377   c2.175-5.349,7.481-9.142,13.679-9.142c1.84,0,3.598,0.341,5.222,0.951c0.107,0.589,0.308,1.17,0.617,1.721h-2.237   C26.338,38.754,22.814,42.278,22.814,46.609z M70.902,72.135c0,0.851-0.719,1.571-1.571,1.571H30.668   c-0.851,0-1.571-0.719-1.571-1.571v-4.334c1.681-0.192,3.285-0.62,4.787-1.247v0.868c0,3.14,2.555,5.694,5.694,5.694h20.842   c3.14,0,5.694-2.555,5.694-5.694v-0.868c1.502,0.627,3.106,1.055,4.787,1.247V72.135z M70.902,64.968   c-1.706-0.233-3.319-0.749-4.787-1.508v-1.229c0-3.14-2.555-5.694-5.694-5.694h-0.916c-0.611-1.338-1.034-2.776-1.209-4.29   c-0.062-0.54-0.101-1.088-0.101-1.644c0-1.431,0.217-2.81,0.613-4.115c0.355-0.117,0.706-0.263,1.043-0.457   c0.475-0.274,0.887-0.613,1.247-0.991h8.233c0.851,0,1.571,0.719,1.571,1.571V64.968z M87.571,52.246   c-0.594,5.163-3.951,9.501-8.569,11.57c-0.694,0.032-1.322,0.062-1.707,0.08c-0.037,0.002-0.073,0.009-0.11,0.011V46.609   c0-4.331-3.523-7.854-7.854-7.854h-2.237c0.309-0.551,0.51-1.132,0.617-1.721c1.624-0.61,3.382-0.951,5.222-0.951   c6.198,0,11.504,3.793,13.679,9.142c0.677,1.665,1.06,3.477,1.06,5.377C87.673,51.158,87.633,51.706,87.571,52.246z"/></g></svg>
