<svg xmlns="http://www.w3.org/2000/svg" xmlns:xlink="http://www.w3.org/1999/xlink" version="1.1" x="0px" y="0px" viewBox="0 0 82.667 118.26375" enable-background="new 0 0 82.667 94.611" xml:space="preserve"><path d="M34.494,53.963c0,7.196-5.353-1.964-11.956-1.964s-11.956,9.16-11.956,1.964c0-7.195,5.353-9.297,11.956-9.297  S34.494,46.769,34.494,53.963z"/><path d="M72.193,54.169c0,7.196-5.353-2.903-11.956-2.903c-6.603,0-11.956,10.1-11.956,2.903c0-7.195,5.353-9.003,11.955-9.003  C66.84,45.166,72.193,46.975,72.193,54.169z"/><path d="M41.725,63.785c0,0-4.323,5.265-4.543,7.48c-0.108,1.068,0.696,2.624,2.271,2.624c1.78,0,2.272-2.624,2.272-2.624  s0.737,2.521,2.485,2.521c1.607,0,2.266-1.498,2.129-2.521C46.048,69.049,41.725,63.785,41.725,63.785z"/><path d="M82.667,45.044c0,8.95-6.959,17.194-11.087,24.206c-1.92,3.26-0.882,6.238-3.024,8.859c-2.61,3.193-6.019,3.635-9.914,3.104  c-0.612,1.246-1.496,6.854-1.496,9.141c0,2.125-3.31,3.461-3.397,1.669c-0.003-0.062-0.04-3.29-0.04-4.604  c0-0.356-0.417-0.31-0.417-0.075c0,1.453-0.039,3.704-0.039,4.823c0,1.5-3.424,1.885-3.424,0.813c0-0.063,0.024-4.333,0.024-5.807  c0-0.37-0.421-0.37-0.421-0.063c0,1.703,0.013,5.838,0.013,5.911c0,1.341-3.778,1.458-3.778,0.375c0-0.082,0.096-4.857-0.016-6.442  c-0.021-0.286-0.406-0.297-0.406-0.016c0,1.828,0.005,6.181,0.005,6.229c0,1.646-4.489,1.375-4.489,0.375  c0-0.069,0.016-4.929,0.016-6.589c0-0.281-0.406-0.15-0.406,0.016c0,1.906,0.013,6.469,0.013,6.531c0,1.688-4.494,1.292-4.494-0.104  c0-0.061,0.013-4.631,0.013-6.378c0-0.332-0.436-0.215-0.436-0.033c0,1.628,0.034,5.954,0.034,6.37c0,1.25-4.358,1.009-4.381-0.354  c-0.021-1.223,0.038-4.211,0-5.797c-0.007-0.303-0.421-0.266-0.422-0.047c-0.003,1.563,0.083,4.565,0.013,5.781  c-0.071,1.231-3.249,0.667-3.324-0.646c-0.05-0.876,0.023-3.688,0.023-4.983c0-0.271-0.415-0.309-0.415-0.043  c0,1.313-0.017,3.901-0.017,4.942c0,1.25-3.033-0.863-3.033-1.854c0-1.742-0.877-7.77-1.592-8.969  c-3.193,0.18-6.001-0.541-8.237-3.275c-2.11-2.578-1.129-5.508-3.024-8.713C6.943,62.374,0,54.014,0,45.044  C0,20.167,18.506,0,41.335,0C64.162,0,82.667,20.167,82.667,45.044z M40.541,4.666c-21.083,0-37.5,14-37.5,39.956  c0,8.164,6.871,15.773,10.702,22.166c1.75,2.917,0.017,8.24,1.965,10.587c2.066,2.488,3.947,0.726,6.896,0.563  c2.104,1.092,2.354,9.728,2.354,11.313c0,0.901,1.083,1.521,1.083,0.384c0-0.948,0.167-1.637,0.167-2.831  c0-0.886,2.25-0.379,2.25,0.073c0,1.18-0.13,3.035-0.083,3.832c0.07,1.194,1.226,1.976,1.292,0.854c0.064-1.106,0-3.349,0-4.771  c0-1.188,2.667-0.928,2.667,0.125c0,1.443-0.061,3.678-0.042,4.791c0.021,1.24,1.917,1.271,1.917,0.133  c0-0.378,0.208-3.516,0.208-4.997c0-1.094,2.667-1.073,2.667-0.052c0,1.591,0.042,5.194,0.042,5.25c0,1.271,2.063,1.515,2.063-0.021  c0-0.058,0.062-3.494,0.062-5.229c0-1.094,2.708-1.092,2.708,0c0,1.512,0.083,5.124,0.083,5.188c0,0.911,2.125,1.263,2.125-0.234  c0-0.044,0.042-3.289,0.042-4.953c0-1.375,2.416-0.959,2.416,0c0,1.446,0.209,5.091,0.209,5.165c0,0.985,1.416,0.805,1.416-0.416  c0-0.066,0.167-3.156,0.167-4.707c0-0.803,2.375-1.052,2.375,0.042c0,1.342,0.25,4.563,0.25,4.619c0,0.977,1.25,0.62,1.25-0.745  c0-1.019,0.208-2.594,0.208-3.916c0-0.771,2.167-0.563,2.167,0c0,0.987,0.25,2.819,0.25,3.791c0,1.081,1.042,0.168,1.042-1.257  c0-2.081,0.31-9.642,1.967-11.868c3.599,0.484,7.539,2.156,9.95-0.75c1.979-2.385-0.04-7.129,1.733-10.096  c3.812-6.382,10.266-13.886,10.266-22.032C79.874,17.333,61.624,4.666,40.541,4.666z"/></svg>
