<svg xmlns="http://www.w3.org/2000/svg" xmlns:xlink="http://www.w3.org/1999/xlink" version="1.1" x="0px" y="0px" viewBox="0 0 100 125" style="enable-background:new 0 0 100 100;" xml:space="preserve"><g><ellipse cx="50" cy="55.2" rx="6.3" ry="3.5"/><path d="M54.2,68.4c-1.9,0-3.4-1.3-3.4-2.8h-1.6c0,1.6-1.5,2.8-3.4,2.8s-3.4-1.3-3.4-2.8h-1.6c0,2.5,2.3,4.5,5.1,4.5   c1.8,0,3.3-0.8,4.2-2c0.9,1.2,2.5,2,4.2,2c2.8,0,5.1-2,5.1-4.5h-1.6C57.7,67.1,56.1,68.4,54.2,68.4z"/><path d="M60.8,39c-2.3,2.3-2.8,5.9-1.6,9.6c-2.6-1.8-5.7-2.9-9.2-2.9c-3.4,0-6.6,1.1-9.1,2.9c0.2-0.6,0.3-1.1,0.4-1.7   c0.6-3.2-0.2-5.9-2.1-7.8c-3.8-3.8-11.2-2.6-16.5,2.7S16.2,54.5,20,58.3c1.5,1.5,3.5,2.2,5.8,2.2c0.7,0,1.3-0.1,2-0.2   c2.4-0.4,4.8-1.6,6.9-3.2c-0.4,1.4-0.6,2.9-0.6,4.4c0,8.7,7.1,15.8,15.8,15.8s15.8-7.1,15.8-15.8c0-1.5-0.2-3-0.6-4.4   c2.1,1.7,4.5,2.8,6.9,3.2c0.7,0.1,1.4,0.2,2,0.2c2.3,0,4.3-0.8,5.8-2.2c1.9-1.9,2.6-4.7,2.1-7.8s-2.2-6.1-4.8-8.7   C72,36.4,64.6,35.2,60.8,39z M66.6,47.6c0-1.5,1.2-2.8,2.8-2.8c1.5,0,2.8,1.2,2.8,2.8c0,1.5-1.2,2.8-2.8,2.8   C67.8,50.4,66.6,49.1,66.6,47.6z M30.7,44.8c1.5,0,2.8,1.2,2.8,2.8c0,1.5-1.2,2.8-2.8,2.8c-1.5,0-2.8-1.2-2.8-2.8   C27.9,46.1,29.1,44.8,30.7,44.8z M50,75.6c-7.8,0-14.2-6.4-14.2-14.2c0-2.9,0.9-5.6,2.3-7.8c0.2-0.2,0.4-0.5,0.5-0.7   c2.6-3.4,6.7-5.7,11.3-5.7c4.7,0,8.8,2.3,11.4,5.8c0.1,0.2,0.3,0.4,0.4,0.6c1.5,2.2,2.4,4.9,2.4,7.8C64.2,69.3,57.8,75.6,50,75.6z"/><path d="M94.2,39.3c0-5.6-4.6-10.2-10.2-10.2c-1.6,0-3.2,0.4-4.7,1.2C72.7,22.2,62,17,50,17s-22.7,5.2-29.4,13.2   c-1.4-0.7-3-1.2-4.7-1.2c-5.6,0-10.2,4.6-10.2,10.2c0,4.7,3.1,8.7,7.6,9.9c0,0.3,0,0.6,0,0.8c0,18.2,16.5,33,36.7,33   s36.7-14.8,36.7-33c0-0.3,0-0.6,0-0.8C91.1,48,94.2,44,94.2,39.3z M50,81.4c-19.3,0-35-14.1-35-31.4s15.7-31.4,35-31.4   S85,32.7,85,50S69.3,81.4,50,81.4z"/></g></svg>
