<svg xmlns="http://www.w3.org/2000/svg" xmlns:xlink="http://www.w3.org/1999/xlink" version="1.1" x="0px" y="0px" viewBox="0 0 100 125" enable-background="new 0 0 100 100" xml:space="preserve"><g><path d="M-685.215-196.001c-0.708,0-1.344-0.285-1.792-0.801c-0.833-0.96-0.833-2.503-0.65-4.144   c-0.262,0.577-0.441,1.122-0.589,1.574c-0.281,0.857-0.667,2.03-1.932,2.031h-0.001c-1.235,0-1.732-1.159-2.213-2.28   c-2.491-5.807-1.76-12.194,2.058-17.987c4.568-6.93,12.812-11.586,20.514-11.586c0.572,0,1.146,0.025,1.707,0.075   c15.003,1.336,23.96,8.639,23.96,19.536c0,2.891-0.644,5.664-1.913,8.241l-0.026,0.099c-0.377,1.121-1.523,4.531-4.293,4.531   c-1.916,0-3.744-1.655-5.72-5.261c-0.447,0.423-1.036,0.653-1.686,0.653h-0.001c-0.944,0-2.008-0.471-3.348-1.483   c-1.07-0.808-1.827-1.871-2.37-2.848c-2.512,3.681-7.454,5.286-10.068,6.136c-0.461,0.15-1.031,0.335-1.221,0.424   c-0.401,0.288-0.793,0.428-1.195,0.429h-0.001c-0.524,0-1.004-0.24-1.315-0.66c-0.638-0.858-0.329-1.885,0.289-3.931   c0.094-0.313,0.216-0.717,0.333-1.134c-0.692,0.826-1.447,1.874-2.038,2.694c-1.737,2.413-3.379,4.691-5.204,5.419   C-684.39-196.09-684.81-196.001-685.215-196.001z M-686.1-206.514c0.508,0,0.991,0.22,1.323,0.603   c0.722,0.831,0.546,2.064,0.281,3.932c-0.1,0.704-0.283,1.993-0.265,2.77c1.01-0.645,2.434-2.621,3.598-4.237   c1.786-2.479,3.328-4.621,5.083-5.155c0.943-0.286,1.833-0.017,2.344,0.671c0.839,1.13,0.408,2.807-0.383,5.436   c2.788-0.914,7.894-2.734,8.933-6.565c0.357-1.316,1.272-1.458,1.649-1.458c1.125,0,1.521,0.934,1.904,1.836   c0.435,1.024,1.092,2.573,2.298,3.483c0.53,0.4,0.902,0.618,1.149,0.736c0.017-0.379-0.028-1.055-0.26-2.254   c-0.104-0.542-0.213-1.102,0.25-1.665l0.45-0.545l0.71-0.001c1.017,0,1.376,0.856,1.512,1.179c3.333,7.943,5.117,8.035,5.135,8.035   c0.006,0,0.623-0.028,1.449-2.487c0.08-0.236,0.145-0.4,0.179-0.469c1.064-2.161,1.604-4.488,1.604-6.915   c0-9.178-7.935-15.364-21.226-16.547c-0.473-0.042-0.958-0.063-1.441-0.063c-6.735,0-13.973,4.114-18.009,10.237   c-2.873,4.358-3.705,9.076-2.415,13.466c0.525-1.074,1.308-2.271,2.533-3.316C-687.356-206.111-686.802-206.514-686.1-206.514z"/></g><g><path d="M-669.952-174.083c-12.283,0-21.904-11.165-21.904-25.417h3c0,12.57,8.304,22.417,18.904,22.417   c10.722,0,18.807-9.359,18.807-21.771h3C-648.145-184.732-657.52-174.083-669.952-174.083z"/></g><g><path d="M-662.644-197.501c-1.389,0-2.398,1.041-2.398,2.475s1.01,2.475,2.398,2.475c1.391,0,2.4-1.041,2.4-2.475   S-661.253-197.501-662.644-197.501z"/><path d="M-677.358-197.501c-1.389,0-2.398,1.041-2.398,2.475s1.01,2.475,2.398,2.475c1.391,0,2.4-1.041,2.4-2.475   S-675.968-197.501-677.358-197.501z"/></g><path d="M-663.458-184.458c0,0.667-0.299,0.795-1.209,1.208l-5.333,2l-5.334-2c-0.756-0.352-1.208-0.541-1.208-1.208l0,0  c0-0.667,0.541-1.208,1.208-1.208l5.334,2l5.333-2C-663.999-185.667-663.458-185.125-663.458-184.458L-663.458-184.458z"/><g><path d="M-668.438-152.875h-3.125c-7.444,0-13.5-6.056-13.5-13.5l0.004-0.108l2-13.875l2.992,1.216l-1.996,12.819   c0.028,5.766,4.728,10.448,10.5,10.448h3.125c5.772,0,10.472-4.682,10.5-10.448l-1.996-12.819l2.992-1.216l2.004,13.983   C-654.938-158.931-660.994-152.875-668.438-152.875z"/></g><g><path d="M-675.86-152.051c0,1.774-1.443,3.217-3.217,3.217s-3.217-1.443-3.217-3.217v-5.924c0-0.171,0.003-0.322,0.008-0.456   l1.962-1.462c-0.532-0.713-1.778-2.386-3.356-1.86c-1.614,0.535-1.614,2.725-1.614,3.778v5.924c0,3.428,2.789,6.217,6.217,6.217   s6.217-2.789,6.217-6.217v-2.924h-3V-152.051z"/><path d="M-656.319-161.752c-1.578-0.526-2.825,1.146-3.356,1.86l1.962,1.462c0.005,0.134,0.008,0.285,0.008,0.456v5.924   c0,1.774-1.443,3.217-3.217,3.217s-3.217-1.443-3.217-3.217v-2.924h-3v2.924c0,3.428,2.789,6.217,6.217,6.217   s6.217-2.789,6.217-6.217v-5.924C-654.706-159.027-654.706-161.217-656.319-161.752z"/></g><g><path d="M-688.833-173.463c-0.358,0.837-0.729,1.702-1.154,2.549c-1.999,3.991-2.37,6.682-1.165,8.467   c1.045,1.549,2.926,1.89,4.765,1.89c0.794,0,1.58-0.063,2.288-0.121c0.577-0.047,1.122-0.091,1.54-0.091v-3   c-0.54,0-1.143,0.049-1.782,0.101c-1.424,0.116-3.808,0.308-4.324-0.457c-0.184-0.273-0.63-1.472,1.361-5.445   c0.464-0.927,0.853-1.834,1.229-2.711c1.351-3.151,2.047-4.435,3.516-4.435v-3C-686.153-179.716-687.516-176.537-688.833-173.463z"/><path d="M-650.012-170.914c-0.425-0.848-0.796-1.712-1.154-2.549c-1.318-3.074-2.681-6.252-6.273-6.252v3   c1.469,0,2.165,1.284,3.516,4.435c0.376,0.877,0.765,1.784,1.229,2.711c1.991,3.973,1.545,5.172,1.361,5.445   c-0.516,0.764-2.9,0.571-4.324,0.457c-0.639-0.052-1.242-0.101-1.782-0.101v3c0.418,0,0.963,0.044,1.54,0.091   c0.708,0.057,1.494,0.121,2.288,0.121c1.838,0,3.72-0.341,4.765-1.89C-647.643-164.232-648.013-166.923-650.012-170.914z"/></g><g><path d="M79.063,24.939c-0.541-1.115-1.895-1.115-2.404-1.115c-0.391,0-0.851,0.028-1.337,0.058   c-0.478,0.03-0.986,0.063-1.47,0.063h-0.001c-0.494,0-0.799-0.037-0.979-0.075c0.192-0.502,0.775-1.404,1.148-1.978   c1.181-1.822,2.401-3.706,1.467-5.363c-0.733-1.303-2.46-1.303-3.11-1.303c-0.92,0-2.014,0.123-3.07,0.242   c-1.014,0.114-2.06,0.232-2.877,0.232c-0.004,0-0.009,0-0.014,0c0.487-0.434,1.12-0.927,1.573-1.282   c1.867-1.458,3.342-2.609,3.146-4.126c-0.055-0.429-0.308-1.217-1.366-1.671c-5.678-2.437-12.554-3.778-19.36-3.778   c-16.374,0-27.388,7.125-27.441,17.739c-0.038,0.18-0.182,0.64-0.311,1.05c-1.482,4.73-5.994,19.125,7.792,29.292   c0.13,0.096,0.272,0.16,0.416,0.219c0.172,3.461,1.641,6.527,3.965,8.744c-3.095,0.33-4.356,3.266-5.576,6.111   c-0.353,0.824-0.718,1.674-1.134,2.506c-1.966,3.924-2.33,6.568-1.146,8.322c1.027,1.523,2.876,1.859,4.684,1.859   c0.504,0,0.996-0.029,1.474-0.063c-0.397,0.854-0.399,1.949-0.399,2.6v5.824c0,3.369,2.742,6.109,6.111,6.109   c3.369,0,6.111-2.74,6.111-6.109v-0.875c0.42,0.039,0.845,0.064,1.275,0.064H49.3c0.431,0,0.856-0.025,1.276-0.064v0.875   c0,3.369,2.741,6.109,6.11,6.109c3.37,0,6.111-2.74,6.111-6.109v-5.824c0-0.65-0.002-1.746-0.399-2.6   c0.479,0.033,0.97,0.063,1.474,0.063c1.808,0,3.657-0.336,4.685-1.859c1.185-1.754,0.819-4.398-1.146-8.322   c-0.416-0.832-0.781-1.682-1.135-2.506c-1.142-2.666-2.32-5.406-5.008-6.018c2.536-2.365,4.104-5.721,4.104-9.512l0.001-1.191   c0.061-0.064,0.119-0.131,0.155-0.174c7.049-8.48,6.03-13.077,5.541-15.286c-0.009-0.039-0.019-0.081-0.027-0.122   c3.121-1.476,4.638-3.914,5.982-6.08c0.531-0.854,1.032-1.66,1.615-2.403C79.421,26.218,79.302,25.428,79.063,24.939z    M33.235,77.66c-1.406,0.107-3.358,0.197-3.818-0.482c-0.181-0.268-0.619-1.447,1.337-5.352c0.457-0.912,0.839-1.805,1.209-2.666   c0.959-2.238,1.586-3.508,2.404-4.045l-1.405,9.744l-0.003,0.107C32.959,75.889,33.055,76.789,33.235,77.66z M42.004,89.047   c0,1.742-1.418,3.162-3.162,3.162c-1.744,0-3.162-1.42-3.162-3.162v-5.824c0-0.086,0.003-0.154,0.004-0.232   c1.592,2.088,3.782,3.689,6.319,4.545V89.047z M49.3,85.287h-3.071c-5.674,0-10.293-4.602-10.321-10.27l1.727-11.092   c1.902,1.025,4.1,1.607,6.462,1.607h3.902h0.207h3.9c2.109,0,4.082-0.475,5.836-1.303l1.679,10.787   C59.593,80.686,54.974,85.287,49.3,85.287z M59.849,89.047c0,1.742-1.419,3.162-3.162,3.162s-3.162-1.42-3.162-3.162v-1.512   c2.537-0.855,4.728-2.457,6.32-4.545c0.001,0.076,0.004,0.145,0.004,0.232V89.047z M63.566,69.16   c0.369,0.861,0.752,1.754,1.209,2.666c1.956,3.904,1.519,5.084,1.336,5.352c-0.458,0.678-2.41,0.588-3.817,0.482   c0.181-0.871,0.276-1.771,0.276-2.693l-1.412-9.854C61.978,65.648,62.604,66.918,63.566,69.16z M62.995,46.507   c-0.406,1.989-0.628,3.086-0.569,3.829l-0.002,2.132c0,5.672-4.532,10.115-10.318,10.115h-3.9h-0.207h-3.902   c-5.786,0-10.318-4.443-10.318-10.115l-0.001-2.207c0.408-2.238,0.602-5.981,0.832-12.073c0.098-2.624,0.222-5.904,0.411-8.038   c2.616,2.744,7.587,7.553,10.327,7.58c1.123,0,1.668-0.599,1.894-0.955c0.768-1.211,0.068-2.691-0.742-4.405   c-0.14-0.296-0.324-0.686-0.481-1.053c0.646,0.407,1.175,1.269,1.913,2.628c0.916,1.683,1.953,3.591,4.07,4.146   c1.096,0.287,2.276,0.427,3.609,0.427c1.855,0,3.636-0.271,5.209-0.511c1.151-0.175,2.144-0.326,2.875-0.326l0.118,0.002   C64.569,38.807,63.389,44.585,62.995,46.507z M74.521,28.06c-1.362,2.192-2.539,4.084-5.172,5.162   c-1.719,0.704-1.341,2.413-1.158,3.235c0.304,1.375,0.867,3.916-1.887,8.532c0.79-4.191,1.114-7.482-0.215-9.178   c-0.521-0.667-1.25-1.038-2.104-1.071c-0.998-0.039-2.21,0.141-3.61,0.355c-1.47,0.223-3.134,0.478-4.766,0.478   c-1.076,0-2.014-0.109-2.861-0.331c-0.883-0.232-1.535-1.432-2.226-2.703c-1.065-1.959-2.392-4.398-5.469-4.445   c-1.18,0-1.749,0.62-1.983,0.989c-0.795,1.255-0.039,2.855,0.761,4.549c0.083,0.174,0.182,0.381,0.28,0.597   c-2.009-1.249-5.633-4.436-8.565-7.859c-0.468-0.547-1.018-0.628-1.303-0.628c-2.05,0-2.189,1.955-2.581,12.337   c-0.141,3.724-0.339,8.986-0.738,11.472c-10.536-8.825-6.867-20.526-5.454-25.036c0.297-0.948,0.445-1.424,0.445-1.855   c0-8.893,9.843-14.867,24.493-14.867c6.021,0,12.083,1.107,17.208,3.132c-0.446,0.393-1.027,0.847-1.442,1.17   c-1.799,1.405-3.354,2.618-3.374,4.123c-0.01,0.651,0.274,1.248,0.797,1.681c0.631,0.519,1.504,0.752,2.832,0.752   c0.983,0,2.113-0.128,3.207-0.25c0.977-0.111,1.985-0.224,2.74-0.224c0.154,0,0.282,0.005,0.386,0.013   c-0.238,0.59-0.853,1.537-1.217,2.101c-0.866,1.337-1.685,2.6-1.685,3.804c0,1.046,0.52,2.802,3.99,2.802h0.001   c0.473,0,0.967-0.026,1.441-0.055C75.026,27.248,74.771,27.656,74.521,28.06z"/><path d="M53.365,67.473c-0.165-0.271-0.46-0.436-0.776-0.436h-8.379c-0.317,0-0.611,0.164-0.776,0.436l-2.589,4.232   c-0.142,0.229-0.173,0.512-0.086,0.766c0.087,0.256,0.283,0.461,0.534,0.559l6.779,2.615c0.106,0.041,0.217,0.061,0.328,0.061   s0.223-0.02,0.328-0.061l6.781-2.615c0.251-0.098,0.447-0.303,0.534-0.559c0.086-0.254,0.055-0.537-0.087-0.766L53.365,67.473z    M48.399,73.818l-5.433-2.096l1.753-2.865h7.359l1.753,2.865L48.399,73.818z"/><path d="M55.631,42.173c-1.365,0-2.358,1.023-2.358,2.433c0,1.41,0.993,2.433,2.358,2.433c1.367,0,2.359-1.023,2.359-2.433   C57.99,43.197,56.998,42.173,55.631,42.173z"/><path d="M43.526,44.606c0-1.409-0.992-2.433-2.359-2.433c-1.366,0-2.358,1.023-2.358,2.433c0,1.41,0.992,2.433,2.358,2.433   C42.534,47.039,43.526,46.016,43.526,44.606z"/><path d="M53.642,53.807l-5.243,1.967l-5.243-1.967c-0.654,0-1.186,0.531-1.186,1.188s0.444,0.842,1.186,1.188l5.243,1.967   l5.243-1.967c0.895-0.404,1.188-0.531,1.188-1.188S54.298,53.807,53.642,53.807z"/></g></svg>
