<svg xmlns="http://www.w3.org/2000/svg" data-name="Layer 1" viewBox="0 0 100 125" x="0px" y="0px"><title>50Icon_5px_grid2</title><path d="M66.47,46.4A1.09,1.09,0,0,0,65,46.07S61.06,48.5,56.63,45a1.09,1.09,0,1,0-1.35,1.72,10.11,10.11,0,0,0,6.35,2.38,8.89,8.89,0,0,0,4.51-1.2A1.09,1.09,0,0,0,66.47,46.4Z"/><circle cx="52.01" cy="35.79" r="2.17" transform="translate(-5.12 62.66) rotate(-59.72)"/><circle cx="69.63" cy="39.16" r="2.17" transform="translate(0.7 79.54) rotate(-59.72)"/><path d="M45.15,53.23a18.88,18.88,0,0,1-4.07.18,1.46,1.46,0,0,0-.41,2.88,20.49,20.49,0,0,0,4.79-.16c4.22-.45,7.33-.58,8.78,1.78.82,1.34,0,4.62-.83,6.28A1.46,1.46,0,0,0,50.64,64l-.07.16a1.46,1.46,0,0,0-1.06-.59,1.43,1.43,0,0,0-1.3.61c-.07-.4-.12-.79-.15-1a4.53,4.53,0,0,0-.39-1.64c-2.5-4.35-5.74-4.07-8-3.06a1.46,1.46,0,1,0,1.18,2.67c1.54-.68,2.85-.64,4.25,1.71,0,.17.07.43.11.73.29,2.09.63,4.47,2.42,4.75l.3,0a2.36,2.36,0,0,0,1.76-.94,2.29,2.29,0,0,0,.8.18,2.32,2.32,0,0,0,1.16-.27,2.08,2.08,0,0,0,1,.56c.68.16,1.71.06,2.75-1.36,1.64-2.25,3-7.45,1.37-10.15C54.2,52.27,49.18,52.81,45.15,53.23Z"/><path d="M80,59.12c3.2-8.51,3.42-17.52.49-24.34A27.12,27.12,0,0,0,61.11,19.1,21.9,21.9,0,0,0,41,24.89c-5.4,5.25-11.1,17.47-10.36,25.34,1.05,11.08-1.35,19.36-6.58,22.7l-5.93,3.79a1.46,1.46,0,0,0,.54,2.66,161.75,161.75,0,0,0,24,2c8.74,0,17.83-1,23.42-4.4a28.78,28.78,0,0,0,5.53-4.45,1.86,1.86,0,0,0,.85.38l.3,0A2.35,2.35,0,0,0,74.54,72a2.29,2.29,0,0,0,.8.18,2.18,2.18,0,0,0,1.16-.27,2.07,2.07,0,0,0,1,.56c.68.16,1.71.07,2.75-1.36,1.64-2.25,3-7.45,1.37-10.15A6.71,6.71,0,0,0,80,59.12ZM78.3,68.76a1.46,1.46,0,0,0-2.77-.17l-.07.16a1.46,1.46,0,0,0-2.37,0c-.07-.4-.12-.79-.15-1a4.54,4.54,0,0,0-.39-1.64h0c-2.5-4.36-5.75-4.07-8-3.06a1.46,1.46,0,1,0,1.18,2.67c1.54-.68,2.85-.63,4.25,1.72,0,.17.07.42.11.72.07.51.14,1,.24,1.53a26.46,26.46,0,0,1-5.71,4.8c-9.76,6-32.5,3.75-41.58,2.57l2.62-1.68c6.28-4,9.09-13,7.91-25.43-.66-7,4.65-18.28,9.49-23a19.06,19.06,0,0,1,17.51-5,24.16,24.16,0,0,1,17.27,14c2.61,6.09,2.4,14.2-.46,21.94A21.11,21.11,0,0,0,70,57.79,18.8,18.8,0,0,1,66,58a1.46,1.46,0,0,0-.41,2.88,20.55,20.55,0,0,0,4.79-.16c4.23-.45,7.33-.58,8.78,1.78C80,63.82,79.16,67.09,78.3,68.76Z"/></svg>
