<svg xmlns="http://www.w3.org/2000/svg" viewBox="0 0 1000 1250" version="1.1" x="0px" y="0px"><g><path fill="#000000" opacity="1.00" d=" M 488.03 38.78 C 513.44 37.32 538.96 38.87 564.16 42.27 C 584.41 45.61 604.71 49.25 624.20 55.84 C 645.72 62.68 666.56 71.48 686.98 81.11 C 699.59 86.95 711.16 94.72 722.89 102.13 C 736.22 110.97 749.15 120.44 761.52 130.59 C 777.07 144.28 791.50 159.19 805.29 174.64 C 840.40 216.43 866.72 265.79 880.53 318.66 C 884.07 333.95 887.89 349.24 889.57 364.87 C 899.00 436.06 886.15 509.88 853.81 573.95 C 834.65 612.05 808.86 646.81 777.99 676.21 C 790.86 687.26 803.77 698.27 816.58 709.40 C 822.98 717.01 830.33 723.87 835.73 732.30 C 850.74 754.57 855.92 783.00 850.31 809.22 C 854.30 810.66 858.13 813.12 860.01 817.07 C 863.62 823.71 861.15 832.80 854.64 836.66 C 850.16 839.62 844.33 839.45 839.55 837.35 C 837.10 841.79 834.21 845.95 831.19 850.02 C 836.60 852.49 840.79 857.87 840.66 863.98 C 840.99 871.92 833.96 879.17 826.03 879.12 C 819.53 879.45 813.67 874.94 811.36 869.03 C 805.69 872.83 799.89 876.52 793.57 879.14 C 795.71 883.91 796.08 889.74 793.18 894.29 C 789.37 901.05 779.95 903.64 773.21 899.79 C 768.31 897.32 765.59 892.04 765.14 886.73 C 759.68 887.25 754.19 887.58 748.72 887.19 C 747.25 891.47 744.39 895.44 740.10 897.22 C 733.58 900.18 725.15 897.75 721.39 891.60 C 719.21 888.48 718.96 884.58 719.00 880.90 C 705.56 875.48 693.34 867.24 683.27 856.82 C 680.85 863.56 677.75 870.06 674.01 876.17 C 676.89 877.25 679.85 878.54 681.88 880.97 C 688.52 888.36 686.45 902.05 677.08 906.19 C 669.18 910.21 658.98 905.55 656.28 897.26 C 651.04 901.94 645.28 906.00 639.21 909.51 C 642.67 914.38 643.60 921.16 640.46 926.43 C 636.80 933.29 627.44 936.11 620.60 932.41 C 615.65 930.05 612.80 924.84 612.25 919.54 C 604.99 921.01 597.59 921.87 590.19 921.56 C 590.41 926.21 590.19 931.29 587.03 935.03 C 582.17 941.57 571.84 942.68 565.69 937.35 C 559.63 932.55 558.86 923.54 561.98 916.85 C 557.57 915.15 553.18 913.41 548.98 911.26 C 546.02 915.45 541.31 918.63 536.03 918.49 C 528.19 918.75 521.04 911.88 520.98 904.05 C 520.67 900.19 522.40 896.63 524.52 893.54 C 517.95 886.90 512.22 879.36 507.86 871.08 C 501.39 880.96 492.81 889.24 483.39 896.29 C 485.63 902.07 485.52 909.30 481.26 914.16 C 476.68 919.79 467.86 921.13 461.81 917.14 C 458.89 915.45 457.09 912.52 455.54 909.65 C 452.14 910.57 448.72 911.39 445.28 912.10 C 445.88 917.96 443.47 924.22 438.27 927.30 C 431.77 931.60 422.16 929.59 417.93 923.05 C 415.69 920.02 415.27 916.20 415.26 912.57 C 411.47 911.99 407.70 911.32 403.97 910.47 C 403.08 914.23 401.48 918.01 398.30 920.39 C 392.49 925.25 383.03 924.60 377.96 918.97 C 372.77 913.47 372.67 904.53 376.47 898.24 C 374.21 896.71 371.99 895.15 369.79 893.54 C 366.78 895.17 363.49 896.60 359.98 896.29 C 352.52 896.07 345.97 889.50 345.80 882.04 C 345.45 878.27 347.11 874.78 349.05 871.68 C 345.71 866.67 342.75 861.41 340.28 855.92 C 331.20 866.47 319.85 875.02 307.28 880.97 C 309.02 885.64 309.17 891.13 306.33 895.42 C 302.42 902.07 293.04 904.52 286.37 900.64 C 282.04 898.40 279.42 893.90 278.54 889.22 C 273.29 889.76 268.02 889.92 262.74 889.84 C 261.99 894.72 259.48 899.54 254.97 901.91 C 248.18 905.99 238.48 903.39 234.66 896.45 C 232.34 892.82 232.35 888.34 233.12 884.25 C 229.45 882.77 225.82 881.21 222.20 879.62 C 219.66 884.16 215.28 887.85 209.94 888.31 C 201.66 889.43 193.49 882.42 193.37 874.06 C 192.79 869.46 194.38 864.96 197.19 861.37 C 195.71 859.91 194.24 858.44 192.78 856.98 C 188.54 857.57 183.97 858.03 180.01 856.02 C 174.13 853.27 170.58 846.44 171.75 840.04 C 172.16 836.63 174.24 833.82 176.32 831.22 C 167.44 810.47 165.16 786.78 171.19 764.94 C 175.07 749.59 182.90 735.34 193.41 723.53 C 208.16 708.10 223.79 693.54 239.02 678.59 C 224.98 665.41 211.56 651.46 200.09 635.95 C 194.37 628.34 188.45 620.86 183.08 612.99 C 174.47 599.05 165.39 585.30 158.76 570.26 C 152.45 556.35 146.41 542.30 141.01 528.01 C 134.65 508.79 129.72 489.10 126.45 469.12 C 124.79 458.13 122.70 447.16 122.49 436.02 C 121.45 404.26 121.65 372.10 128.60 340.94 C 130.97 329.29 133.33 317.60 137.12 306.30 C 141.89 292.01 146.78 277.73 152.99 263.99 C 157.43 253.96 162.48 244.23 167.37 234.42 C 174.77 219.77 184.60 206.56 194.52 193.55 C 210.55 172.79 228.11 153.20 247.23 135.24 C 256.41 126.61 266.86 119.52 277.02 112.13 C 297.11 97.44 319.06 85.59 341.05 74.05 C 347.82 70.59 354.94 67.89 362.12 65.44 C 392.78 54.97 424.20 46.53 456.15 41.08 C 466.68 39.32 477.39 39.28 488.03 38.78 M 492.00 68.60 C 480.67 69.21 469.25 69.04 458.06 71.14 C 428.20 76.55 398.79 84.45 370.12 94.39 C 355.22 99.27 341.94 107.78 328.16 115.07 C 330.08 117.79 331.88 120.60 333.50 123.51 C 340.35 135.02 342.24 149.06 340.28 162.18 C 337.00 182.87 321.57 200.84 301.95 207.87 C 292.20 210.37 281.91 212.16 271.92 209.98 C 264.13 208.37 257.05 204.58 250.11 200.87 C 245.36 197.34 241.68 192.60 237.42 188.53 C 224.49 203.42 212.23 218.93 201.35 235.39 C 195.17 244.90 190.54 255.28 185.42 265.38 C 177.15 281.92 170.90 299.37 165.19 316.94 C 161.99 326.74 160.05 336.89 157.97 346.97 C 151.56 375.49 151.50 404.96 152.39 434.03 C 152.56 444.12 154.50 454.05 155.98 464.01 C 159.03 482.55 163.56 500.84 169.52 518.66 C 175.72 534.70 182.48 550.55 189.94 566.05 C 195.72 576.75 202.17 587.08 208.70 597.35 C 213.48 604.17 218.62 610.74 223.64 617.39 C 235.41 633.38 249.47 647.52 264.06 660.92 C 266.92 663.73 270.84 665.30 273.34 668.49 C 277.88 674.13 277.43 683.10 272.21 688.16 C 264.84 695.38 257.38 702.51 250.00 709.72 C 263.82 723.25 268.77 744.86 262.46 763.11 C 257.83 777.34 246.69 789.28 232.74 794.76 C 221.74 799.47 209.30 799.10 197.93 795.93 C 199.23 809.47 204.05 822.79 212.41 833.58 C 215.43 837.58 219.34 840.76 222.77 844.39 C 224.54 826.06 237.50 808.71 255.48 803.60 C 265.07 800.06 275.77 800.53 285.37 803.73 C 290.41 806.13 295.71 808.34 299.84 812.22 C 307.96 818.72 313.58 828.11 315.87 838.24 C 322.73 830.74 327.97 821.77 331.05 812.08 C 332.62 807.12 332.42 801.81 333.81 796.82 C 335.75 790.47 342.33 786.00 348.95 786.54 C 356.14 786.79 362.27 792.90 363.11 799.95 C 364.22 805.67 361.58 811.20 361.83 816.92 C 361.98 828.00 364.85 839.05 370.18 848.79 C 376.96 861.49 388.16 871.54 401.12 877.68 C 402.43 864.14 408.36 850.71 418.95 841.92 C 429.25 832.77 443.40 828.35 457.09 829.49 C 468.97 830.47 480.24 836.02 488.72 844.34 C 492.96 834.46 495.21 823.70 494.68 812.94 C 494.26 807.88 496.45 802.69 500.55 799.67 C 507.16 794.33 518.00 796.29 522.29 803.62 C 524.74 808.30 526.88 813.54 526.11 818.94 C 524.22 841.49 534.48 864.80 552.72 878.29 C 574.69 895.61 608.00 896.07 630.53 879.52 C 653.09 863.81 663.89 833.51 656.64 807.04 C 654.79 801.50 655.40 794.91 659.63 790.61 C 665.15 784.39 675.82 784.33 681.42 790.48 C 685.76 794.74 685.55 801.21 687.53 806.57 C 690.61 812.55 692.66 819.02 696.19 824.79 C 699.18 819.17 703.27 814.24 707.61 809.63 C 711.45 806.14 716.41 804.25 720.93 801.80 C 725.80 799.02 731.52 798.74 736.98 798.24 C 752.83 797.17 768.51 805.63 777.49 818.52 C 783.40 827.73 786.58 838.74 785.80 849.73 C 796.91 843.67 806.47 834.71 812.82 823.72 C 819.86 811.90 823.00 798.03 822.60 784.32 C 818.54 787.37 813.66 788.94 809.14 791.12 C 800.63 794.96 790.97 794.81 781.97 793.12 C 772.31 791.29 763.46 786.23 756.18 779.76 C 750.99 773.07 744.98 766.35 743.22 757.81 C 741.88 752.00 739.94 746.11 740.61 740.08 C 741.32 733.89 742.19 727.59 744.81 721.88 C 746.65 717.88 748.94 714.09 751.41 710.46 C 754.21 707.00 757.65 704.12 760.72 700.90 C 758.09 698.68 755.56 696.35 752.92 694.15 C 749.78 691.45 745.24 690.78 742.68 687.35 C 737.38 681.41 738.13 671.29 744.33 666.26 C 767.84 646.05 788.55 622.58 805.84 596.85 C 797.67 593.79 790.23 589.07 783.52 583.54 C 779.41 580.96 777.06 576.64 774.02 573.03 C 771.76 570.26 769.45 567.54 767.46 564.58 C 753.13 540.28 753.69 507.95 769.30 484.38 C 774.30 476.92 780.23 469.79 787.95 465.02 C 791.13 461.91 795.01 459.80 799.03 457.99 C 804.03 454.73 809.99 453.76 815.50 451.72 C 830.17 448.59 845.74 449.66 859.71 455.18 C 864.62 416.83 863.45 377.54 854.66 339.83 C 848.83 311.46 838.55 284.12 825.38 258.37 C 815.09 263.10 803.24 265.16 792.10 262.63 C 777.55 260.68 764.72 251.54 756.10 239.95 C 751.25 232.38 747.80 223.79 746.56 214.87 C 744.50 199.02 749.35 182.24 760.04 170.28 C 752.19 162.67 744.42 154.91 735.72 148.27 C 724.53 139.71 713.20 131.31 701.24 123.85 C 692.92 118.73 684.79 113.24 675.93 109.06 C 656.28 99.69 636.19 91.14 615.44 84.50 C 596.87 78.20 577.49 74.82 558.18 71.69 C 536.26 68.91 514.09 67.40 492.00 68.60 M 258.37 166.14 C 263.00 173.44 270.30 179.19 278.92 180.78 C 289.13 181.87 300.13 177.63 305.82 168.84 C 310.53 162.64 311.94 154.43 310.56 146.87 C 309.70 140.80 305.89 135.81 302.72 130.76 C 287.18 141.56 271.45 152.34 258.37 166.14 M 776.55 212.56 C 777.82 217.81 780.06 223.10 784.27 226.67 C 791.00 233.31 801.56 235.13 810.39 232.25 C 801.39 218.26 791.66 204.66 780.68 192.16 C 777.03 198.21 775.04 205.52 776.55 212.56 M 797.55 496.45 C 785.49 510.77 783.66 532.68 793.10 548.83 C 797.28 554.26 801.40 559.99 807.15 563.89 C 811.51 567.06 817.02 568.44 820.79 572.46 C 835.78 545.06 847.19 515.68 854.19 485.23 C 847.05 482.58 839.79 479.43 831.99 480.09 C 818.75 480.09 806.26 486.74 797.55 496.45 M 772.19 734.12 C 769.29 741.43 770.80 750.25 775.80 756.29 C 781.54 763.85 793.39 766.91 801.59 761.57 C 805.94 759.11 810.44 755.58 811.69 750.51 C 807.76 743.65 802.12 737.96 796.24 732.77 C 793.13 728.47 789.08 725.08 784.99 721.78 C 779.29 724.01 774.64 728.53 772.19 734.12 M 202.33 765.49 C 207.61 767.51 213.43 769.42 219.08 767.76 C 229.01 765.36 236.06 755.10 235.13 745.00 C 234.86 739.55 232.29 734.48 228.59 730.56 C 217.77 740.39 207.47 751.53 202.33 765.49 M 724.21 836.33 C 721.48 839.94 721.58 844.69 721.53 849.01 C 730.95 854.15 741.50 857.08 752.25 857.36 C 755.31 852.50 756.94 846.52 755.00 840.91 C 753.72 834.52 748.16 829.68 741.95 828.33 C 735.16 827.26 727.86 830.49 724.21 836.33 M 252.82 848.02 C 253.11 851.72 253.26 856.28 255.90 859.07 C 266.03 860.76 276.63 859.96 286.46 856.96 C 286.55 852.62 287.64 848.17 286.36 843.92 C 285.03 838.28 280.06 834.37 275.06 832.02 C 264.75 828.18 252.53 837.06 252.82 848.02 M 440.82 862.89 C 433.74 867.09 431.01 875.61 430.79 883.43 C 445.11 883.09 459.06 877.63 470.13 868.61 C 466.75 864.22 462.08 860.65 456.52 859.65 C 451.08 858.37 445.64 860.54 440.82 862.89 Z"/><path fill="#000000" opacity="1.00" d=" M 426.18 97.27 C 442.72 94.54 460.55 98.08 474.36 107.74 C 483.87 113.79 490.89 122.97 496.54 132.57 C 508.88 155.97 505.85 186.66 488.87 207.00 C 482.91 213.80 475.84 219.64 467.99 224.11 C 453.57 231.41 436.57 233.05 420.89 229.42 C 412.90 226.93 405.34 223.13 398.31 218.62 C 386.34 209.74 377.18 196.89 373.34 182.42 C 368.56 165.98 370.44 147.70 378.49 132.58 C 387.77 114.28 405.99 100.88 426.18 97.27 M 429.41 127.55 C 415.85 130.28 404.88 141.70 401.82 155.06 C 398.60 167.68 402.58 181.92 412.01 190.94 C 416.34 195.35 422.13 197.88 427.78 200.13 C 436.57 202.36 446.27 201.48 454.38 197.35 C 460.58 193.43 466.48 188.45 469.78 181.76 C 472.23 177.63 473.08 172.82 473.81 168.14 C 476.63 148.99 461.66 128.40 441.99 126.96 C 437.80 126.34 433.47 126.19 429.41 127.55 Z"/><path fill="#000000" opacity="1.00" d=" M 227.48 266.58 C 235.82 263.08 246.19 269.00 247.53 277.90 C 249.22 285.89 242.83 292.00 239.61 298.61 C 237.17 303.97 232.18 308.47 226.06 308.63 C 217.86 309.41 210.07 302.23 210.16 294.00 C 209.85 288.65 213.37 284.30 215.79 279.86 C 218.85 274.84 221.42 268.61 227.48 266.58 Z"/><path fill="#000000" opacity="1.00" d=" M 755.53 278.72 C 765.34 277.85 775.38 277.78 785.04 280.01 C 807.04 285.42 825.35 302.38 833.71 323.27 C 838.01 335.89 840.19 349.63 837.52 362.83 C 834.24 382.05 822.62 399.62 806.38 410.35 C 782.74 426.05 749.28 425.77 726.48 408.59 C 719.98 403.50 713.26 398.21 708.97 391.02 C 702.67 380.35 697.27 368.63 696.65 356.07 C 694.99 339.78 699.80 323.29 708.55 309.59 C 719.26 293.54 736.63 282.38 755.53 278.72 M 759.56 308.75 C 742.52 311.92 728.98 326.96 726.78 344.02 C 724.75 355.57 728.98 367.18 735.46 376.61 C 738.12 379.57 741.19 382.14 744.37 384.54 C 755.03 392.50 769.80 393.78 782.12 389.24 C 799.88 382.69 811.49 362.69 808.10 344.02 C 806.54 329.29 796.07 316.08 782.40 310.59 C 775.20 307.72 767.13 307.67 759.56 308.75 Z"/><path fill="#000000" opacity="1.00" d=" M 200.49 335.64 C 207.48 334.09 215.13 338.28 217.54 345.03 C 220.04 351.59 216.60 358.27 215.75 364.80 C 212.56 384.31 210.58 404.25 212.94 423.98 C 215.67 455.85 224.95 487.31 241.05 515.01 C 243.67 519.79 247.68 524.27 247.76 530.00 C 248.15 537.03 242.84 543.77 235.95 545.12 C 229.81 546.54 223.08 543.58 219.89 538.17 C 198.75 504.15 185.43 465.10 182.61 425.07 C 182.06 414.06 181.56 403.02 182.36 392.00 C 182.72 377.05 185.50 362.30 188.71 347.73 C 189.74 341.79 194.56 336.77 200.49 335.64 Z"/><path fill="#000000" opacity="1.00" d=" M 416.41 407.51 C 423.27 406.62 431.18 407.68 436.30 412.77 C 442.76 418.41 446.73 427.39 445.21 435.99 C 443.78 450.23 427.22 459.86 413.91 455.44 C 405.93 453.31 399.44 446.76 397.12 438.88 C 394.56 431.02 397.06 422.35 401.89 415.91 C 405.40 411.34 410.97 408.94 416.41 407.51 Z"/><path fill="#000000" opacity="1.00" d=" M 587.40 410.53 C 593.11 408.73 599.38 409.66 604.70 412.24 C 612.84 415.71 617.58 424.48 618.59 432.95 C 618.60 440.85 615.31 449.04 608.90 453.91 C 604.96 457.79 599.22 458.54 593.99 459.17 C 586.36 459.29 579.27 455.28 573.91 450.12 C 569.88 444.73 568.58 437.52 569.20 430.92 C 570.11 421.14 578.11 412.96 587.40 410.53 Z"/><path fill="#000000" opacity="1.00" d=" M 549.43 522.08 C 551.13 515.32 558.11 510.43 565.06 511.19 C 572.24 511.52 578.49 517.87 578.80 525.05 C 578.86 528.04 578.26 530.99 578.17 533.99 C 577.81 540.74 579.14 547.46 581.10 553.90 C 584.08 561.36 588.50 568.24 593.77 574.30 C 598.57 579.85 598.13 588.90 592.98 594.08 C 587.87 599.64 578.40 600.25 572.68 595.31 C 565.67 588.90 560.99 580.51 556.23 572.42 C 526.17 572.38 496.11 572.39 466.06 572.42 C 461.82 572.61 457.35 571.78 454.10 568.87 C 448.57 564.40 447.12 555.81 450.87 549.77 C 453.50 545.20 458.69 542.30 463.96 542.44 C 492.09 542.44 520.22 542.45 548.34 542.44 C 548.12 535.65 547.86 528.74 549.43 522.08 Z"/><path fill="#000000" opacity="1.00" d=" M 584.17 761.31 C 595.71 759.93 607.72 763.38 617.02 770.32 C 627.12 777.77 633.92 789.43 635.70 801.82 C 637.80 815.33 633.72 829.66 624.79 840.01 C 618.46 847.65 609.52 852.95 599.91 855.26 C 589.64 858.00 578.54 856.35 568.94 852.06 C 556.01 846.09 546.07 833.97 542.98 820.04 C 539.46 806.15 542.88 790.90 551.65 779.63 C 555.33 773.57 561.61 769.99 567.54 766.49 C 572.56 763.41 578.53 762.63 584.17 761.31 M 586.43 791.45 C 580.85 792.51 575.60 795.98 573.32 801.32 C 568.36 810.84 574.41 823.97 585.02 826.04 C 594.81 828.90 605.40 820.91 606.13 810.93 C 607.83 800.14 597.50 788.81 586.43 791.45 Z"/></g></svg>
