<svg xmlns="http://www.w3.org/2000/svg" xmlns:xlink="http://www.w3.org/1999/xlink" version="1.1" x="0px" y="0px" viewBox="-2057.901 217.025 100 125" enable-background="new -2057.901 217.025 100 100" xml:space="preserve"><g><circle cx="-2015.2" cy="256.04" r="2.638"/></g><g><circle cx="-2001.269" cy="256.04" r="2.638"/></g><g><path d="M-2002.811,264.858c-0.385-0.604-1.191-0.782-1.799-0.403c-0.014,0.009-1.366,0.837-3.57,0.837   c-2.208,0-3.669-0.831-3.712-0.856c-0.615-0.369-1.414-0.171-1.788,0.443c-0.374,0.617-0.178,1.42,0.438,1.794   c0.083,0.05,2.063,1.231,5.06,1.231c2.967,0,4.786-1.124,4.983-1.253C-2002.595,266.262-2002.426,265.463-2002.811,264.858z"/></g><path d="M-1980.58,290.793c0,0-3.611-12.731-2.797-24.908c0.086-1.286,0.264-2.562,0.36-3.845c0.506-6.78,0.322-13.875-1.373-19.88  c4.845-5.888,2.336-16.19-1.013-18.99c-2.984-2.49-8.359-0.593-13.227,4.479c-3.052-0.616-6.636-0.643-10.859,0.091  c-1.464,0.254-2.827,0.606-4.126,1.018c-5.117-5.894-11.045-8.251-14.238-5.587c-3.348,2.799-5.857,13.097-1.017,18.986  c-5.972,12.648-3.675,30.526,0.437,42.328c0.003,0.011,0.008,0.02,0.011,0.031c0.272,0.779,0.564,1.551,0.865,2.319  c0.42,1.058,0.853,2.049,1.293,2.967c-2.42,6.201-3.828,13.759-3.828,22.003h6c0-5.72,0.772-11.148,2.106-15.877  c3.481,4.152,6.785,6.317,6.785,6.317s-5.345-16.039,2.787-21.722c1.365-0.805,2.798-1.246,4.271-1.246  c2.292,0,4.488,1.056,6.481,2.924c7.74,8.189-0.962,26.929-0.962,26.929s5.298-2.463,8.949-10.754  c0.946,4.12,1.481,8.673,1.481,13.429h6c0-3.553-0.266-6.975-0.756-10.22c-0.502-5.391-0.226-11.018,0.332-16.053  C-1983.51,289.053-1980.58,290.793-1980.58,290.793z M-2027.27,239.195c-2.735-4.788-0.392-12.275,1.341-13.723  c1.442-1.206,5.448,0.357,9.297,4.42C-2021.334,232.013-2024.801,235.255-2027.27,239.195z M-2008.142,272.515  c-7.784,0.001-14.446-4.93-17.095-11.857c3.884-9.464,9.875-18.867,19.024-23.45c8.404,5.651,13.279,13.042,16.039,20.418  C-1991.842,266.105-1999.264,272.515-2008.142,272.515z M-1995.335,228.618c3.421-3.109,6.726-4.217,8.008-3.147  c1.658,1.387,3.876,8.306,1.665,13.096C-1987.6,234.06-1990.673,230.488-1995.335,228.618z"/></svg>
