<svg xmlns="http://www.w3.org/2000/svg" data-name="Layer 1" viewBox="0 0 100 125" x="0px" y="0px"><title>crocodile</title><path d="M86,25.31l-7.67-4.43v-.07L86,16.39,78.37,12v.39a2.19,2.19,0,0,0-2.19-2.19h-2A5.69,5.69,0,0,0,63.65,5.92,5.69,5.69,0,0,0,53.1,10.17H16.15A2.19,2.19,0,0,0,14,12.36v13H35v2.38H14v2.63a2.19,2.19,0,0,0,2.19,2.19H51.64V65.15H78.37L86,60.73,78.37,56.3h0L86,51.87l-7.67-4.43h0L86,43l-7.67-4.43L86,34.17l-7.67-4.43h0ZM16.12,14.52a1.28,1.28,0,1,1,1.28-1.28A1.28,1.28,0,0,1,16.12,14.52Zm3.72,0a1.28,1.28,0,1,1,1.28-1.28A1.28,1.28,0,0,1,19.84,14.52Zm37-5.64A1.83,1.83,0,1,1,58.67,7,1.83,1.83,0,0,1,56.84,8.88Zm10.44,0A1.83,1.83,0,1,1,69.11,7,1.83,1.83,0,0,1,67.28,8.88Z"/><path d="M51.64,78.3a2.19,2.19,0,0,0,2.19,2.19H59v11.9h4.16V80.49h3.72v11.9H71V80.49h5.15a2.19,2.19,0,0,0,2.19-2.19v-11H51.64Z"/><path d="M59,95.75a1.75,1.75,0,0,0,1.75,1.75h.66a1.75,1.75,0,0,0,1.75-1.75v-2H59Z"/><path d="M66.87,95.75a1.75,1.75,0,0,0,1.75,1.75h.66A1.75,1.75,0,0,0,71,95.75v-2H66.87Z"/></svg>