<svg xmlns="http://www.w3.org/2000/svg" xmlns:xlink="http://www.w3.org/1999/xlink" version="1.1" x="0px" y="0px" viewBox="0 0 100 125" enable-background="new 0 0 100 100" xml:space="preserve"><g display="none"><rect x="-522" y="-288" display="inline" fill="#000000" stroke="#000000" stroke-width="2.2332" stroke-miterlimit="10" width="1243" height="441"/></g><g><path d="M74.499,30.508l0.907-3.411c0.816-3.069-1.01-6.219-4.079-7.035c-3.069-0.816-6.219,1.01-7.035,4.079l-0.523,1.965   c-1.52-0.266-3.08-0.413-4.674-0.413H40.904c-1.594,0-3.154,0.147-4.674,0.413l-0.523-1.965c-0.816-3.069-3.966-4.895-7.035-4.079   h0c-3.069,0.816-4.895,3.966-4.079,7.035l0.907,3.411c-7.124,4.922-11.817,13.14-11.817,22.404c0,14.971,12.249,27.22,27.22,27.22   h18.193c14.971,0,27.22-12.249,27.22-27.22C86.316,43.648,81.623,35.43,74.499,30.508z M50,75.47   c-9.284,0-16.221-7.738-16.221-14.657c0-6.918,6.937-14.657,16.221-14.657s16.221,7.738,16.221,14.657   C66.221,67.731,59.284,75.47,50,75.47z M23.435,47.692c0-3.002,2.443-5.445,5.446-5.445c3.002,0,5.445,2.443,5.445,5.445   s-2.443,5.445-5.445,5.445C25.878,53.138,23.435,50.695,23.435,47.692z M71.118,53.138c-3.002,0-5.445-2.443-5.445-5.445   s2.443-5.445,5.445-5.445s5.445,2.443,5.445,5.445S74.121,53.138,71.118,53.138z"/><path d="M53.903,67.521c-1.541,0-2.795-1.213-2.795-2.705h-0.327v-5.216c2.219-0.396,3.907-2.325,3.907-4.658   c0-2.619-2.123-4.742-4.742-4.742c-2.619,0-4.742,2.123-4.742,4.742c0,2.352,1.717,4.29,3.964,4.663v5.21H48.84   c0,1.491-1.254,2.705-2.794,2.705c-1.541,0-2.795-1.213-2.795-2.705h-1.613c0,2.381,1.978,4.318,4.408,4.318   c1.724,0,3.205-0.984,3.929-2.4c0.724,1.416,2.205,2.4,3.929,2.4c2.431,0,4.408-1.937,4.408-4.318h-1.613   C56.698,66.308,55.444,67.521,53.903,67.521z"/><circle cx="28.881" cy="47.692" r="1.484"/><circle cx="71.118" cy="47.692" r="1.484"/></g></svg>