<svg xmlns="http://www.w3.org/2000/svg" xmlns:xlink="http://www.w3.org/1999/xlink" version="1.1" x="0px" y="0px" viewBox="0 0 100 125" style="enable-background:new 0 0 100 100;" xml:space="preserve"><style type="text/css">
	.st0{fill:#FFFFFF;}
</style><g><g><path d="M53.1,4.4C53.2,4.4,53.2,4.4,53.1,4.4C53.2,4.4,53.2,4.4,53.1,4.4L53.1,4.4z"/></g><g><path class="st0" d="M53.2,4.4L53.2,4.4C53.2,4.4,53.2,4.4,53.2,4.4C53.2,4.4,53.2,4.4,53.2,4.4L53.2,4.4z"/></g></g><path d="M76.4,40c1.8,1.5,4.2,4.3,5.4,8.5c1.3,4.6,0.8,9.8-1.5,15.5c0.2-1.6,0.3-3.2,0.3-5.1c0.9-3.6,0.9-7,0-10.1  c-0.7-2.7-2.1-4.7-3.3-6.2C77,41.8,76.7,40.9,76.4,40z M74.3,94.2c-0.5-0.8-1.2-1-1.9-1c-0.6,0-1.3,0.2-1.8,0.5  c1.2-4.7-0.8-9.2-2.5-12c-0.4,0.2-0.8,0.4-1.2,0.6c1.8,2.9,4,7.9,1.9,12.6c-0.6,0.7,1.4,0.9,1.4,0.9s1.2,0.2,2.3,0.2  C73.9,95.9,75.3,95.6,74.3,94.2z M38.6,95C38.6,94.9,38.6,94.9,38.6,95C38.6,94.9,38.6,94.9,38.6,95c-2.2-4.6-0.1-9.5,1.6-12.5  c-0.4-0.1-0.8-0.3-1.2-0.5c-1.7,2.8-3.5,7.2-2.3,11.7c-0.6-0.3-1.2-0.5-1.9-0.5c-0.7,0-1.4,0.3-1.9,1c-1,1.4,0.4,1.7,1.8,1.7  c1.1,0,2.3-0.2,2.3-0.2S38.8,95.5,38.6,95L38.6,95z M73.9,76.6c-4.4,4.6-9.6,5.9-9.7,5.9c-4.1,1.1-8.1,1.7-11.9,1.7  c-6.4,0-10-1.6-10.1-1.7l-0.1,0l-0.1,0c-0.1,0-7.6-1.8-12.1-9.1c-3.8-6-4.5-13.9-2.3-23.5c0.3-1,7.7-25.2,7.8-29.5  c0.1-0.9,2.8-15.1,17.7-15.3c15,0.2,17.5,14.2,17.7,15.3c0.1,4.3,7.5,28.5,7.8,29.4C81.3,61.2,79.6,70.5,73.9,76.6z M58.1,27.9  c1.4,0,2.8,0,4.2,0c-0.1,0.7,0.3,1.5,1.2,1.5c0.9,0,1.3-0.8,1.2-1.5c0,0,0,0,0,0c0,0,0-1.3,0-1.3c-2.2,0-4.4,0-6.7,0  C58.1,26.6,58.1,27.9,58.1,27.9z M51.1,32.9c1.1,0.1,2.2,0.3,3.3,0.6c-0.1,0,0.1-1.3,0-1.3c-1.1-0.3-2.2-0.5-3.3-0.6  C51.2,31.6,51.1,32.9,51.1,32.9z M41.3,28c1.3,0,2.7,0,4,0c0,0.7,0.4,1.4,1.2,1.4c0.9,0,1.3-0.7,1.2-1.4c0.1,0,0.1,0,0.2,0  c0,0,0-1.3,0-1.3c-2.2,0-4.4,0-6.7,0C41.3,26.7,41.3,28,41.3,28z M69.4,57.7c0-9-7.3-16.2-16.2-16.2c-9,0-16.2,7.3-16.2,16.2  c0,9,7.3,16.2,16.2,16.2C62.2,73.9,69.4,66.6,69.4,57.7z M27.9,47.1c-0.5,1.6-0.8,2.6-0.8,2.6C27,50,27,50.2,26.9,50.5  c-2.4,3.2-4.8,5.8-5.8,6.1c-0.1,0-0.1,0-0.2,0c-2.3,0-7.4-9.4-10.6-15.9c-0.5,0.4-1.3,0.7-2.2,0.7c-0.5,0-1-0.1-1.6-0.3  c-0.7-0.3-1.1-0.7-1-1.2c0-0.3,0.1-1.2,3.9-1.6c0.2,0,1,0,1.4,0.5c0.1,0.1,0.2,0.3,0.2,0.6c3.7,7.6,8.4,15.8,9.8,16  C21.7,55.1,24.5,51.6,27.9,47.1z M9.7,39.5C9.7,39.5,9.6,39.5,9.7,39.5C8.8,39.6,8,39.8,7.4,40C8.6,40.4,9.3,39.9,9.7,39.5z"/></svg>
