<svg xmlns="http://www.w3.org/2000/svg" xmlns:xlink="http://www.w3.org/1999/xlink" version="1.1" x="0px" y="0px" viewBox="0 0 100 125" style="enable-background:new 0 0 100 100;" xml:space="preserve"><path d="M73,43.2c0.3-1.8,0.5-3.6,0.5-5.5c0-8.5-3.2-15.5-8.3-20.1v-5c0-0.9-0.9-1.6-2-1.6c-1.1,0-2,0.7-2,1.6v2.1  c-3.5-2-7.6-3.2-11.9-3.2c-4.3,0-8.3,1.1-11.8,3.1v-2.1c0-0.9-0.9-1.6-2-1.6c-1.1,0-2,0.7-2,1.6v4.9c-5.1,4.6-8.4,11.6-8.4,20.1  c0,1.9,0.2,3.7,0.5,5.5c-9.3,6-15.2,15.5-15.2,26.1c0,18.2,17.4,20.8,38.9,20.8c21.5,0,38.9-2.7,38.9-20.8  C88.2,58.7,82.3,49.2,73,43.2z M56.2,50H42.5c-1.7,0-3.2-1.4-3.2-3.2c0-1.7,1.3-3,3-3.1v1.8c0,0.7,0.5,1.2,1.2,1.2  c0.7,0,1.2-0.5,1.2-1.2v-1.8H54v1.8c0,0.7,0.5,1.2,1.2,1.2c0.7,0,1.2-0.5,1.2-1.2v-1.8c1.6,0.1,3,1.5,3,3.1C59.4,48.6,58,50,56.2,50  z M49.4,36.5c-7.7,0-13.9-6.2-13.9-13.9h9c0,2.7,2.2,4.9,4.9,4.9s4.9-2.2,4.9-4.9h9C63.3,30.2,57.1,36.5,49.4,36.5z"/></svg>
