<svg xmlns="http://www.w3.org/2000/svg" xmlns:xlink="http://www.w3.org/1999/xlink" version="1.1" x="0px" y="0px" viewBox="0 0 100 125" enable-background="new 0 0 100 100" xml:space="preserve"><path fill="#000000" d="M47.556,18.807c-0.348-0.226-0.8-0.191-1.111,0.076c-0.313,0.266-0.416,0.705-0.255,1.084l0.654,1.515  c3.682,8.52,6.227,14.407,0.597,22.456c0.126-6.87-2.793-12.336-8.705-16.28c-0.326-0.216-0.755-0.207-1.073,0.022  c-0.316,0.232-0.456,0.637-0.348,1.016c1.342,4.703-0.628,8.077-3.122,12.351c-2.563,4.395-5.753,9.862-5.755,18.325l0,0  c0,0,0,0,0,0.002v0.002c0,0,0,0,0,0.002c0.004,11.878,9.662,21.542,21.539,21.555c0.007,0.002,0.015,0.006,0.023,0.006  c11.889,0,21.562-9.674,21.562-21.562C71.562,43.064,63.037,28.655,47.556,18.807z M50.015,79.062c-0.006,0-0.009-0.004-0.015-0.004  c-10.856,0-19.686-8.829-19.688-19.686c0-7.956,2.922-12.964,5.5-17.382c2.207-3.779,4.159-7.127,3.769-11.373  c4.844,4.022,6.722,9.356,5.74,16.236c-0.059,0.411,0.161,0.814,0.542,0.985c0.381,0.176,0.826,0.072,1.099-0.244  c8.347-9.737,6.039-16.514,2.212-25.444c13.257,9.406,20.514,22.521,20.514,37.224C69.688,70.226,60.863,79.053,50.015,79.062z"/><path fill="#000000" d="M57.5,64.062h-15c-0.519,0-0.938,0.42-0.938,0.938s0.419,0.938,0.938,0.938h8.438v2.812  c0,2.067,1.681,3.75,3.75,3.75s3.75-1.683,3.75-3.75V65C58.438,64.482,58.019,64.062,57.5,64.062z M56.562,68.75  c0,1.035-0.842,1.875-1.875,1.875s-1.875-0.84-1.875-1.875v-2.812h3.75V68.75z"/><path fill="#000000" d="M42.5,60.312c0.24,0,0.479-0.092,0.663-0.274c0.366-0.366,0.366-0.96,0-1.326L41.951,57.5l1.212-1.212  c0.366-0.366,0.366-0.96,0-1.326s-0.96-0.366-1.326,0l-1.212,1.212l-1.212-1.212c-0.366-0.366-0.96-0.366-1.326,0  s-0.366,0.96,0,1.326l1.212,1.212l-1.212,1.212c-0.366,0.366-0.366,0.96,0,1.326c0.184,0.183,0.423,0.274,0.663,0.274  s0.479-0.092,0.663-0.274l1.212-1.212l1.212,1.212C42.021,60.221,42.26,60.312,42.5,60.312z"/><path fill="#000000" d="M56.837,60.038c0.184,0.183,0.423,0.274,0.663,0.274s0.479-0.092,0.663-0.274l1.212-1.212l1.212,1.212  c0.184,0.183,0.423,0.274,0.663,0.274s0.479-0.092,0.663-0.274c0.366-0.366,0.366-0.96,0-1.326L60.701,57.5l1.212-1.212  c0.366-0.366,0.366-0.96,0-1.326s-0.96-0.366-1.326,0l-1.212,1.212l-1.212-1.212c-0.366-0.366-0.96-0.366-1.326,0  s-0.366,0.96,0,1.326l1.212,1.212l-1.212,1.212C56.471,59.078,56.471,59.672,56.837,60.038z"/></svg>
