<svg xmlns="http://www.w3.org/2000/svg" xmlns:xlink="http://www.w3.org/1999/xlink" version="1.1" x="0px" y="0px" viewBox="0 0 100 125" enable-background="new 0 0 100 100" xml:space="preserve"><path fill="none" d="M42.858,58.646l0.065-0.367c0.064-0.36,0.148-0.703,0.247-1.032c-0.678,0.479-1.409,1.103-2.008,1.872  C41.685,58.946,42.266,58.78,42.858,58.646z"/><path fill="none" d="M72.083,20.585c-1.459,1.238-3.853,2.928-6.443,3.426c0.024,0.047,0.056,0.091,0.079,0.139l0.234,0.48  L65.6,25.031c-0.07,0.079-0.584,0.652-1.386,1.415c1.453,0.994,5.367,3.387,9.277,3.283c0.489-0.915,1.647-3.718,0.447-7.971  C73.303,21.437,72.683,21.043,72.083,20.585z"/><path fill="none" d="M54.957,46.993c1.401,0.466,3.258,0.846,5.291,0.676c-0.399-0.744-0.751-1.665-0.933-2.788  C58.211,45.698,56.735,46.547,54.957,46.993z"/><path fill="none" d="M36.188,64.321c0.857-0.229,1.886-0.454,2.861-0.554c0.237-1.038,0.667-1.898,1.202-2.597  c-0.175,0.072-0.35,0.146-0.501,0.214l-0.711,0.322C38.34,62.14,37.164,62.99,36.188,64.321z"/><path fill="none" d="M38.826,59.979c0.074-0.18,0.153-0.355,0.239-0.526c-1.132,0.287-2.334,0.512-3.132,0.648  c0.053,1.254-0.137,2.066-0.184,2.239C37.054,60.947,38.4,60.195,38.826,59.979z"/><path fill="none" d="M45.343,12.385c-0.526,0.339-1.118,0.636-1.769,0.891c-0.253,1.638-1.143,3.323-2.122,4.749  c1.175,0.135,2.711,0.363,3.423,0.689l0.542,0.249l-0.082,0.591c-0.001,0.009-0.021,0.127-0.057,0.305  c3.973-0.89,6.558-4.333,7.505-5.811C49.143,12.201,46.011,12.33,45.343,12.385z"/><path fill="none" d="M65.777,42.33c0.657,1.459,1.73,3.341,3.298,4.538c0.721-0.875,2.19-3.045,2.975-6.743  c-0.911-0.586-1.61-1.151-2.057-1.543l-0.053,0.081l-0.479-0.042c-0.699-0.06-1.424-0.227-2.13-0.446  c-0.432,0.964-1.267,1.833-2.19,2.564c0.043,0.127,0.102,0.286,0.162,0.45C65.404,41.37,65.603,41.764,65.777,42.33z"/><path fill="none" d="M39.374,34.378c-0.036-0.005-0.071-0.008-0.106-0.013c0,0.022,0,0.043,0,0.06  C39.302,34.41,39.338,34.393,39.374,34.378z"/><path fill="none" d="M45.28,28.858c-0.959-0.936-2.855-2.024-3.928-2.584c-1.271,0.925-2.925,1.592-5.091,1.662  c1.781,1.458,2.515,3.31,2.808,4.679C42.654,32.032,44.596,29.834,45.28,28.858z"/><path fill="none" d="M37.572,33.292c-0.192-1.157-0.783-2.962-2.537-4.285c-0.288,0.229-0.532,0.405-0.722,0.536  c0.012,1.567-0.28,2.876-0.727,3.952C34.79,33.272,36.34,33.086,37.572,33.292z"/><path fill="none" d="M72.36,48.775c-0.606-0.66-1.075-1.267-1.407-1.737c-0.658,0.96-1.171,1.437-1.22,1.481l-0.444,0.401  l-0.511-0.313c-1.172-0.718-2.114-1.741-2.875-2.813c-0.202,0.876-0.612,1.82-1.33,2.789c0.021,1.035,0.149,4.188,0.924,6.276  c1.058-0.045,3.636-0.37,5.83-2.176C71.364,51.059,71.876,49.625,72.36,48.775z"/><path fill="none" d="M65.019,56.471c-0.054-0.002-0.091-0.004-0.104-0.004l-0.479-0.029l-0.201-0.435  c-0.769-1.661-1.07-4.057-1.191-5.751l-0.229,0.212l-0.04-0.027c-1.109,1.035-3.11,3.161-3.774,5.607  C60.045,56.298,62.224,56.687,65.019,56.471z"/><path fill="none" d="M65.739,62.49c0.367-0.17,0.758-0.321,1.178-0.453c0.189-0.085,0.375-0.175,0.557-0.27  c-0.27-1.321-0.324-2.773-0.307-3.948c-1.379,0.233-2.662,0.329-3.801,0.329c-1.1,0-2.057-0.084-2.868-0.194  c-0.405,1.101-1.207,3.571-1.019,5.484C60.678,63.419,63.327,63.281,65.739,62.49z"/><path fill="none" d="M75.249,57.573c1.099,0.907,2.317,2.623,3.009,3.669c2.114-2.342,3.39-5.113,3.702-5.835  c-1.501-1.534-2.49-3.482-3.058-4.867c-0.68,0.895-1.2,1.416-1.255,1.471l-0.414,0.409l-0.517-0.267  c-1.233-0.634-2.286-1.414-3.164-2.201c-0.331,0.721-0.699,1.896-0.623,3.258C73.026,54.915,73.807,56.384,75.249,57.573z"/><path fill="none" d="M76.916,50.435c0.877-1.008,2.941-3.69,3.653-7.147c-0.875-0.704-1.65-1.433-2.224-2.044  c-0.194,0.394-0.334,0.636-0.357,0.675l-0.296,0.5l-0.567-0.125c-1.35-0.299-2.562-0.786-3.608-1.322  c-0.444,1.894-1.053,3.39-1.653,4.541C72.303,46.212,74.038,48.768,76.916,50.435z"/><path fill="none" d="M50.607,59.306c0.634-2.498,1.982-4.449,2.925-5.58c-0.06-0.009-0.126-0.014-0.185-0.023  c-1.152-0.188-3.139,0.522-3.805,0.813l-1.285,0.562l0.166-1.392c0.023-0.196,0.07-0.377,0.106-0.564  c-1.355,0.775-3.221,2.27-3.896,4.839c1.074,0.463,3.534,1.384,5.969,1.36L50.607,59.306z"/><path fill="none" d="M46.887,64.309c0.402-1.372,1.298-2.556,2.197-3.462c-1.259-0.146-2.445-0.456-3.407-0.774  c-0.283-0.087-0.652-0.101-1.061-0.075c-1.082,0.387-3.182,1.414-3.907,3.723C41.923,64.092,44.578,64.754,46.887,64.309z"/><path fill="none" d="M40.162,68.418c0.578-1.066,1.408-1.984,2.125-2.652c-0.648-0.124-1.224-0.27-1.683-0.4  c-0.859-0.144-2.153,0.062-3.344,0.344c-0.308,0.395-1.037,1.434-1.474,2.921C36.603,68.721,38.074,68.772,40.162,68.418z"/><path fill="none" d="M58.895,57.67c-0.653-0.148-1.048-0.279-1.099-0.297l-0.632-0.222l0.104-0.66  c0.155-0.992,0.51-1.937,0.96-2.811c-0.827,0.142-1.749,0.2-2.653,0.193c-0.268,0.254-2.305,2.27-3.246,5.24  c0.957,0.5,3.15,1.491,5.728,1.652C58.275,59.546,58.629,58.418,58.895,57.67z"/><path fill="none" d="M59.541,51.614c0.689-0.907,1.402-1.655,1.966-2.193c-0.078-0.082-0.161-0.172-0.245-0.27  c-0.695,0.107-1.379,0.176-2.033,0.176c-2.087,0-3.924-0.478-5.289-0.984c-0.934,0.562-2.818,1.928-3.608,4.179  c0.969-0.297,2.246-0.574,3.277-0.402c2.056,0.336,5.045,0.079,5.928-0.514L59.541,51.614z"/><path fill="none" d="M32.644,50.513c-0.152,0.897,0.092,1.621,0.525,2.415c0.425-0.267,0.89-0.51,1.27-0.689  c-0.485-1.371-0.795-3.006-0.991-4.402C33.085,48.779,32.776,49.732,32.644,50.513z"/><path fill="none" d="M29.857,30.496c-1.587-0.286-2.125-0.255-2.303-0.176c-0.553,0.634-1.223,1.236-2.014,1.794  c-0.199,0.864-0.47,1.734-0.776,2.575c0.08-0.017,0.159-0.037,0.241-0.046c1.588-0.168,4.138-0.819,4.164-0.826l0.83-0.212  l0.158,0.842c0.066,0.355,0.112,0.694,0.147,1.026c0.974-0.893,2.256-2.574,2.405-5.311c-0.909,0.227-2.09,0.465-2.678,0.365  L29.857,30.496z"/><path fill="none" d="M83.939,55.035c0.727-0.882,2.218-3.083,2.997-6.845c-0.821-0.688-1.479-1.48-1.785-2.373  c-1.005-0.213-2.109-0.782-3.168-1.489c-0.463,1.791-1.221,3.353-1.976,4.59C80.433,50.162,81.685,53.316,83.939,55.035z"/><path fill="none" d="M60.286,19.707c1.222,0.588,2.979,1.569,4.242,2.837c3.116-0.183,6.274-2.907,7.404-3.983  c-1.928-2.948-4.653-5.139-5.514-5.792c-0.76,0.521-1.576,0.976-2.436,1.329c0.214,0.283,0.399,0.568,0.535,0.854l0.21,0.441  l-0.295,0.389C64.326,15.925,62.74,17.974,60.286,19.707z"/><path fill="none" d="M69.097,36.96c0.479-0.93,1.46-3.287,1.019-6.048c-2.521-0.627-4.735-1.825-6.089-2.673  c0.625,1.52,1.508,4.059,1.771,6.815l0.075,0.792l-0.091,0.009C66.776,36.315,67.975,36.776,69.097,36.96z"/><path fill="none" d="M37.684,20.098c0.984-1.027,3.7-4.06,4.266-6.781c-1.089-0.25-3.347-0.672-5.612-0.59  c-0.48,0.487-1.036,0.977-1.675,1.465c0.258,2.117-0.295,4.07-1.118,5.684C34.604,19.61,36.021,19.497,37.684,20.098z"/><path fill="none" d="M37.659,21.819c-2.326-1.071-4.038-0.346-4.984,0.053c-0.205,0.087-0.364,0.148-0.517,0.193  c-0.922,1.221-1.784,2.019-2.038,2.242c-0.153,1.396-0.564,2.928-1.414,4.399c0.455,0.045,0.938,0.122,1.436,0.211l0.167,0.03  c0.306,0.051,1.63-0.217,2.87-0.574C33.774,27.983,37.518,25.393,37.659,21.819z"/><path fill="none" d="M35.745,58.501c2.208-0.382,4.603-0.968,5.017-1.333l0,0.001c1.433-1.41,3.065-2.224,3.67-2.494  c1.616-2.272,3.945-3.334,4.809-3.665c0.793-1.578,1.977-2.712,2.949-3.432c-0.427-0.22-0.684-0.381-0.727-0.408l-2.454-1.568  c-0.326,0.381-0.635,0.682-0.839,0.712c-0.611,0.09-2.132-0.49-2.04-0.936c0.092-0.445,0-1.186,0-1.186s1.41,0.057,1.656-0.573  c0.247-0.629,0.547-1.448,0.547-1.448c0.207-0.111,0.207-0.111,0.207-0.111s2.191,1.446,1.986,1.58  c-0.132,0.087-0.824,1.14-1.462,1.899l2.874,0.154c4.491,0.24,7.694-3.129,8.259-3.769c0.99-3.107-1.553-4.758-2.129-5.084  c-1.231-0.093-2.671-0.618-3.558-1.235c-0.282-0.196-0.5-0.402-0.673-0.613c-1.759,0.487-3.515,0.629-4.883,0.629  c-0.062,0-0.118-0.001-0.178-0.002c0.019,0.009,0.042,0.024,0.061,0.034l0.021,0.007c0,0-0.002,0.003-0.002,0.003  c0.527,0.264,1.224,0.786,1.401,1.123c0.245,0.463,1.145,0,1.298,0c0.154,0,1.286,1.082,1.286,1.082l0.258,0.738l-1.338,0.908  l-1.884-0.257c0,0-1.151-0.721-1.318-0.788c-0.168-0.067-0.349-0.495-0.537-0.809c-0.187-0.312,0.823-1.98,0.834-1.998  c-0.006-0.003-0.013-0.007-0.019-0.01l-0.1-0.034c-0.61-0.006-1.134-0.036-1.533-0.069c-0.07,0.45-0.166,0.709-0.178,0.741  l-0.62,1.593l-0.829-1.494c-0.276-0.497-1.446-0.989-2.917-1.379c-1.739,0.37-5.749,1.716-6.607,4.159  c0.029,0.097,0.076,0.187,0.099,0.287c0.491,2.175-0.78,4.155-0.834,4.238c0.001,0-0.236,0.456-0.57,1.153  c0.061,0.933,0.385,5.078,1.45,7.49l0.332,0.755l-0.762,0.312c-0.478,0.195-1.237,0.555-1.778,0.896  c0.542,0.876,1.117,1.864,1.492,3.133C35.594,57.804,35.678,58.16,35.745,58.501z M41.296,48.688h-1.029l0.189-1.371  c0,0,0.459-0.842,0.836-0.531c0.375,0.31,0.844,1.447,0.844,1.447L41.296,48.688z M39.757,38.576  c1.108-0.037,2.521-0.166,2.917-0.168c0.397-0.002,1.079,1.87,1.039,2.672c-0.041,0.802-1.995,2.579-2.622,2.761  c-0.628,0.181-1.697-0.778-2.099-0.967c-0.401-0.189-0.527-2.195-0.527-2.195C38.458,40.478,38.647,38.613,39.757,38.576z"/><path fill="none" d="M86.267,33.133c1.042,0.997,3.478,1.854,5.595,2.382c-0.738-1.697-1.328-4.258-1.597-7.113  c-0.338-3.61-2.819-5.954-3.237-6.325c-0.294,0.094-0.625,0.193-0.989,0.292C88.451,26.964,87.031,31.38,86.267,33.133z"/><path fill="none" d="M32.042,66.592c0.768-0.738,1.477-1.238,1.821-1.463c0.305-0.663,0.664-1.258,1.053-1.785l-0.56-0.654  c-0.327-0.382-0.872-0.939-1.428-1.489c0.271,2.776-0.578,4.708-0.625,4.811L32.042,66.592z"/><path fill="none" d="M51.437,18.19c0.823,0.521,1.927,1.321,2.804,2.304c4.086-0.389,7.525-4.04,8.582-5.276  c-1.016-1.479-3.604-3.142-5.031-3.951c-0.865,0.789-1.905,1.477-3.125,1.983l0.303,0.173l-0.357,0.685  C54.534,14.259,53.459,16.276,51.437,18.19z"/><path fill="none" d="M51.995,26.707c0.788,0.642,1.394,1.45,1.876,2.103c0.229,0.308,0.427,0.582,0.609,0.773  c0.026,0.028,0.066,0.06,0.097,0.089c3.607,0.439,8.091-3.89,9.426-5.28c-1.164-1.675-3.969-3.089-5.359-3.665  c-1.038,0.559-2.175,1.012-3.389,1.241c0.114,0.235,0.217,0.474,0.286,0.72l0.086,0.302l-0.143,0.281  C55.422,23.394,54.453,25.214,51.995,26.707z"/><path fill="none" d="M55.795,32.498c-0.838-0.513-1.92-1.227-2.475-1.806c-0.235-0.247-0.469-0.563-0.74-0.928  c-0.583-0.79-1.299-1.749-2.223-2.229c-0.947,0.396-2.053,0.718-3.322,0.917l0.19,0.258l-0.239,0.447  c-0.03,0.057-0.276,0.501-0.761,1.105c0.682,1.458,0.955,2.704,1.029,3.677C48.792,34.069,52.756,34.198,55.795,32.498z"/><path fill="none" d="M43.612,19.988c-0.854-0.201-2.236-0.371-3.283-0.467c-0.416,0.512-0.801,0.953-1.118,1.296l0.026,0.014  l0.022,0.453c0.091,1.895-0.602,3.545-1.517,4.875C41.877,25.28,43.229,21.531,43.612,19.988z"/><path fill="none" d="M58.832,35.217c1.443-0.336,3.977-0.649,5.273-0.797c-0.387-2.713-1.367-5.155-1.863-6.266  c-1.599,1.256-3.596,2.502-5.625,2.963c0.44,0.271,0.841,0.502,1.082,0.637l1.062,0.59l-0.959,0.745  c-0.699,0.543-1.461,0.971-2.247,1.311C56.387,34.898,57.971,35.421,58.832,35.217z"/><path fill="none" d="M53.889,22.816c-0.612-1.461-2.552-2.836-3.747-3.537c-1.448,1.089-3.236,2-5.367,2.294  c-0.4,1.07-1.067,2.399-2.142,3.565c0.817,0.446,1.977,1.126,2.942,1.87C50.979,26.6,53.284,23.737,53.889,22.816z"/><path fill="none" d="M74.611,30.975l-0.221,0.316l-0.386,0.023c-0.224,0.014-0.447,0.021-0.669,0.021  c-0.521,0-1.038-0.045-1.549-0.11c0.268,2.535-0.436,4.683-0.993,5.917c0.669,0.62,2.958,2.575,6.089,3.438  c0.581-1.177,1.858-4.209,1.725-7.657c-1.607-0.883-2.813-1.971-3.565-2.714C74.818,30.674,74.639,30.936,74.611,30.975z"/><path fill="none" d="M42.388,33.283c1.153,0.267,2.374,0.644,3.296,1.163c-0.011-0.708-0.16-1.698-0.655-2.922  C44.346,32.138,43.474,32.77,42.388,33.283z"/><path fill="none" d="M65.812,37.622c-1.312-0.549-2.394-1.164-2.864-1.445c-0.84,0.107-1.795,0.239-2.627,0.383  c0.979,0.988,1.818,2.44,1.709,4.305C63.441,40.079,65.202,38.867,65.812,37.622z"/><path fill="none" d="M75.735,28.629c1.084,1.109,4.327,4.418,8.939,4.135c0.604-1.272,2.276-5.604-0.26-10.014  c-1.204,0.24-2.592,0.421-4.063,0.421c-1.486,0-3.052-0.193-4.588-0.682c0.522,2.559,0.286,4.61-0.111,6.055  C75.681,28.575,75.703,28.597,75.735,28.629z"/><path fill="none" d="M61.412,42.976c-0.121,0.139-0.323,0.36-0.604,0.634c0.115,2.539,1.226,4.062,1.889,4.738  c1.969-2.112,1.959-4.057,1.665-5.237c-0.243-0.528-0.441-1.017-0.586-1.41C62.752,42.345,61.822,42.79,61.412,42.976z"/><path fill="none" d="M34.223,74.528c-0.141,0.548-0.229,1.485-0.238,2.563c0.546-0.49,1.212-1.018,1.963-1.519  c0.693-0.464,1.165-0.892,1.491-1.236c-1.198,0.149-2.168,0.198-2.877,0.198C34.434,74.535,34.335,74.531,34.223,74.528z"/><path fill="none" d="M27.919,89.221c-0.22,0.174-0.583,0.631-0.964,1.212c0.19,0.722,0.701,2.577,1.352,4.25  c0.142-1.243,0.276-2.608,0.276-3.332h0.053c-0.148-0.866-0.367-1.656-0.568-2.038L27.919,89.221z"/><path fill="none" d="M39.504,70.14c-0.93,0.118-1.736,0.162-2.407,0.163c-0.289,0-0.545-0.01-0.785-0.022  c-0.389,0.293-1.504,1.224-2.077,2.646c0.81,0.017,2.148-0.027,3.975-0.319c0.343-0.847,0.785-1.772,1.288-2.448L39.504,70.14z"/><path fill="none" d="M40.946,70.887c-0.395,0.413-0.989,1.596-1.494,2.962c1.118-0.066,2.034-0.231,2.606-0.476  c1.461-0.625,2.388-1.712,2.75-2.199c-0.244,0.009-0.487,0.017-0.711,0.017C42.647,71.19,41.606,71.031,40.946,70.887z"/><path fill="none" d="M47.456,67.169c0.627-0.481,1.294-0.814,1.949-1.049c-0.56-0.146-1.012-0.31-1.363-0.455  c-0.917,0.282-1.886,0.398-2.833,0.398c-0.251,0-0.5-0.01-0.746-0.023c-0.508,0.374-2.189,1.693-2.99,3.32  c0.772,0.149,2.128,0.307,4.041,0.171C45.998,68.584,46.644,67.792,47.456,67.169z"/><path fill="none" d="M32.38,76.679c-0.274,0.068-0.544,0.122-0.814,0.157c-0.167,0.603-0.561,1.725-1.379,2.902  c-0.021,0.447,0.451,1.688,1.165,3.132c0.156-0.604,0.361-1.264,0.622-1.939c0.261-0.681,0.403-1.25,0.479-1.696l-0.009-0.126  C32.401,78.518,32.355,77.62,32.38,76.679z"/><path fill="none" d="M29.956,89.818c0.392-1.038,0.654-2.268,0.821-3.332c-0.486,0.741-1.042,1.358-1.482,1.793  C29.58,88.691,29.796,89.237,29.956,89.818z"/><path fill="none" d="M28.906,81.226c-0.545,0.505-1.202,0.971-1.971,1.367c0.15,1.603,0.551,3.691,1.133,4.642  c0.659-0.636,1.723-1.83,2.089-3.162C29.69,83.176,29.209,82.15,28.906,81.226z"/><path fill="none" d="M33.033,71.733c-1.335,0.153-2.549,0.908-2.564,0.919l-0.052,0.033c-0.068,0.052-0.737,0.598-0.833,2.591  c0.727,0.068,1.928,0.07,2.944-0.339c0.03-0.191,0.064-0.379,0.105-0.558l-0.39-0.063l0.155-0.81  C32.526,72.847,32.759,72.261,33.033,71.733z"/><path fill="none" d="M52.582,68.317l0.104-0.66c0.022-0.146,0.059-0.287,0.09-0.43c-0.934-0.039-2.836,0.053-4.353,1.222  c-1.011,0.78-1.703,1.926-2.064,3.415c0.859-0.336,1.93-0.688,2.64-0.688c0.27,0,0.647,0.033,1.079,0.072  c0.944,0.089,2.672,0.249,3.265-0.183c0.216-0.686,0.547-1.534,0.984-2.236c-0.663-0.141-1.067-0.273-1.114-0.29L52.582,68.317z"/><path fill="none" d="M34.294,69.957l-0.414-0.123l0.138-0.714c0.21-1.087,0.574-2.014,0.947-2.752  c-0.043,0.015-0.094,0.031-0.133,0.045c-0.41,0.263-2.738,1.827-3.647,4.132c0.822-0.299,1.873-0.534,2.935-0.399  C34.179,70.078,34.235,70.021,34.294,69.957z"/><path fill="none" d="M89.535,36.52c0.174,3.577-2.174,7.601-2.885,8.727c0.566,1.837,3.932,3.44,6.022,4.217  c0.04-0.61,0.149-1.339,0.275-2.191c0.219-1.473,0.466-3.143,0.423-4.7c-0.064-2.367-0.807-4.497-1.132-5.321  C91.518,37.091,90.554,36.848,89.535,36.52z"/><path fill="none" d="M87.855,35.901c-1.019-0.431-1.968-0.954-2.646-1.575c-0.378,0.039-0.75,0.06-1.111,0.06  c-1.429,0-2.719-0.289-3.868-0.721c-0.036,2.373-0.621,4.484-1.188,5.977c0.877,1.016,4.092,4.076,6.348,4.591  C86.181,42.938,88.422,38.919,87.855,35.901z"/><path fill="none" d="M78.688,63.105l-0.723,0.704l-0.522-0.863c-0.008-0.014-0.399-0.655-0.954-1.452  c-0.8,0.614-1.652,1.08-2.491,1.43c-1.279,1.443-0.784,5.192-0.291,7.393c0.533-0.297,1.203-0.604,1.986-0.963  c1.354-0.62,2.889-1.322,4.171-2.207c1.856-1.28,3.198-2.963,3.767-3.744c-0.839-1.092-1.706-2.395-2.221-3.646  C80.684,60.86,79.778,62.046,78.688,63.105z"/><path fill="none" d="M71.893,63.599c-1.53,0.361-2.751,0.392-3.078,0.392c-0.041,0-0.068-0.001-0.08-0.001l-0.502-0.011l-0.21-0.454  c-0.018-0.038-0.031-0.081-0.049-0.12c-0.149,0.036-0.298,0.072-0.439,0.114c-0.406,0.181-0.825,0.337-1.247,0.478  c-3.672,1.777-4.187,5.673-4.244,7.138c4.365,1.121,8.406-0.708,9.877-1.503C71.592,67.882,71.346,65.479,71.893,63.599z"/><path fill="none" d="M59.226,65.047c-0.257,0-0.417-0.005-0.453-0.006l-0.608-0.022l-0.144-0.591  c-0.151-0.628-0.184-1.315-0.151-2.013c-0.686,0.591-2.764,2.522-3.439,4.793c1.167,0.266,3.721,0.654,6.86,0.023  c0.329-0.816,0.783-1.652,1.415-2.427C61.179,65.014,59.883,65.047,59.226,65.047z"/><path fill="none" d="M56.163,69.104c-0.309,0.155-0.701,0.876-1.034,1.731c0.877-0.206,1.885-0.311,2.74-0.337  c1.625-0.05,2.729-1.138,2.812-1.225c0.021-0.102,0.043-0.205,0.066-0.31c-1.042,0.161-2.011,0.223-2.883,0.223  C57.244,69.187,56.679,69.152,56.163,69.104z"/><path fill="none" d="M51.792,60.646c-0.826,0.594-2.429,1.898-3.155,3.532c0.837,0.35,2.583,0.879,5.062,0.731  c0.657-1.155,1.493-2.131,2.177-2.824C54.091,61.71,52.646,61.079,51.792,60.646z"/><path fill="none" d="M74.228,58.812c-1.419-1.172-2.334-2.626-2.711-4.254c-0.889,0.595-1.794,1.01-2.64,1.293  c-0.071,0.753-0.351,4.288,0.409,6.517c1.154-0.072,3.993-0.444,6.236-2.176C75.094,59.657,74.644,59.155,74.228,58.812z"/><path fill="none" d="M88.363,49.208c-1.223,5.134-3.656,7.378-3.766,7.478l-0.445,0.401l-0.511-0.312  c-0.142-0.087-0.274-0.187-0.41-0.282c-0.159,0.345-0.379,0.797-0.665,1.328c-0.01,1.39,1.605,3.78,3.156,5.628  c0.399-1.808,1.426-4.227,2.885-6.695c1.667-2.82,1.312-5.83,1.139-6.789C89.287,49.738,88.818,49.486,88.363,49.208z"/><path fill="none" d="M29.39,18.135l0.34,1.063c0.01,0.03,0.345,1.137,0.446,2.75c1.458-1.68,3.646-4.919,2.743-8.458  c-1.188-0.033-2.8,0.016-3.715,0.261c0.144,1.655-0.077,3.572-1.208,5.384c0.167-0.107,0.332-0.218,0.495-0.338L29.39,18.135z"/><path fill="none" d="M18.125,27.271c1.197-0.53,3.474-1.856,4.042-4.436c0.518-2.356-0.899-5.026-1.955-6.606  c-0.354,0.898-1.001,2.165-2.158,3.96c-1.025,1.589-0.86,3.714-0.822,4.083L18.125,27.271z"/><path fill="none" d="M24.277,20.654c4.282-2.934,3.565-7.108,2.824-9.216c-1.388,1.782-3.885,4.01-4.923,4.91  c0.708,1.227,1.403,2.778,1.626,4.404C23.938,20.728,24.099,20.694,24.277,20.654z"/><path fill="none" d="M48.336,3.845c-0.842,0.759-1.991,1.549-3.648,1.857c-3.303,0.614-5.251,2.018-5.621,2.303  c-0.211,0.961-0.635,2.017-1.391,3.115c2.35,0.087,4.409,0.566,5.121,0.75C47.114,10.291,48.13,6.243,48.336,3.845z"/><path fill="none" d="M23.733,23.18c-0.757,3.446-3.731,5.058-5.151,5.644c0.146,0.539,0.267,1.104,0.365,1.678  c2.348-3.451,5.363-4.101,5.542-4.136l0.602-0.117l0.271,0.549c0.423,0.856,0.561,1.88,0.513,2.979  c3.153-3.084,2.912-7.14,2.573-9.037c-1.914,1.116-3.817,1.509-4.594,1.631C23.831,22.642,23.792,22.912,23.733,23.18z"/><path fill="none" d="M33.57,11.912l0.539,0.031l0.17,0.5c3.296-2.778,3.55-5.438,3.322-6.956c-1.615,1.316-4.45,2.13-5.595,2.353  c-1.227,0.239-2.736,1.815-3.52,2.768c0.161,0.434,0.328,0.96,0.465,1.556C30.663,11.761,33.233,11.893,33.57,11.912z"/><path fill="none" d="M25.935,89.074c0.261-0.352,0.542-0.674,0.835-0.934c-0.245-0.383-0.45-0.835-0.622-1.32  C26.026,87.569,25.94,88.352,25.935,89.074z"/><path fill="none" d="M67.744,11.765c0.897,0.706,2.538,2.106,4.092,3.981c2.32-0.301,5.106-3.405,6.722-5.572  c-2.714-0.196-6.126-1.764-7.171-2.273C70.55,9.003,69.299,10.464,67.744,11.765z"/><path fill="none" d="M52.668,12.22c5.211-1.286,6.604-5.946,6.748-6.482c0.329-1.235,0.086-2.617-0.15-3.495  c-1.591,0.804-4.477,1.803-6.367,1.803c-1.59,0-2.816,1.049-3.183,1.401c-0.323,1.698-1.031,3.695-2.519,5.359  C48.589,10.919,50.522,11.268,52.668,12.22z"/><path fill="none" d="M72.899,17.137c0.257,0.365,0.507,0.739,0.741,1.128l0.312,0.519l-0.413,0.441  c-0.022,0.024-0.109,0.116-0.247,0.253c4.382,3.15,10.241,1.973,13.012,1.135c-2.593-1.883-6.483-5.857-8.054-7.497  C76.787,14.777,74.869,16.52,72.899,17.137z"/><path fill="none" d="M62.803,12.83c3.501-1.162,6.359-4.592,7.651-6.371c-1.754-0.322-3.548-1.14-3.646-1.184  c-1.691-0.752-4.456-0.405-5.662-0.201c-0.03,0.359-0.086,0.72-0.181,1.076c-0.33,1.241-1.002,2.64-2.041,3.918  C59.919,10.646,61.518,11.657,62.803,12.83z"/><path fill="none" d="M25.257,58.117c0.101,1.184,0.139,2.233,0.116,3.16c0.521-0.049,1.458-0.19,2.583-0.504  c-0.666-0.916-1.332-1.871-1.921-2.933L25.257,58.117z"/><path fill="none" d="M30.827,59.057l-1.055-3.054l2.361,2.206c0.07,0.064,1.197,1.119,2.207,2.131  c-0.015-0.663-0.112-1.501-0.394-2.453c-0.359-1.212-0.944-2.147-1.51-3.054c-0.871-1.396-1.693-2.714-1.375-4.59  c0.471-2.774,2.779-7.176,2.875-7.363c0.047-0.078,0.996-1.576,0.65-3.082c-0.048-0.207-0.12-0.407-0.214-0.599c0,0,0,0,0,0  c-0.285-0.579-0.78-1.086-1.48-1.514c-0.378-0.229-0.498-0.723-0.267-1.102c0.23-0.377,0.724-0.499,1.103-0.267  c0.564,0.344,1.017,0.743,1.395,1.177c0.691-1.019,1.721-1.816,2.805-2.418c-0.726-0.496-3.28-0.242-5.397,0.294  c-0.818,1.108-1.706,1.785-2.208,2.109c-0.075,0.73-0.248,1.406-0.508,2.052l2.218-1.573c0,0,2.312,0.09,1.78,2.941  c-0.532,2.854-3.34,0.936-3.34,0.936l-0.66-2.3c-0.726,1.801-2.146,3.364-4.167,5.162c-0.466,0.415-0.812,0.784-1.068,1.154  c0.189,1.387,1.121,7.774,2.551,10.647c0.66,1.326,1.514,2.497,2.34,3.631c0.683,0.938,1.346,1.849,1.88,2.81  C31.422,61.875,31.337,60.531,30.827,59.057z M28.772,45.334v-1.649c0-0.535,1.56,0.39,1.56,0.39s0.089,1.126-0.134,1.26  C29.976,45.467,28.772,45.334,28.772,45.334z"/><path fill="none" d="M24.978,55.424c0.041,0.336,0.081,0.688,0.12,1.048l0.232-0.082C25.208,56.084,25.091,55.761,24.978,55.424z"/><path fill="none" d="M29.858,76.904c-0.706-0.037-1.199-0.133-1.247-0.143l-0.63-0.13l-0.007-0.369  c-0.518,0.699-0.929,1.681-1.237,2.974c-0.147,0.619-0.438,1.365-0.731,2.032C28.406,80.102,29.447,78.041,29.858,76.904z"/><circle fill="none" cx="19.986" cy="49.601" r="0.914"/><path fill="none" d="M28.706,35.582c-0.927,0.217-2.417,0.54-3.532,0.658c-0.625,0.066-1.326,0.906-1.816,1.735  c-0.139,0.283-0.275,0.558-0.405,0.81l-0.032,0.062c-0.077,0.189-0.14,0.364-0.166,0.496l-0.715-0.144l-0.281,0.073  c-0.059-0.034-0.136-0.091-0.207-0.17l-0.37-0.074c0.082-0.408,0.336-1.071,0.725-1.759c1.902-3.895,2.717-7.196,2.243-9.123  c-1.144,0.448-3.531,1.791-5.034,5.426c-0.089,1.203-0.386,2.382-1.008,3.449c0.5,0.077,2.079,0.512,1.629,2.924  c-0.016,0.087-0.041,0.157-0.062,0.236c0.166-0.437,0.304-0.813,0.304-0.813c0.207-0.111,0.207-0.111,0.207-0.111  s2.191,1.446,1.987,1.58s-1.746,2.585-2.356,2.674c-0.611,0.09-2.132-0.49-2.04-0.936c0.075-0.363,0.028-0.915,0.008-1.109  c-0.735-0.142-1.388-0.584-1.388-0.584l-0.66-2.303l2.193-1.554l-0.552-0.332l-0.788-0.146c0.234-1.265,0.564-2.36,0.947-3.334  c0.071-1.501-0.225-3.07-0.644-4.456l-0.042-0.142c-0.337-1.087-0.738-2.053-1.068-2.773c-0.135,0.181-0.282,0.368-0.437,0.566  c-0.632,0.805-1.417,1.808-2.139,3.285c-1.016,2.078,0.349,5.725,0.96,6.955l0.203,0.407l-0.246,0.383  c-0.086,0.137-0.211,0.316-0.361,0.533c-1.474,2.135-5.39,7.805-2.788,13.402c2.812,6.051,10.564,12.758,11.396,13.467  c0.086,0.033,0.299,0.095,0.495-0.037c0.307-0.205,1.269-1.298,0.778-6.735c-0.248-2.743-0.571-4.793-0.833-6.44  c-0.643-4.063-0.909-5.745,1.769-8.126C27.668,40.75,29.073,38.86,28.706,35.582z M15.195,44.132c-0.223,0.134-1.426,0-1.426,0  v-1.649c0-0.535,1.56,0.39,1.56,0.39S15.417,43.999,15.195,44.132z M19.576,53.268c-1.434,0-2.598-1.127-2.598-2.517  c0-1.391,1.164-2.518,2.598-2.518c1.435,0,2.598,1.127,2.598,2.518C22.173,52.141,21.011,53.268,19.576,53.268z"/><path fill="#000000" d="M13.769,42.483v1.649c0,0,1.203,0.134,1.426,0c0.223-0.133,0.134-1.259,0.134-1.259  S13.769,41.948,13.769,42.483z"/><path fill="#000000" d="M30.332,44.074c0,0-1.56-0.925-1.56-0.39v1.649c0,0,1.204,0.133,1.426,0  C30.421,45.2,30.332,44.074,30.332,44.074z"/><path fill="#000000" d="M19.576,48.232c-1.434,0-2.598,1.127-2.598,2.518c0,1.39,1.164,2.517,2.598,2.517  c1.435,0,2.598-1.127,2.598-2.517C22.173,49.359,21.011,48.232,19.576,48.232z M19.986,50.515c-0.505,0-0.914-0.408-0.914-0.913  c0-0.505,0.408-0.914,0.914-0.914c0.505,0,0.913,0.409,0.913,0.914C20.899,50.106,20.491,50.515,19.986,50.515z"/><path fill="#000000" d="M94.976,42.528c-0.054-1.965-0.52-3.756-0.904-4.925l2.105,0.369l-2.113-1.878  c-0.663-0.59-1.785-3.414-2.2-7.842c-0.314-3.343-2.139-5.701-3.173-6.792l1.774-0.767l-2.022-0.656  c-1.478-0.479-6.198-5.058-9.16-8.163c0.838-1.065,1.406-1.933,1.566-2.183l1.154-1.804l-2.056,0.602  c-1.814,0.533-5.742-1.032-7.616-1.916c0.137-0.208,0.218-0.34,0.238-0.374l0.777-1.282l-1.498,0.064  c-1.322,0.062-3.62-0.82-4.379-1.168c-1.981-0.88-4.882-0.591-6.35-0.361c-0.163-1.483-0.632-2.646-0.662-2.721l-0.426-1.035  l-0.843,0.736c-0.531,0.463-4.188,2.008-6.291,2.008c-1.167,0-2.163,0.399-2.928,0.843c0.037-0.874-0.016-1.439-0.018-1.461  l-0.164-1.562l-1.17,1.049c-0.167,0.15-0.352,0.341-0.558,0.556c-0.78,0.812-1.848,1.923-3.665,2.261  c-2.361,0.439-4.082,1.238-5.156,1.858c-0.077-1.541-0.599-2.54-0.612-2.563l-0.905-1.659l-0.564,1.805  c-0.302,0.965-3.233,2.267-5.459,2.7c-1.518,0.296-3.028,1.714-3.955,2.745l-0.682-1.207l-0.59,1.653  c-0.395,1.103-3.167,3.777-5.168,5.524c-0.486-0.692-0.865-1.134-0.915-1.192l-2.084-2.381l0.698,3.086  c0.085,0.375-0.458,1.969-2.299,4.826c-0.616,0.957-0.899,2.03-1.022,2.955l-0.186-0.323l-0.458,1.99  c-0.084,0.363-0.468,0.853-0.954,1.472c-0.643,0.819-1.522,1.941-2.318,3.57c-1.323,2.706,0.19,6.641,0.766,7.944  c-0.028,0.041-0.058,0.084-0.089,0.128c-1.461,2.117-5.912,8.559-2.921,14.99c3.108,6.687,11.536,13.782,11.893,14.081l0.11,0.078  c0.232,0.135,0.627,0.277,1.081,0.277c0.313,0,0.654-0.086,0.99-0.27c0.113,0.43,0.168,0.939,0,1.416  c-0.215,0.61-0.785,1.086-1.694,1.415c-1.002,0.362-2.336,0.325-3.623,0.29c-1.831-0.048-3.555-0.096-4.576,0.964  c-0.556,0.578-0.803,1.405-0.735,2.458c0.027,0.425,0.38,0.751,0.799,0.751c0.018,0,0.035-0.001,0.052-0.001  c0.443-0.029,0.778-0.41,0.749-0.853c-0.038-0.593,0.058-1.001,0.291-1.243c0.531-0.549,1.976-0.511,3.377-0.472  c1.44,0.039,2.924,0.079,4.211-0.387c1.389-0.501,2.287-1.31,2.667-2.401c0.47-1.351-0.032-2.722-0.341-3.371  c0.22-0.517,0.38-1.15,0.479-1.905c1.047-0.021,2.625-0.412,3.689-0.731c0.845,1.207,1.564,2.4,1.849,3.709l0.368,1.69  c-0.878,1.054-1.656,2.404-1.871,3.994c-0.386,0.349-0.919,1.072-1.172,2.473c-2.055,1.244-2.716,3.929-2.937,4.854  c-0.306,1.286-1.43,3.396-1.44,3.418l-0.832,1.556l1.719-0.396c0.267-0.062,0.513-0.141,0.761-0.218  c0.003,0.028,0.006,0.057,0.01,0.085l-0.068-0.021c-0.181,0.567-1.727,5.64-0.576,8.374l0.668,1.586l0.427-0.832  c0.513,1.709,1.343,4.134,2.266,5.473l1.175,1.704l0.28-2.051c0.02-0.146,0.396-2.914,0.552-4.874l0.01-0.011  c1.116-1.158,1.736-3.241,2.079-5.004l0.441,0.75l-0.075-3.092c-0.014-0.534,0.219-2.042,0.897-3.807  c0.342-0.893,0.512-1.631,0.596-2.215c0.427-0.524,1.405-1.469,2.773-2.385c0.77-0.515,1.329-1.006,1.731-1.426  c1.281-0.012,2.953-0.134,4.118-0.632c0.691-0.295,1.274-0.674,1.771-1.063l-0.076,0.767l1.301-0.652  c0.615-0.309,2.565-1.119,3.312-1.119c0.233,0,0.557,0.032,0.93,0.067c0.893,0.083,1.987,0.185,2.946,0.039l-0.387,1.657  l1.929-1.751c0.178-0.16,1.338-0.623,3.503-0.69c1.017-0.031,1.863-0.348,2.519-0.701c-0.004,0.232,0.001,0.372,0.002,0.383  l0.031,0.554l0.528,0.167c1.352,0.425,2.674,0.594,3.924,0.594c3.199,0,5.912-1.106,7.357-1.84c0.078,0.301,0.141,0.522,0.172,0.628  l0.426,1.431l0.959-1.145c0.275-0.33,1.471-0.878,2.524-1.36c1.344-0.614,3.017-1.381,4.414-2.344  c1.818-1.255,3.169-2.824,3.898-3.779c0.554,0.646,0.99,1.105,1.132,1.252l1.968,2.03l-0.607-2.762  c-0.191-0.867,0.559-3.811,2.822-7.64c1.53-2.588,1.616-5.247,1.477-6.846c0.909,0.359,1.618,0.581,1.839,0.646l1.432,0.425  l-0.438-1.429c-0.125-0.412,0.066-1.711,0.237-2.857C94.752,46.046,95.021,44.227,94.976,42.528z M90.265,28.402  c0.269,2.855,0.858,5.416,1.597,7.113c-2.117-0.528-4.553-1.386-5.595-2.382c0.765-1.753,2.185-6.169-0.229-10.764  c0.364-0.1,0.695-0.198,0.989-0.292C87.445,22.449,89.927,24.792,90.265,28.402z M32.929,61.2c0.556,0.55,1.101,1.107,1.428,1.489  l0.56,0.654c-0.389,0.527-0.748,1.122-1.053,1.785c-0.344,0.225-1.053,0.725-1.821,1.463l0.262-0.581  C32.351,65.908,33.199,63.977,32.929,61.2z M33.992,54.298c0.542-0.341,1.3-0.7,1.778-0.896l0.762-0.312L36.2,52.336  c-1.065-2.412-1.39-6.558-1.45-7.49c0.333-0.697,0.571-1.153,0.57-1.153c0.054-0.083,1.325-2.063,0.834-4.238  c-0.022-0.1-0.07-0.19-0.099-0.287c0.858-2.442,4.868-3.789,6.607-4.159c1.471,0.391,2.64,0.883,2.917,1.379l0.829,1.494l0.62-1.593  c0.012-0.032,0.108-0.291,0.178-0.741c0.399,0.033,0.923,0.063,1.533,0.069l0.1,0.034c-0.019-0.01-0.042-0.025-0.061-0.034  c0.06,0,0.116,0.002,0.178,0.002c1.368,0,3.124-0.143,4.883-0.629c0.173,0.211,0.391,0.417,0.673,0.613  c0.887,0.617,2.326,1.142,3.558,1.235c0.576,0.326,3.119,1.977,2.129,5.084c-0.564,0.64-3.768,4.009-8.259,3.769l-2.874-0.154  c0.638-0.759,1.33-1.812,1.462-1.899c0.205-0.134-1.986-1.58-1.986-1.58s0,0-0.207,0.111c0,0-0.301,0.819-0.547,1.448  c-0.246,0.63-1.656,0.573-1.656,0.573s0.092,0.741,0,1.186c-0.092,0.446,1.429,1.026,2.04,0.936c0.204-0.03,0.513-0.331,0.839-0.712  l2.454,1.568c0.043,0.027,0.3,0.188,0.727,0.408c-0.972,0.719-2.156,1.854-2.949,3.432c-0.864,0.331-3.193,1.393-4.809,3.665  c-0.605,0.271-2.237,1.084-3.67,2.494l0-0.001c-0.414,0.365-2.809,0.951-5.017,1.333c-0.067-0.341-0.151-0.697-0.262-1.07  C35.109,56.162,34.534,55.174,33.992,54.298z M33.168,52.928c-0.433-0.794-0.677-1.518-0.525-2.415  c0.133-0.781,0.441-1.733,0.803-2.676c0.196,1.396,0.506,3.031,0.991,4.402C34.059,52.418,33.594,52.661,33.168,52.928z   M30.309,28.947l-0.167-0.03c-0.498-0.09-0.981-0.167-1.436-0.211c0.85-1.471,1.261-3.002,1.414-4.399  c0.253-0.224,1.115-1.021,2.038-2.242c0.153-0.045,0.312-0.106,0.517-0.193c0.946-0.398,2.658-1.124,4.984-0.053  c-0.142,3.573-3.885,6.164-4.48,6.554C31.939,28.73,30.615,28.999,30.309,28.947z M32.708,30.163  c-0.148,2.737-1.431,4.417-2.405,5.311c-0.036-0.332-0.081-0.67-0.147-1.026l-0.158-0.842l-0.83,0.212  c-0.025,0.007-2.576,0.658-4.164,0.826c-0.082,0.009-0.161,0.029-0.241,0.046c0.306-0.841,0.577-1.711,0.776-2.575  c0.792-0.559,1.461-1.161,2.014-1.794c0.179-0.079,0.716-0.11,2.303,0.176l0.172,0.032C30.617,30.627,31.798,30.39,32.708,30.163z   M34.662,14.191c0.639-0.488,1.195-0.978,1.675-1.465c2.266-0.082,4.523,0.341,5.612,0.59c-0.565,2.722-3.282,5.754-4.266,6.781  c-1.662-0.601-3.08-0.487-4.14-0.222C34.367,18.262,34.92,16.309,34.662,14.191z M54.666,13.251c1.22-0.507,2.26-1.194,3.125-1.983  c1.427,0.809,4.016,2.472,5.031,3.951c-1.057,1.237-4.496,4.887-8.582,5.276c-0.877-0.983-1.98-1.784-2.804-2.304  c2.022-1.914,3.098-3.932,3.175-4.082l0.357-0.685L54.666,13.251z M64.519,14.952c-0.136-0.286-0.321-0.571-0.535-0.854  c0.859-0.354,1.676-0.809,2.436-1.329c0.86,0.653,3.586,2.844,5.514,5.792c-1.13,1.076-4.288,3.8-7.404,3.983  c-1.264-1.268-3.021-2.25-4.242-2.837c2.454-1.733,4.04-3.782,4.147-3.924l0.295-0.389L64.519,14.952z M75.764,22.49  c1.536,0.488,3.102,0.682,4.588,0.682c1.472,0,2.859-0.181,4.063-0.421c2.536,4.41,0.863,8.741,0.26,10.014  c-4.612,0.284-7.855-3.026-8.939-4.135c-0.032-0.033-0.055-0.055-0.083-0.084C76.05,27.1,76.286,25.049,75.764,22.49z   M78.607,32.922c0.134,3.447-1.144,6.48-1.725,7.657c-3.131-0.862-5.42-2.817-6.089-3.438c0.558-1.234,1.261-3.383,0.993-5.917  c0.511,0.065,1.027,0.11,1.549,0.11c0.222,0,0.445-0.007,0.669-0.021l0.386-0.023l0.221-0.316c0.027-0.039,0.207-0.3,0.431-0.767  C75.794,30.951,77,32.04,78.607,32.922z M62.03,40.864c0.109-1.864-0.729-3.317-1.709-4.305c0.832-0.144,1.787-0.276,2.627-0.383  c0.471,0.281,1.552,0.896,2.864,1.445C65.202,38.867,63.441,40.079,62.03,40.864z M62.697,48.348  c-0.663-0.677-1.773-2.2-1.889-4.738c0.28-0.274,0.482-0.496,0.604-0.634c0.41-0.186,1.34-0.631,2.364-1.275  c0.145,0.394,0.343,0.882,0.586,1.41C64.656,44.291,64.666,46.236,62.697,48.348z M45.575,27.009  c-0.965-0.744-2.125-1.423-2.942-1.87c1.075-1.167,1.742-2.495,2.142-3.565c2.131-0.294,3.919-1.205,5.367-2.294  c1.195,0.7,3.134,2.075,3.747,3.537C53.284,23.737,50.979,26.6,45.575,27.009z M45.684,34.446c-0.922-0.519-2.143-0.896-3.296-1.163  c1.086-0.514,1.958-1.145,2.641-1.76C45.523,32.748,45.673,33.738,45.684,34.446z M39.238,20.831l-0.026-0.014  c0.316-0.343,0.702-0.784,1.118-1.296c1.047,0.096,2.428,0.266,3.283,0.467c-0.384,1.543-1.735,5.292-5.869,6.171  c0.915-1.33,1.607-2.98,1.517-4.875L39.238,20.831z M55.541,22.688c-0.069-0.247-0.172-0.485-0.286-0.72  c1.214-0.229,2.351-0.682,3.389-1.241c1.391,0.575,4.195,1.989,5.359,3.665c-1.335,1.39-5.818,5.72-9.426,5.28  c-0.03-0.029-0.07-0.061-0.097-0.089c-0.183-0.191-0.381-0.465-0.609-0.773c-0.482-0.652-1.088-1.46-1.876-2.103  c2.458-1.493,3.427-3.313,3.489-3.436l0.143-0.281L55.541,22.688z M46.987,29.157l0.239-0.447l-0.19-0.258  c1.269-0.2,2.375-0.521,3.322-0.917c0.924,0.479,1.64,1.439,2.223,2.229c0.271,0.365,0.505,0.681,0.74,0.928  c0.555,0.58,1.637,1.293,2.475,1.806c-3.039,1.701-7.003,1.571-8.54,1.441c-0.074-0.973-0.347-2.219-1.029-3.677  C46.711,29.658,46.957,29.214,46.987,29.157z M57.803,33.089l0.959-0.745l-1.062-0.59c-0.241-0.134-0.642-0.366-1.082-0.637  c2.029-0.461,4.026-1.708,5.625-2.963c0.496,1.111,1.477,3.553,1.863,6.266c-1.297,0.148-3.83,0.46-5.273,0.797  c-0.861,0.204-2.445-0.319-3.276-0.817C56.342,34.06,57.104,33.632,57.803,33.089z M65.797,35.054  c-0.263-2.757-1.146-5.296-1.771-6.815c1.354,0.848,3.567,2.046,6.089,2.673c0.441,2.761-0.539,5.118-1.019,6.048  c-1.122-0.184-2.32-0.645-3.315-1.105l0.091-0.009L65.797,35.054z M67.332,38.176c0.706,0.219,1.431,0.386,2.13,0.446l0.479,0.042  l0.053-0.081c0.446,0.392,1.146,0.957,2.057,1.543c-0.784,3.697-2.254,5.868-2.975,6.743c-1.567-1.197-2.641-3.079-3.298-4.538  c-0.175-0.566-0.373-0.96-0.474-1.141c-0.061-0.164-0.119-0.323-0.162-0.45C66.065,40.009,66.9,39.14,67.332,38.176z M73.491,29.729  c-3.91,0.104-7.824-2.289-9.277-3.283c0.802-0.763,1.315-1.335,1.386-1.415l0.354-0.401l-0.234-0.48  c-0.023-0.047-0.055-0.092-0.079-0.139c2.591-0.498,4.984-2.188,6.443-3.426c0.6,0.458,1.22,0.852,1.855,1.173  C75.139,26.01,73.98,28.813,73.491,29.729z M45.279,19.857c0.036-0.177,0.056-0.296,0.057-0.305l0.082-0.591l-0.542-0.249  c-0.712-0.327-2.248-0.555-3.423-0.689c0.979-1.425,1.869-3.111,2.122-4.749c0.651-0.255,1.242-0.552,1.769-0.891  c0.668-0.055,3.8-0.184,7.441,1.662C51.837,15.524,49.252,18.967,45.279,19.857z M34.312,29.544c0.19-0.131,0.434-0.307,0.722-0.536  c1.754,1.323,2.345,3.127,2.537,4.285c-1.232-0.207-2.782-0.02-3.986,0.203C34.033,32.42,34.324,31.111,34.312,29.544z   M36.262,27.936c2.166-0.069,3.82-0.736,5.091-1.662c1.072,0.56,2.969,1.648,3.928,2.584c-0.685,0.976-2.626,3.174-6.21,3.757  C38.777,31.246,38.043,29.394,36.262,27.936z M39.374,34.378c-0.035,0.015-0.071,0.032-0.107,0.047c0-0.017,0-0.038,0-0.06  C39.303,34.37,39.338,34.373,39.374,34.378z M60.248,47.668c-2.033,0.17-3.89-0.21-5.291-0.676c1.778-0.445,3.254-1.294,4.358-2.112  C59.497,46.004,59.849,46.924,60.248,47.668z M43.17,57.247c-0.099,0.329-0.183,0.672-0.247,1.032l-0.065,0.367  c-0.592,0.134-1.174,0.3-1.696,0.473C41.761,58.35,42.492,57.727,43.17,57.247z M40.251,61.171  c-0.536,0.698-0.965,1.559-1.202,2.597c-0.976,0.1-2.004,0.324-2.861,0.554c0.977-1.331,2.153-2.182,2.851-2.614l0.711-0.322  C39.901,61.316,40.076,61.243,40.251,61.171z M35.934,60.101c0.797-0.137,2-0.361,3.132-0.648c-0.086,0.171-0.165,0.347-0.239,0.526  c-0.426,0.217-1.772,0.969-3.076,2.361C35.797,62.167,35.986,61.354,35.934,60.101z M37.261,65.709  c1.191-0.282,2.485-0.487,3.344-0.344c0.458,0.131,1.035,0.276,1.683,0.4c-0.717,0.668-1.547,1.586-2.125,2.652  c-2.088,0.354-3.56,0.303-4.375,0.212C36.224,67.143,36.953,66.104,37.261,65.709z M40.709,63.72  c0.725-2.309,2.825-3.336,3.907-3.723c0.408-0.025,0.777-0.012,1.061,0.075c0.962,0.318,2.148,0.628,3.407,0.774  c-0.899,0.906-1.795,2.09-2.197,3.462C44.578,64.754,41.923,64.092,40.709,63.72z M44.635,57.96  c0.675-2.569,2.541-4.063,3.896-4.839c-0.036,0.188-0.083,0.368-0.106,0.564l-0.166,1.392l1.285-0.562  c0.666-0.291,2.652-1.001,3.805-0.813c0.059,0.01,0.125,0.015,0.185,0.023c-0.942,1.131-2.291,3.082-2.925,5.58l-0.004,0.015  C48.168,59.344,45.709,58.423,44.635,57.96z M55.574,53.874c0.904,0.007,1.826-0.052,2.653-0.193  c-0.45,0.874-0.805,1.818-0.96,2.811l-0.104,0.66l0.632,0.222c0.051,0.018,0.445,0.148,1.099,0.297  c-0.266,0.748-0.619,1.876-0.839,3.097c-2.577-0.161-4.771-1.152-5.728-1.652C53.27,56.144,55.307,54.128,55.574,53.874z   M53.608,52.121c-1.031-0.172-2.308,0.105-3.277,0.402c0.79-2.251,2.674-3.618,3.608-4.179c1.365,0.506,3.202,0.984,5.289,0.984  c0.654,0,1.338-0.069,2.033-0.176c0.084,0.097,0.167,0.188,0.245,0.27c-0.563,0.538-1.276,1.286-1.966,2.193l-0.005-0.007  C58.653,52.2,55.664,52.457,53.608,52.121z M62.775,50.437l0.04,0.027l0.229-0.212c0.121,1.694,0.423,4.09,1.191,5.751l0.201,0.435  l0.479,0.029c0.013,0,0.05,0.002,0.104,0.004c-2.795,0.216-4.974-0.173-6.018-0.427C59.665,53.598,61.666,51.472,62.775,50.437z   M60.498,57.954c0.812,0.11,1.769,0.194,2.868,0.194c1.139,0,2.422-0.096,3.801-0.329c-0.018,1.175,0.037,2.627,0.307,3.948  c-0.182,0.095-0.367,0.185-0.557,0.27c-0.42,0.132-0.811,0.283-1.178,0.453c-2.412,0.791-5.062,0.929-6.26,0.948  C59.291,61.525,60.093,59.055,60.498,57.954z M65.497,54.859c-0.774-2.088-0.902-5.241-0.924-6.276  c0.718-0.969,1.128-1.913,1.33-2.789c0.761,1.072,1.703,2.095,2.875,2.813l0.511,0.313l0.444-0.401  c0.049-0.044,0.562-0.521,1.22-1.481c0.332,0.47,0.801,1.077,1.407,1.737c-0.484,0.85-0.996,2.283-1.033,3.908  C69.133,54.489,66.555,54.814,65.497,54.859z M71.863,45.511c0.601-1.151,1.209-2.647,1.653-4.541  c1.047,0.537,2.259,1.023,3.608,1.322l0.567,0.125l0.296-0.5c0.023-0.039,0.163-0.281,0.357-0.675  c0.573,0.611,1.349,1.341,2.224,2.044c-0.712,3.457-2.776,6.14-3.653,7.147C74.038,48.768,72.303,46.212,71.863,45.511z   M73.553,49.952c0.878,0.787,1.931,1.567,3.164,2.201l0.517,0.267l0.414-0.409c0.055-0.055,0.575-0.576,1.255-1.471  c0.567,1.385,1.557,3.333,3.058,4.867c-0.312,0.722-1.588,3.493-3.702,5.835c-0.691-1.046-1.91-2.762-3.009-3.669  c-1.442-1.189-2.223-2.658-2.319-4.363C72.854,51.849,73.222,50.673,73.553,49.952z M80.008,48.918  c0.755-1.238,1.513-2.799,1.976-4.59c1.059,0.707,2.163,1.276,3.168,1.489c0.307,0.893,0.964,1.685,1.785,2.373  c-0.779,3.762-2.271,5.963-2.997,6.845C81.685,53.316,80.433,50.162,80.008,48.918z M85.389,44.234  c-2.256-0.515-5.471-3.576-6.348-4.591c0.567-1.493,1.152-3.604,1.188-5.977c1.149,0.432,2.439,0.721,3.868,0.721  c0.361,0,0.733-0.021,1.111-0.06c0.679,0.621,1.628,1.144,2.646,1.575C88.422,38.919,86.181,42.938,85.389,44.234z M86.304,20.613  c-2.771,0.838-8.63,2.016-13.012-1.135c0.138-0.137,0.225-0.229,0.247-0.253l0.413-0.441l-0.312-0.519  c-0.234-0.39-0.484-0.764-0.741-1.128c1.97-0.618,3.888-2.36,5.351-4.021C79.82,14.756,83.711,18.73,86.304,20.613z M78.558,10.174  c-1.615,2.167-4.401,5.271-6.722,5.572c-1.554-1.875-3.194-3.275-4.092-3.981c1.555-1.3,2.806-2.761,3.643-3.864  C72.432,8.41,75.844,9.978,78.558,10.174z M60.966,6.15c0.095-0.356,0.15-0.717,0.181-1.076c1.206-0.204,3.971-0.551,5.662,0.201  c0.098,0.044,1.892,0.862,3.646,1.184c-1.292,1.779-4.15,5.209-7.651,6.371c-1.285-1.173-2.884-2.184-3.878-2.762  C59.964,8.79,60.636,7.391,60.966,6.15z M49.716,5.446c0.367-0.352,1.593-1.401,3.183-1.401c1.891,0,4.776-0.999,6.367-1.803  c0.236,0.878,0.479,2.26,0.15,3.495c-0.144,0.536-1.537,5.196-6.748,6.482c-2.146-0.952-4.079-1.301-5.471-1.415  C48.685,9.141,49.393,7.144,49.716,5.446z M39.067,8.005c0.37-0.285,2.318-1.688,5.621-2.303c1.658-0.308,2.807-1.098,3.648-1.857  c-0.207,2.398-1.222,6.446-5.54,8.025c-0.711-0.184-2.771-0.663-5.121-0.75C38.432,10.022,38.855,8.966,39.067,8.005z M32.006,7.84  c1.145-0.223,3.979-1.036,5.595-2.353c0.228,1.518-0.026,4.178-3.322,6.956l-0.17-0.5l-0.539-0.031  c-0.337-0.02-2.907-0.151-4.618,0.252c-0.137-0.596-0.305-1.122-0.465-1.556C29.27,9.655,30.779,8.08,32.006,7.84z M29.204,13.751  c0.915-0.246,2.526-0.294,3.715-0.261c0.904,3.539-1.285,6.778-2.743,8.458c-0.102-1.613-0.437-2.72-0.446-2.75l-0.34-1.063  l-0.899,0.662c-0.163,0.12-0.329,0.231-0.495,0.338C29.127,17.323,29.348,15.406,29.204,13.751z M28.448,20.74  c0.339,1.897,0.581,5.953-2.573,9.037c0.048-1.099-0.09-2.124-0.513-2.979l-0.271-0.549l-0.602,0.117  c-0.179,0.035-3.194,0.686-5.542,4.136c-0.098-0.574-0.219-1.139-0.365-1.678c1.42-0.586,4.394-2.198,5.151-5.644  c0.059-0.268,0.098-0.538,0.121-0.808C24.631,22.249,26.534,21.856,28.448,20.74z M27.101,11.438  c0.741,2.107,1.458,6.282-2.824,9.216c-0.178,0.041-0.339,0.074-0.473,0.098c-0.223-1.626-0.918-3.178-1.626-4.404  C23.216,15.448,25.713,13.22,27.101,11.438z M18.054,20.189c1.156-1.795,1.804-3.062,2.158-3.96c1.055,1.58,2.473,4.25,1.955,6.606  c-0.567,2.58-2.844,3.906-4.042,4.436l-0.893-2.999C17.194,23.903,17.029,21.778,18.054,20.189z M22.812,51.624  c0.261,1.647,0.585,3.697,0.833,6.44c0.491,5.438-0.471,6.53-0.778,6.735c-0.196,0.132-0.409,0.07-0.495,0.037  c-0.833-0.709-8.584-7.416-11.396-13.467c-2.602-5.598,1.314-11.268,2.788-13.402c0.15-0.217,0.275-0.396,0.361-0.533l0.246-0.383  l-0.203-0.407c-0.611-1.23-1.976-4.877-0.96-6.955c0.722-1.477,1.507-2.479,2.139-3.285c0.155-0.198,0.302-0.385,0.437-0.566  c0.331,0.72,0.731,1.686,1.068,2.773l0.042,0.142c0.419,1.386,0.715,2.955,0.644,4.456c-0.383,0.974-0.712,2.069-0.947,3.334  l0.788,0.146l0.552,0.332l-2.193,1.554l0.66,2.303c0,0,0.653,0.442,1.388,0.584c0.02,0.194,0.066,0.747-0.008,1.109  c-0.092,0.446,1.429,1.025,2.04,0.936c0.611-0.089,2.152-2.54,2.356-2.674s-1.987-1.58-1.987-1.58s0,0-0.207,0.111  c0,0-0.138,0.376-0.304,0.813c0.021-0.079,0.045-0.148,0.062-0.236c0.45-2.412-1.129-2.847-1.629-2.924  c0.622-1.067,0.918-2.246,1.008-3.449c1.503-3.635,3.891-4.978,5.034-5.426c0.474,1.927-0.341,5.228-2.243,9.123  c-0.389,0.688-0.644,1.352-0.725,1.759l0.37,0.074c0.071,0.079,0.148,0.136,0.207,0.17l0.281-0.073l0.715,0.144  c0.026-0.132,0.089-0.307,0.166-0.496l0.032-0.062c0.13-0.252,0.266-0.527,0.405-0.81c0.49-0.83,1.191-1.669,1.816-1.735  c1.115-0.118,2.605-0.441,3.532-0.658c0.368,3.278-1.037,5.169-4.125,7.916C21.904,45.879,22.17,47.561,22.812,51.624z   M25.098,56.472c-0.039-0.36-0.079-0.712-0.12-1.048c0.114,0.337,0.231,0.66,0.353,0.966L25.098,56.472z M25.373,61.277  c0.022-0.927-0.015-1.977-0.116-3.16l0.778-0.276c0.589,1.062,1.255,2.017,1.921,2.933C26.832,61.087,25.894,61.229,25.373,61.277z   M29.469,60.129c-0.826-1.134-1.68-2.305-2.34-3.631c-1.43-2.873-2.362-9.26-2.551-10.647c0.256-0.371,0.602-0.739,1.068-1.154  c2.021-1.798,3.441-3.361,4.167-5.162l0.66,2.3c0,0,2.809,1.918,3.34-0.936c0.532-2.852-1.78-2.941-1.78-2.941l-2.218,1.573  c0.26-0.646,0.433-1.322,0.508-2.052c0.503-0.324,1.39-1.001,2.208-2.109c2.118-0.537,4.672-0.791,5.397-0.294  c-1.084,0.603-2.114,1.399-2.805,2.418c-0.378-0.434-0.831-0.833-1.395-1.177c-0.379-0.232-0.873-0.11-1.103,0.267  c-0.231,0.378-0.111,0.872,0.267,1.102c0.701,0.428,1.196,0.936,1.48,1.514c0,0,0,0,0,0c0.094,0.192,0.166,0.392,0.214,0.599  c0.346,1.505-0.603,3.004-0.65,3.082c-0.097,0.187-2.404,4.588-2.875,7.363c-0.318,1.876,0.503,3.194,1.375,4.59  c0.565,0.906,1.15,1.842,1.51,3.054c0.282,0.952,0.379,1.79,0.394,2.453c-1.01-1.012-2.137-2.066-2.207-2.131l-2.361-2.206  l1.055,3.054c0.51,1.475,0.595,2.818,0.522,3.882C30.815,61.978,30.152,61.066,29.469,60.129z M26.738,79.236  c0.308-1.293,0.719-2.274,1.237-2.974l0.007,0.369l0.63,0.13c0.048,0.01,0.541,0.105,1.247,0.143  c-0.411,1.137-1.453,3.197-3.852,4.364C26.299,80.602,26.59,79.855,26.738,79.236z M25.935,89.074  c0.005-0.723,0.091-1.505,0.213-2.254c0.172,0.485,0.377,0.938,0.622,1.32C26.477,88.4,26.195,88.723,25.935,89.074z M28.583,91.351  c0,0.724-0.134,2.089-0.276,3.332c-0.651-1.673-1.162-3.528-1.352-4.25c0.381-0.581,0.745-1.038,0.964-1.212l0.148,0.092  c0.201,0.382,0.42,1.172,0.568,2.038H28.583z M28.068,87.234c-0.582-0.95-0.983-3.039-1.133-4.642  c0.769-0.396,1.426-0.862,1.971-1.367c0.303,0.925,0.784,1.95,1.251,2.847C29.791,85.404,28.727,86.599,28.068,87.234z   M29.956,89.818c-0.16-0.581-0.376-1.127-0.661-1.539c0.44-0.435,0.996-1.052,1.482-1.793C30.61,87.551,30.348,88.78,29.956,89.818z   M31.974,80.931c-0.26,0.676-0.466,1.336-0.622,1.939c-0.714-1.443-1.186-2.685-1.165-3.132c0.818-1.178,1.212-2.3,1.379-2.902  c0.27-0.035,0.54-0.089,0.814-0.157c-0.025,0.941,0.021,1.839,0.063,2.43l0.009,0.126C32.377,79.681,32.235,80.25,31.974,80.931z   M32.633,74.38c-0.042,0.179-0.076,0.366-0.105,0.558c-1.016,0.409-2.217,0.407-2.944,0.339c0.095-1.993,0.764-2.539,0.833-2.591  l0.052-0.033c0.016-0.011,1.229-0.766,2.564-0.919c-0.274,0.527-0.507,1.113-0.634,1.773l-0.155,0.81L32.633,74.38z M31.185,70.545  c0.909-2.305,3.237-3.869,3.647-4.132c0.039-0.014,0.09-0.03,0.133-0.045c-0.373,0.738-0.737,1.665-0.947,2.752l-0.138,0.714  l0.414,0.123c-0.059,0.063-0.115,0.121-0.175,0.188C33.058,70.011,32.007,70.246,31.185,70.545z M35.948,75.573  c-0.751,0.501-1.417,1.028-1.963,1.519c0.01-1.078,0.097-2.016,0.238-2.563c0.112,0.003,0.21,0.007,0.338,0.007  c0.709,0,1.679-0.049,2.877-0.198C37.113,74.682,36.641,75.109,35.948,75.573z M38.211,72.606c-1.827,0.292-3.165,0.336-3.975,0.319  c0.573-1.422,1.688-2.353,2.077-2.646c0.24,0.013,0.496,0.022,0.785,0.022c0.67-0.001,1.477-0.045,2.407-0.163l-0.005,0.019  C38.996,70.834,38.554,71.76,38.211,72.606z M42.059,73.373c-0.573,0.244-1.489,0.409-2.606,0.476  c0.504-1.366,1.099-2.549,1.494-2.962c0.66,0.145,1.701,0.304,3.151,0.304c0.225,0,0.468-0.008,0.711-0.017  C44.447,71.661,43.521,72.748,42.059,73.373z M45.514,69.531c-1.912,0.136-3.269-0.021-4.041-0.171  c0.801-1.627,2.482-2.946,2.99-3.32c0.246,0.014,0.495,0.023,0.746,0.023c0.948,0,1.917-0.116,2.833-0.398  c0.351,0.146,0.803,0.309,1.363,0.455c-0.655,0.234-1.322,0.567-1.949,1.049C46.644,67.792,45.998,68.584,45.514,69.531z   M53.343,71.065c-0.593,0.432-2.321,0.271-3.265,0.183c-0.432-0.039-0.81-0.072-1.079-0.072c-0.71,0-1.781,0.353-2.64,0.688  c0.361-1.489,1.053-2.635,2.064-3.415c1.517-1.169,3.419-1.261,4.353-1.222c-0.031,0.143-0.067,0.284-0.09,0.43l-0.104,0.66  l0.631,0.222c0.047,0.017,0.451,0.149,1.114,0.29C53.89,69.531,53.559,70.38,53.343,71.065z M53.699,64.909  c-2.479,0.147-4.225-0.382-5.062-0.731c0.726-1.634,2.329-2.938,3.155-3.532c0.854,0.434,2.299,1.064,4.084,1.439  C55.192,62.778,54.356,63.754,53.699,64.909z M60.682,69.273c-0.084,0.087-1.188,1.175-2.812,1.225  c-0.855,0.026-1.863,0.131-2.74,0.337c0.333-0.855,0.726-1.576,1.034-1.731c0.516,0.049,1.081,0.083,1.702,0.083  c0.872,0,1.841-0.062,2.883-0.223C60.725,69.068,60.702,69.172,60.682,69.273z M54.43,67.208c0.676-2.271,2.754-4.202,3.439-4.793  c-0.032,0.697,0,1.385,0.151,2.013l0.144,0.591l0.608,0.022c0.036,0.001,0.196,0.006,0.453,0.006c0.657,0,1.953-0.033,3.479-0.242  c-0.632,0.774-1.086,1.61-1.415,2.427C58.15,67.862,55.597,67.474,54.43,67.208z M62.043,71.134c0.058-1.465,0.572-5.36,4.244-7.138  c0.422-0.141,0.841-0.297,1.247-0.478c0.142-0.042,0.29-0.078,0.439-0.114c0.018,0.039,0.031,0.082,0.049,0.12l0.21,0.454  l0.502,0.011c0.012,0,0.039,0.001,0.08,0.001c0.327,0,1.548-0.03,3.078-0.392c-0.547,1.881-0.301,4.283,0.027,6.032  C70.449,70.426,66.408,72.255,62.043,71.134z M69.286,62.368c-0.76-2.229-0.48-5.764-0.409-6.517  c0.846-0.283,1.751-0.698,2.64-1.293c0.377,1.628,1.292,3.082,2.711,4.254c0.416,0.343,0.866,0.845,1.295,1.38  C73.279,61.924,70.44,62.296,69.286,62.368z M79.864,67.146c-1.282,0.885-2.816,1.587-4.171,2.207  c-0.783,0.359-1.453,0.666-1.986,0.963c-0.493-2.2-0.988-5.949,0.291-7.393c0.839-0.35,1.691-0.815,2.491-1.43  c0.555,0.797,0.946,1.438,0.954,1.452l0.522,0.863l0.723-0.704c1.09-1.06,1.995-2.245,2.722-3.349  c0.515,1.251,1.382,2.554,2.221,3.646C83.062,64.184,81.721,65.866,79.864,67.146z M88.607,56.753  c-1.459,2.469-2.485,4.888-2.885,6.695c-1.551-1.848-3.166-4.238-3.156-5.628c0.286-0.531,0.506-0.983,0.665-1.328  c0.136,0.096,0.269,0.195,0.41,0.282l0.511,0.312l0.445-0.401c0.109-0.1,2.543-2.344,3.766-7.478  c0.455,0.278,0.924,0.53,1.383,0.757C89.919,50.923,90.274,53.933,88.607,56.753z M92.948,47.272  c-0.126,0.852-0.235,1.582-0.275,2.191c-2.091-0.777-5.456-2.38-6.022-4.217c0.711-1.126,3.059-5.15,2.885-8.727  c1.019,0.329,1.982,0.571,2.704,0.731c0.325,0.824,1.067,2.954,1.132,5.321C93.414,44.129,93.167,45.8,92.948,47.272z"/><path fill="#000000" d="M48.023,37.661c0.188,0.313,0.369,0.742,0.537,0.809c0.167,0.067,1.318,0.788,1.318,0.788l1.884,0.257  l1.338-0.908l-0.258-0.738c0,0-1.132-1.082-1.286-1.082c-0.153,0-1.054,0.463-1.298,0c-0.177-0.337-0.875-0.859-1.401-1.123  C48.846,35.681,47.836,37.349,48.023,37.661z"/><path fill="#000000" d="M48.859,35.659l-0.021-0.007c0.006,0.003,0.013,0.007,0.019,0.01C48.857,35.662,48.859,35.659,48.859,35.659  z"/><path fill="#000000" d="M41.092,43.84c0.626-0.182,2.581-1.958,2.622-2.761c0.04-0.802-0.642-2.674-1.039-2.672  c-0.397,0.002-1.809,0.131-2.917,0.168c-1.109,0.038-1.298,1.902-1.291,2.103c0,0,0.126,2.005,0.527,2.195  C39.395,43.062,40.464,44.021,41.092,43.84z"/><path fill="#000000" d="M40.457,47.316l-0.189,1.371h1.029l0.84-0.455c0,0-0.469-1.137-0.844-1.447  C40.916,46.475,40.457,47.316,40.457,47.316z"/></svg>
