<svg xmlns="http://www.w3.org/2000/svg" xmlns:xlink="http://www.w3.org/1999/xlink" version="1.1" x="0px" y="0px" viewBox="0 0 100 125" enable-background="new 0 0 100 100" xml:space="preserve"><symbol viewBox="-35.139 -29.587 51.423 34.154"><path fill="#000000" stroke="#000000" stroke-width="2.5" stroke-miterlimit="10" d="M-15.035-27.947v18.741   c0,6.916,5.606,12.522,12.522,12.522h8.381c5.062,0,9.165-4.103,9.165-9.165v0c0-4.621-3.781-8.402-8.402-8.402h-7.311   c-2.767,0-5.01-2.243-5.01-5.01v-8.687H-15.035z"/><polygon fill="#000000" points="-4.241,-25.587 -35.139,-25.587 -35.139,-29.587 -4.241,-29.587  "/></symbol><g display="none"><rect x="-341" y="-837" display="inline" fill="#000000" stroke="#000000" stroke-miterlimit="10" width="1294" height="964"/></g><g><path d="M79.484,82.219V69.312h-1.977v12.907c-2.931,0.475-5.178,3.017-5.178,6.079c0,3.4,2.766,6.167,6.167,6.167   s6.167-2.767,6.167-6.167C84.662,85.236,82.415,82.695,79.484,82.219z"/><path d="M60.503,61.094c2.115,0,3.835,1.721,3.835,3.836h1.572c0-2.982-2.426-5.408-5.408-5.408s-5.408,2.426-5.408,5.408h1.572   C56.668,62.814,58.388,61.094,60.503,61.094z"/><path d="M75.913,68.169c4.397-0.357,7.867-4.042,7.867-8.528s-3.47-8.171-7.867-8.528V31.193c0-5.321-1.596-10.103-4.414-14.025   c-1.672-3.71-4.858-6.477-9.512-8.276c-0.9-0.348-1.83-0.671-2.785-0.97c-12.267-3.826-30.64-4.174-39.027,7.47   c-6.085,8.448-4.682,21.338-4.726,31.16c-0.024,5.456,0.141,10.896,0.409,16.326c0.201-0.594,0.408-1.191,0.631-1.791   c0.792-2.062,1.624-4.196,2.667-6.273c1.011-2.092,2.143-4.167,3.366-6.194c1.28-2.01,2.571-3.945,4.109-5.82   c0.372-0.488,0.745-0.886,1.121-1.316c0.205-0.222,0.343-0.393,0.602-0.655l0.603-0.614c0.801-0.815,1.613-1.599,2.432-2.343   c1.623-1.508,3.295-2.842,4.905-4.061c1.604-1.228,3.19-2.287,4.665-3.238c2.949-1.905,5.52-3.287,7.331-4.223   c0.903-0.474,1.631-0.812,2.122-1.05c0.492-0.236,0.755-0.362,0.755-0.362s-0.932,0.697-2.562,1.916   c-1.628,1.215-3.947,2.953-6.643,5.111c-1.343,1.086-2.776,2.283-4.258,3.577c-1.477,1.3-2.976,2.729-4.489,4.232   c-0.756,0.752-1.5,1.54-2.231,2.354l-0.549,0.613c-0.133,0.141-0.345,0.414-0.515,0.616c-0.352,0.434-0.757,0.868-1.064,1.298   c-1.334,1.676-2.601,3.62-3.779,5.539c-1.196,1.929-2.321,3.909-3.326,5.913c-1.006,2.002-1.968,3.99-2.805,5.958   c-0.815,1.975-1.581,3.896-2.225,5.752c-0.169,0.515-0.335,1.02-0.498,1.52c0.261,4.207,0.563,8.41,0.869,12.612   c0.209-0.75,0.454-1.527,0.734-2.326c0.568-1.644,1.269-3.391,2.115-5.187c0.838-1.8,1.772-3.676,2.866-5.547   c1.095-1.87,2.238-3.803,3.608-5.655c0.687-0.939,1.367-1.837,2.196-2.781l0.575-0.632l0.623-0.644   c0.401-0.417,0.807-0.828,1.219-1.232c1.662-1.605,3.371-3.148,5.072-4.632c1.694-1.493,3.432-2.867,5.082-4.224   c1.648-1.359,3.277-2.622,4.795-3.845c1.513-1.228,2.943-2.39,4.263-3.462c2.619-2.172,4.788-4.014,6.304-5.313   c1.521-1.298,2.39-2.04,2.39-2.04s-0.688,0.915-1.967,2.457c-1.282,1.538-3.159,3.702-5.564,6.157   c-1.204,1.236-2.515,2.543-3.961,3.884c-1.435,1.344-2.95,2.755-4.549,4.167c-1.581,1.422-3.214,2.892-4.874,4.385   c-1.654,1.488-3.302,3.023-4.892,4.607l-1.198,1.179l-0.572,0.572l-0.58,0.618c-0.679,0.75-1.385,1.64-2.032,2.501   c-1.298,1.752-2.552,3.527-3.678,5.302c-2.265,3.545-4.193,6.983-5.645,10.016c-0.912,1.937-1.63,3.719-2.069,5.256   c-0.249,0.872-0.41,1.667-0.462,2.364c-0.071,0.957,0.075,1.714,0.336,2.163c0.107,0.242,0.257,0.379,0.35,0.48   c0.094,0.102,0.143,0.155,0.143,0.155c2.073-1.789,4.101-3.627,6.115-5.481c3.553,4.782,9.226,7.9,15.628,7.9h16.974   c10.741,0,19.48-8.739,19.48-19.48V68.169z M76.444,53.656c2.782,0.57,4.881,3.037,4.881,5.984s-2.099,5.414-4.881,5.984V53.656z    M53.272,58.606c1.602-1.431,3.17-2.918,4.68-4.457c1.289-0.601,2.721-0.946,4.235-0.946c5.552,0,10.069,4.517,10.069,10.068   c0,5.553-4.517,10.069-10.069,10.069S52.118,68.823,52.118,63.27C52.118,61.587,52.538,60.002,53.272,58.606z M72.913,73.627   c0,9.087-7.393,16.48-16.48,16.48H39.459c-5.532,0-10.425-2.749-13.415-6.943c7.555-7.059,14.899-14.356,22.938-20.905   c0.552-0.45,1.102-0.908,1.651-1.37c-0.158,0.769-0.242,1.565-0.242,2.381c0,6.504,5.292,11.796,11.795,11.796   c4.763,0,8.865-2.843,10.726-6.917V73.627z M72.913,58.391c-1.861-4.073-5.963-6.916-10.726-6.916   c-0.639,0-1.261,0.065-1.872,0.163c6.296-6.993,11.159-15.029,12.309-24.105c0.189,1.18,0.289,2.401,0.289,3.66V58.391z"/><path d="M47.946,78.887c-1.539,0-3.252-2.581-3.252-6.286h-1.87c0,4.574,2.25,8.157,5.123,8.157c2.872,0,5.122-3.583,5.122-8.157   h-1.87C51.198,76.305,49.484,78.887,47.946,78.887z"/></g></svg>
