<svg xmlns="http://www.w3.org/2000/svg" xmlns:xlink="http://www.w3.org/1999/xlink" version="1.1" preserveAspectRatio="none" x="0px" y="0px" viewBox="0 0 100 125"><defs><g id="b"><path fill="#000000" stroke="none" d=" M 56.15 38.35 Q 56.35 38.15 56.35 37.85 56.35 37.55 56.15 37.35 55.95 37.15 55.65 37.15 55.35 37.15 55.15 37.35 54.95 37.55 54.95 37.85 54.95 38.15 55.15 38.35 55.35 38.55 55.65 38.55 55.95 38.55 56.15 38.35 M 36.55 40.75 Q 36.75 40.55 36.75 40.3 36.75 40.05 36.55 39.85 36.35 39.65 36.1 39.65 35.85 39.65 35.65 39.85 35.45 40.05 35.45 40.3 35.45 40.55 35.65 40.75 35.85 40.95 36.1 40.95 36.35 40.95 36.55 40.75 M 41.75 13.45 Q 41.3 13.45 41 13.75 40.7 14.05 40.7 14.5 40.7 14.95 41 15.25 41.3 15.55 41.75 15.55 42.2 15.55 42.5 15.25 42.8 14.95 42.8 14.5 42.8 14.05 42.5 13.75 42.2 13.45 41.75 13.45 Z"/></g><path id="a" stroke="#000000" stroke-width="1" stroke-linejoin="round" stroke-linecap="round" fill="none" d=" M 41.75 15.55 Q 41.3 15.55 41 15.25 40.7 14.95 40.7 14.5 40.7 14.05 41 13.75 41.3 13.45 41.75 13.45 42.2 13.45 42.5 13.75 42.8 14.05 42.8 14.5 42.8 14.95 42.5 15.25 42.2 15.55 41.75 15.55 42.15 17.95 42.25 17.975 42.3517578125 17.9609375 42.45 17.95 43.85 17.8 44.7 17.85 47.9 18 49.3 20 50.05 21 50.1 22 L 55.95 21.45 Q 57.3 21.2 57.6 22.8 60.2142578125 32.16796875 60.9 42.5 61.15 44.15 59.8 44.4 54.45 45.8 50.65 46.55 L 50.35 47.65 Q 50.15 48.95 50.7 50.075 L 54.95 49.7 Q 56.85 49.55 58.65 52.25 L 60.35 52.05 Q 62.3 52.2 63.5 54.05 63.7427734375 53.87109375 63.975 53.7 65.5412109375 52.512109375 66.325 51.7 L 66.3 51.65 Q 66.1 51.1 66.25 50.6 66.35 50.05 67 49.1 67.65 48.1 68 47.7 L 70.5 45.15 Q 71.15 45.45 71.7 46.1 L 73.05 44.75 Q 72.85 42.55 74.3 40.25 75.8 38.45 76.2 38.55 76.55 38.7 77.7 40.75 74.7 44.4 76.85 44.55 78.95 44.7 80 43.8 L 81.15 46.4 Q 79.25 47.5 77.95 47.55 76.65 47.65 74.8 46.8 73.5 47.75 73.65 47.75 M 50.65 46.55 L 46.45 47.35 46.6 48.25 Q 46.7 49.35 46.45 50.45 L 50.7 50.075 M 42.8 43.2 Q 47.85 43.75 50.2 41.95 M 56.35 37.85 Q 56.35 38.15 56.15 38.35 55.95 38.55 55.65 38.55 55.35 38.55 55.15 38.35 54.95 38.15 54.95 37.85 54.95 37.55 55.15 37.35 55.35 37.15 55.65 37.15 55.95 37.15 56.15 37.35 56.35 37.55 56.35 37.85 Z M 66.325 51.7 L 66.45 52 Q 66.730078125 52.4201171875 67.575 52.85 67.63671875 52.8701171875 67.7 52.9 67.85 53.15 68.5 53.1 69.15 53 70.5 52.35 71.85 51.65 72.95 51.1 73.4 50.9 73.75 50.65 74.1 50.4 74.4 50.15 L 73.35 48.1 Q 73.05 47.7 72.8 47.4 72.25 46.7 71.7 46.1 M 42.25 17.975 Q 41.00546875 18.1619140625 39.8 18.95 37.15 20.6 37.3 24.025 43.8126953125 22.6951171875 50.1 22 M 46.45 47.35 Q 40.25 48.35 33.5 48.75 32.15 49 31.9 47.35 28.765625 37.796875 28.6 27.65 28.3 26.05 29.65 25.8 33.515234375 24.8060546875 37.3 24.025 M 36.75 40.3 Q 36.75 40.55 36.55 40.75 36.35 40.95 36.1 40.95 35.85 40.95 35.65 40.75 35.45 40.55 35.45 40.3 35.45 40.05 35.65 39.85 35.85 39.65 36.1 39.65 36.35 39.65 36.55 39.85 36.75 40.05 36.75 40.3 Z M 39.3 62.2 L 39.45 56.2 Q 39.45 55.1 39.75 54.2 38.85 53.95 37.9 54.15 36.14921875 54.5541015625 35.65 56.45 35.5908203125 56.6650390625 35.55 56.9 L 35.45 57.7 35.7 59.2 35.8 59.8 Q 36.7 62 39.3 62.2 L 39.2 66.15 42.75 67.5 Q 46.95 68.35 50.45 65.7 52.625 63.9310546875 54.95 63.45 59.85 62.5 63.325 64.25 62.914453125 62.4826171875 62.2 60.2 62.1705078125 60.09375 62.15 60 60.8017578125 55.28203125 58.65 52.25 M 27.4 65.35 Q 27.8 66.1 28.4 66.55 L 31.35 64.5 Q 31.75 64.15 32.55 63.3 33.35 62.45 33.55 61.95 33.7251953125 61.6345703125 33.725 61.25 33.7298828125 61.0794921875 33.7 60.9 L 33.65 60.85 33.65 60.55 32.35 59.2 Q 32.1658203125 59.12421875 31.85 59.1 31.15 59.1 29.75 59.45 28.25 59.9 27.05 60.2 26.6 60.35 26.25 60.55 25.85 60.7 25.5 60.9 L 26.15 63.1 Q 26.4 63.55 26.5 63.9 26.95 64.65 27.4 65.35 L 25.85 66.45 Q 25.55 68.65 23.75 70.6 21.9 72.1 21.55 71.9 21.25 71.75 20.5 69.5 24.1 66.5 22.05 65.95 20 65.4 18.8 66.05 L 18.15 63.3 Q 20.25 62.6 21.5 62.8 22.8 62.95 24.45 64.1 25.95 63.4 25.8 63.4 M 35.65 56.45 Q 35.65 56.5 34.3 57.55 33.072265625 58.5048828125 32.35 59.2 32.5224609375 59.262109375 32.575 59.375 L 32.7 59.45 Q 32.65 59.45 32.6 59.4 L 32.575 59.375 M 33.725 61.25 Q 33.9142578125 60.99765625 34.1 60.75 35.1 59.45 35.7 59.2 M 39.2 66.15 Q 39.1 71.2 39.45 71.95 L 40.15 72.25 Q 41.4 72.55 44.25 72.4 44.7 72.4 46.1 72.3 49.5 71.95 54.45 71.2 L 57.9 70.7 59.85 70.4 62.95 69.95 Q 63.65 70.1 63.85 69 64.110546875 67.533984375 63.325 64.25 M 67.575 52.85 Q 67.130859375 53.309375 66.725 53.7 64.93125 55.481640625 64.125 55.85 L 64.3 57 Q 64.250390625 59.37734375 62.15 60 M 63.5 54.05 L 63.95 54.7 64.125 55.85 M 46.45 50.45 Q 45.2 50.45 43.65 50.85 40.6 51.7 39.75 54.2 M 57.9 70.7 L 58.55 73.4 Q 59.1 76.4 58.9 77.6 L 59.45 77.2 Q 60.391015625 76.9947265625 61.25 77 60.65 75.95 60.2 73.1 L 59.85 70.4 M 58.9 77.6 Q 58.4427734375 77.9234375 57.6 78.5 55.65 80.3 55.7 82.7 L 55.85 83.8 Q 56.2 84.9 57.45 84.95 64.5955078125 84.8470703125 65.675 84.025 66.7630859375 83.2087890625 66.575 81.6 66.382421875 79.98828125 65.7 78.95 65.25 78.25 64.25 77.7 62.9015625 76.9763671875 61.25 77 M 46.1 72.3 L 46.1 74.9 Q 46.15 77.8 46.7 78.95 50.15 80.75 50 84.55 49.4689453125 85.592578125 47.4 86.05 45.332421875 86.4990234375 43.05 86.5 40.7595703125 86.5076171875 40.275 85.125 39.7982421875 83.7466796875 40.6 82.2 42.015234375 79.3697265625 44.275 79 44.596875 77.74296875 44.45 75 L 44.25 72.4 M 44.275 79 Q 44.478125 78.9630859375 44.7 78.95 L 46.7 78.95"/></defs><g transform="matrix( 1, 0, 0, 1, 0,0) "><use xlink:href="#b"/><use xlink:href="#a"/></g></svg>
