<svg xmlns="http://www.w3.org/2000/svg" xmlns:xlink="http://www.w3.org/1999/xlink" version="1.1" x="0px" y="0px" viewBox="0 0 100 125" style="enable-background:new 0 0 100 100;" xml:space="preserve"><g><path d="M60.8,23.6c0.4-0.8,0.7-1.8,0.7-2.8c0-3.4-2.7-9.3-6.1-9.3c-2.8,0-1.4,4.5-0.9,8c-1.6-0.7-3.3-1-5.1-1   c-1.7,0-3.4,0.4-5.1,1c0.6-3.5,1.9-8-0.9-8c-3.4,0-6.1,5.9-6.1,9.3c0,1,0.2,2,0.7,2.8c-9.4,8.6-15.9,26-15.9,37   c0,15,12.2,27.2,27.2,27.2s27.2-12.2,27.2-27.2C76.7,49.6,70.2,32.2,60.8,23.6z M49.5,30.6c3.9,0,7.1,3.2,7.1,7.1   c0,3.9-3.2,7.1-7.1,7.1s-7.1-3.2-7.1-7.1C42.4,33.8,45.6,30.6,49.5,30.6z M66,54.5h-33c-0.6,0-1.1-0.5-1.1-1.1   c0-0.6,0.5-1.1,1.1-1.1h33c0.6,0,1.1,0.5,1.1,1.1C67.2,54,66.6,54.5,66,54.5z"/><circle cx="49.5" cy="37.7" r="2.5"/></g></svg>
