<svg xmlns="http://www.w3.org/2000/svg" xmlns:xlink="http://www.w3.org/1999/xlink" version="1.1" x="0px" y="0px" viewBox="0 0 100 125" enable-background="new 0 0 100 100" xml:space="preserve"><g><path d="M17.524,43.176c-3.926,0-7.121-3.194-7.121-7.121c0-3.927,3.195-7.122,7.121-7.122c3.927,0,7.121,3.194,7.121,7.122   C24.646,39.982,21.451,43.176,17.524,43.176z M17.524,30.714c-2.944,0-5.341,2.396-5.341,5.341c0,2.945,2.396,5.34,5.341,5.34   s5.341-2.396,5.341-5.34C22.865,33.11,20.469,30.714,17.524,30.714z"/></g><g><circle cx="17.524" cy="36.204" r="1.929"/></g><g><circle cx="82.799" cy="36.204" r="1.928"/></g><g><path d="M82.799,43.176c-3.926,0-7.12-3.194-7.12-7.121c0-3.927,3.194-7.122,7.12-7.122c3.927,0,7.121,3.194,7.121,7.122   C89.92,39.982,86.726,43.176,82.799,43.176z M82.799,30.714c-2.944,0-5.341,2.396-5.341,5.341c0,2.945,2.396,5.34,5.341,5.34   S88.14,39,88.14,36.056C88.14,33.11,85.743,30.714,82.799,30.714z"/></g><g><path d="M49.667,82.835c-16.643,0-38.769-2.788-38.769-26.9c0-2.775,0.304-5.567,0.902-8.308   c-4.357-2.192-7.134-6.656-7.134-11.571c0-7.145,5.812-12.957,12.956-12.957c2.807,0,5.54,0.918,7.779,2.603   c6.86-5.511,15.447-8.537,24.265-8.537s17.404,3.026,24.266,8.537c2.238-1.684,4.972-2.603,7.778-2.603   c7.144,0,12.956,5.812,12.956,12.957c0,4.915-2.776,9.379-7.134,11.571c0.6,2.742,0.903,5.532,0.903,8.308   C88.437,80.047,66.31,82.835,49.667,82.835z M17.623,24.879c-6.162,0-11.176,5.014-11.176,11.176c0,4.454,2.644,8.479,6.735,10.254   l0.685,0.296l-0.173,0.727c-0.674,2.831-1.016,5.726-1.016,8.603c0,9.446,3.48,16.014,10.643,20.076   c5.985,3.394,14.604,5.044,26.346,5.044s20.36-1.65,26.346-5.044c7.162-4.062,10.644-10.63,10.644-20.076   c0-2.875-0.342-5.77-1.017-8.603l-0.173-0.727l0.685-0.296c4.092-1.775,6.735-5.8,6.735-10.254c0-6.163-5.014-11.176-11.176-11.176   c-2.634,0-5.195,0.939-7.212,2.646l-0.57,0.484l-0.574-0.479c-6.632-5.536-15.043-8.584-23.688-8.584   c-8.644,0-17.056,3.048-23.687,8.584l-0.574,0.479l-0.571-0.484C22.818,25.819,20.257,24.879,17.623,24.879z"/></g><g><path d="M49.667,71.362c-12.052,0-21.857-9.805-21.857-21.856c0-0.491,0.399-0.89,0.891-0.89s0.89,0.398,0.89,0.89   c0,11.07,9.007,20.077,20.077,20.077s20.077-9.007,20.077-20.077c0-0.491,0.398-0.89,0.89-0.89s0.891,0.398,0.891,0.89   C71.524,61.558,61.719,71.362,49.667,71.362z"/></g><g><path d="M49.667,75.813c-14.506,0-26.308-11.802-26.308-26.308c0-2.945,2.396-5.341,5.341-5.341s5.341,2.396,5.341,5.341   c0,8.616,7.01,15.626,15.626,15.626s15.626-7.01,15.626-15.626c0-2.945,2.396-5.341,5.341-5.341s5.341,2.396,5.341,5.341   C75.975,64.012,64.173,75.813,49.667,75.813z M28.7,45.945c-1.963,0-3.561,1.597-3.561,3.561c0,13.524,11.003,24.527,24.527,24.527   S74.194,63.03,74.194,49.506c0-1.964-1.598-3.561-3.561-3.561c-1.964,0-3.561,1.597-3.561,3.561   c0,9.598-7.809,17.406-17.406,17.406s-17.406-7.809-17.406-17.406C32.261,47.542,30.664,45.945,28.7,45.945z"/></g></svg>
