<svg xmlns="http://www.w3.org/2000/svg" xmlns:xlink="http://www.w3.org/1999/xlink" xml:space="preserve" version="1.1" style="shape-rendering:geometricPrecision;text-rendering:geometricPrecision;image-rendering:optimizeQuality;" viewBox="0 0 583 1005" x="0px" y="0px" fill-rule="evenodd" clip-rule="evenodd"><defs><style type="text/css"> .fil1 {fill:black} .fil0 {fill:black;fill-rule:nonzero} </style></defs><g><path class="fil0" d="M379 50c45,-113 268,-17 180,117 -1,1 -1,3 -2,3 51,87 22,183 -54,244l0 0c33,27 62,124 9,201 2,74 33,189 -64,189 -45,0 -36,-88 -32,-116 -68,27 -148,28 -216,2 4,29 12,114 -33,114 -95,0 -66,-110 -64,-183 -36,-50 -50,-126 -17,-202 -80,-61 -113,-159 -60,-249 -1,-1 -2,-2 -3,-3 -77,-119 99,-229 179,-121l0 0 0 1 0 0 1 0 0 0c0,1 0,2 1,2l0 0 0 1c57,-14 118,-14 175,0zm54 406l0 0c-42,17 -90,28 -142,28 -41,0 -80,-7 -115,-19l0 0 -12 28c120,40 13,132 -70,87 72,152 358,149 424,-6 -76,59 -208,-38 -79,-81l-6 -37zm54 -339c-108,-82 -283,-82 -391,0 -194,146 -13,351 195,351 209,0 390,-205 196,-351z"/><path class="fil1" d="M361 163c36,-23 113,20 126,47 28,55 -27,149 -58,146 -56,-5 -71,-47 -84,-95 -8,-30 -12,-79 16,-98zm36 35c50,0 50,75 0,75 -50,0 -50,-75 0,-75z"/><path class="fil1" d="M222 163c-35,-23 -112,20 -126,47 -28,55 27,149 58,146 56,-5 72,-47 85,-95 8,-30 11,-79 -17,-98zm-38 35c50,0 50,75 0,75 -49,0 -49,-75 0,-75z"/><path class="fil1" d="M296 311c44,0 49,35 5,38 1,7 -4,25 8,28 8,2 16,1 23,-2 8,-5 10,-11 16,-16 3,-2 6,0 5,4 0,9 -15,21 -24,24 -6,1 -68,2 -73,-1 -5,-3 -18,-18 -18,-24 -1,-3 2,-5 5,-4 2,1 11,13 13,16 6,7 18,6 26,5 16,-4 7,-24 8,-30 -44,-4 -39,-38 6,-38z"/></g></svg>
