<svg xmlns="http://www.w3.org/2000/svg" xmlns:xlink="http://www.w3.org/1999/xlink" version="1.1" x="0px" y="0px" viewBox="0 0 100 125" enable-background="new 0 0 100 100" xml:space="preserve"><path d="M50,97.5C23.81,97.5,2.5,76.19,2.5,50C2.5,23.808,23.81,2.5,50,2.5S97.5,23.808,97.5,50C97.5,76.19,76.19,97.5,50,97.5z   M50,9.625C27.738,9.625,9.625,27.736,9.625,50c0,22.262,18.113,40.374,40.375,40.374c22.262,0,40.374-18.112,40.374-40.374  C90.374,27.736,72.262,9.625,50,9.625z"/><path d="M50.06,86.396c-8.022,0-14.547-6.525-14.547-14.547h7.126c0,4.092,3.33,7.421,7.421,7.421c4.091,0,7.421-3.329,7.421-7.421  h7.126C64.607,79.87,58.082,86.396,50.06,86.396z"/><path d="M50.06,42.577c-8.022,0-14.547-6.525-14.547-14.545c0-8.022,6.525-14.547,14.547-14.547s14.547,6.525,14.547,14.547  C64.607,36.052,58.082,42.577,50.06,42.577z M50.06,20.608c-4.092,0-7.421,3.33-7.421,7.423c0,4.091,3.33,7.421,7.421,7.421  c4.091,0,7.421-3.33,7.421-7.421C57.481,23.938,54.151,20.608,50.06,20.608z"/><path d="M27.972,64.664c-8.022,0-14.547-6.525-14.547-14.547s6.525-14.547,14.547-14.547c8.021,0,14.547,6.525,14.547,14.547  S35.993,64.664,27.972,64.664z M27.972,42.694c-4.092,0-7.421,3.33-7.421,7.423c0,4.091,3.33,7.421,7.421,7.421  c4.091,0,7.421-3.33,7.421-7.421C35.393,46.023,32.063,42.694,27.972,42.694z"/><path d="M72.028,64.547c-8.021,0-14.547-6.525-14.547-14.547c0-8.022,6.525-14.547,14.547-14.547  c8.022,0,14.548,6.525,14.548,14.547C86.576,58.021,80.051,64.547,72.028,64.547z M72.028,42.577c-4.092,0-7.421,3.33-7.421,7.423  c0,4.092,3.329,7.421,7.421,7.421S79.45,54.092,79.45,50C79.45,45.907,76.12,42.577,72.028,42.577z"/><circle cx="49.975" cy="28.032" r="3.562"/><circle cx="71.944" cy="50" r="3.562"/><circle cx="28.007" cy="50" r="3.562"/></svg>
