<svg xmlns="http://www.w3.org/2000/svg" xmlns:xlink="http://www.w3.org/1999/xlink" version="1.1" preserveAspectRatio="none" x="0px" y="0px" viewBox="0 0 100 125"><defs><g id="c"><path fill="#000000" stroke="none" d=" M 68.95 20.75 Q 67.7 21.5 67.55 22.35 70.55 23.8 71.7 24.6 73.45 22.5 71.8 21.2 70.15 19.9 68.95 20.75 M 28 21.5 Q 26.65 20.8 25.1 22.2 23.55 23.6 25.5 25.5 26.6 24.65 29.45 23.05 29.3 22.25 28 21.5 M 56.05 37.6 Q 55.35 38.8 56.25 40.5 58.75 42.8 68 46.35 71.9 47.55 73.5 45.6 74.35 44.6 74.35 43.45 73.6 40.6 70.1 38.1 68.35 36.85 66.75 36.3 61.35 33.3 58.15 35.15 56.6 36.05 56.05 37.6 M 58.3 36.65 Q 59.15 35.95 60.25 36.05 61.35 36.15 62 37 62.7 37.85 62.6 38.95 62.5 40 61.6 40.7 60.85 41.4 59.75 41.3 58.65 41.2 57.9 40.35 57.25 39.5 57.35 38.45 57.45 37.35 58.3 36.65 M 47.25 40.3 Q 48.15 40.95 49.45 41.1 50.7 41.2 51.65 40.75 52.65 40.3 52.7 39.5 52.8 38.7 51.9 38.1 51.05 37.45 49.8 37.35 48.5 37.2 47.5 37.65 46.55 38.1 46.45 38.9 46.4 39.7 47.25 40.3 M 42.75 40.95 Q 43.45 39.3 42.75 38.15 42.15 36.85 40.65 36.05 37.65 34.5 32.75 37.45 31.3 38.15 29.7 39.4 26.65 41.9 26.1 44.65 26 46.05 27.05 47 28.5 48.25 32.1 47 40.5 43.15 42.75 40.95 M 40.75 37.55 Q 41.45 38.4 41.35 39.5 41.25 40.6 40.4 41.3 39.55 42 38.5 41.9 37.4 41.8 36.7 40.9 36 40.1 36.1 39 36.2 37.9 37.05 37.15 37.9 36.55 39 36.65 40.05 36.75 40.75 37.55 M 32.85 71.35 L 32.2 73.05 Q 30.7 74.7 27.35 74.3 26.3 74.35 25.7 75.35 24.95 76.45 25.3 78.05 L 25.95 79.15 Q 27.4 80.4 31.3 81.4 L 34.05 82 Q 37.05 82 38.3 79.05 L 39.5 76.1 Q 40.25 74.2 40.85 73.3 L 37.6 73.15 Q 34.75 72.85 32.85 71.35 M 17.5 46.15 Q 13.45 47.55 11.8 48.85 10.8 49.4 10.4 50.55 9.95 51.95 11.75 54.65 12.5 55.6 13.7 55.75 16.4 55.9 19.05 54.6 L 22.7 53.1 Q 26.3 51.6 27.8 51.35 23.4 48.35 21.2 44.95 19.5 45.4 17.5 46.15 M 81.95 75.65 Q 83.1 73.55 82 72.45 80.9 71.35 78.9 72.1 75.8 73.15 74.25 71.45 L 73.3 69.55 Q 72.1 71.9 69.4 72.8 L 67 73.25 Q 68.95 77.95 70.35 79.4 71.75 80.85 73.85 80.8 76.1 80.7 78.4 79.25 80.75 77.65 81.95 75.65 M 90.5 48.9 Q 89.65 47.3 87.85 46.6 86.5 45.8 83.15 44.25 L 80.05 42.8 Q 78.7 46.75 74.55 50.1 82.6 53.8 85.85 54.55 87.45 54.95 88.4 54.3 92.2 51.7 90.5 48.9 Z"/></g><path id="b" stroke="#000000" stroke-width="1" stroke-linejoin="round" stroke-linecap="round" fill="none" d=" M 80.05 42.8 L 83.15 44.25 Q 86.5 45.8 87.85 46.6 89.65 47.3 90.5 48.9 92.2 51.7 88.4 54.3 87.45 54.95 85.85 54.55 82.6 53.8 74.55 50.1 73.8 50.75 71.8 52.05 L 71.65 52.15 73.85 61.85 Q 74.85 66.65 73.3 69.55 L 74.25 71.45 Q 75.8 73.15 78.9 72.1 80.9 71.35 82 72.45 83.1 73.55 81.95 75.65 80.75 77.65 78.4 79.25 76.1 80.7 73.85 80.8 71.75 80.85 70.35 79.4 68.95 77.95 67 73.25 58.5 74.45 40.85 73.3 40.25 74.2 39.5 76.1 L 38.3 79.05 Q 37.05 82 34.05 82 L 31.3 81.4 Q 27.4 80.4 25.95 79.15 L 25.3 78.05 Q 24.95 76.45 25.7 75.35 26.3 74.35 27.35 74.3 30.7 74.7 32.2 73.05 L 32.85 71.35 Q 29.1 68.35 29.65 60.7 30.95 53.7 30.9 53.7 M 67.55 22.35 Q 67.7 21.5 68.95 20.75 70.15 19.9 71.8 21.2 73.45 22.5 71.7 24.6 70.55 23.8 67.55 22.35 Z M 21.2 44.95 Q 19.25 41.75 19.25 37.95 19.25 32.5 23.45 28.2 21.45 24.95 22.05 22.5 22.65 20.05 25.5 19.15 28.25 18.3 30.15 19.7 32 21.25 32.2 22.4 37.06875 20.4525390625 42.2 19.625 43.4423828125 19.4314453125 44.7 19.3 47.316796875 19.035546875 50 19.05 58.4 19.15 65.05 21.6 65.8810546875 19.6685546875 67.2 18.55 69.1046875 17.2447265625 71.65 18.3 74.1947265625 19.3640625 75.075 20.775 75.9623046875 22.183203125 74.45 26.85 80.75 32.1 80.75 38.55 80.75 41 80.05 42.8 78.7 46.75 74.55 50.1 M 47.15 44.9 Q 47.4 46.55 49.35 47.2 52.9 47.9 52.85 45.2 M 42.75 38.15 Q 42.15 36.85 40.65 36.05 37.65 34.5 32.75 37.45 31.3 38.15 29.7 39.4 26.65 41.9 26.1 44.65 26 46.05 27.05 47 28.5 48.25 32.1 47 40.5 43.15 42.75 40.95 43.45 39.3 42.75 38.15 Z M 52.7 39.5 Q 52.65 40.3 51.65 40.75 50.7 41.2 49.45 41.1 48.15 40.95 47.25 40.3 46.4 39.7 46.45 38.9 46.55 38.1 47.5 37.65 48.5 37.2 49.8 37.35 51.05 37.45 51.9 38.1 52.8 38.7 52.7 39.5 Z M 56.05 37.6 Q 56.6 36.05 58.15 35.15 61.35 33.3 66.75 36.3 68.35 36.85 70.1 38.1 73.6 40.6 74.35 43.45 74.35 44.6 73.5 45.6 71.9 47.55 68 46.35 58.75 42.8 56.25 40.5 55.35 38.8 56.05 37.6 Z M 29.45 23.05 Q 29.3 22.25 28 21.5 26.65 20.8 25.1 22.2 23.55 23.6 25.5 25.5 26.6 24.65 29.45 23.05 Z M 21.2 44.95 Q 19.5 45.4 17.5 46.15 13.45 47.55 11.8 48.85 10.8 49.4 10.4 50.55 9.95 51.95 11.75 54.65 12.5 55.6 13.7 55.75 16.4 55.9 19.05 54.6 L 22.7 53.1 Q 26.3 51.6 27.8 51.35 23.4 48.35 21.2 44.95 Z M 71.65 52.15 Q 62.6 57.6 50.05 57.5 37.15 57.45 28.25 51.65 L 27.8 51.35 M 32.85 71.35 Q 34.75 72.85 37.6 73.15 L 40.85 73.3 M 67 73.25 L 69.4 72.8 Q 72.1 71.9 73.3 69.55"/><path id="a" stroke="#000000" stroke-width="1" stroke-linejoin="round" stroke-linecap="round" fill="none" d=" M 60.2 38.35 Q 60.2 38.55 60 38.6 59.9 38.75 59.7 38.75 59.5 38.75 59.35 38.55 59.3 38.45 59.3 38.25 59.3 38.05 59.45 37.9 59.6 37.85 59.8 37.85 60 37.85 60.1 37.95 60.2 38.15 60.2 38.35 Z M 39.4 39.1 Q 39.4 39.3 39.25 39.4 39.15 39.55 38.95 39.5 38.75 39.5 38.6 39.35 38.5 39.25 38.5 39.05 38.55 38.85 38.65 38.7 38.8 38.6 39 38.6 39.2 38.65 39.3 38.75 39.45 38.9 39.4 39.1 Z"/></defs><g transform="matrix( 1, 0, 0, 1, 0,0) "><use xlink:href="#c"/><use xlink:href="#b"/><use xlink:href="#a"/></g></svg>
