<svg xmlns="http://www.w3.org/2000/svg" width="136.6" height="40" viewBox="0 0 1366 400">
  <metadata><?xpacket begin="﻿" id="W5M0MpCehiHzreSzNTczkc9d"?>
<x:xmpmeta xmlns:x="adobe:ns:meta/" x:xmptk="Adobe XMP Core 5.6-c138 79.159824, 2016/09/14-01:09:01        ">
   <rdf:RDF xmlns:rdf="http://www.w3.org/1999/02/22-rdf-syntax-ns#">
      <rdf:Description rdf:about=""
            xmlns:xmp="http://ns.adobe.com/xap/1.0/">
         <xmp:CreatorTool>Adobe Photoshop CC 2017 (Macintosh)</xmp:CreatorTool>
      </rdf:Description>
   </rdf:RDF>
</x:xmpmeta>
                                                                                                    
                                                                                                    
                                                                                                    
                                                                                                    
                                                                                                    
                                                                                                    
                                                                                                    
                                                                                                    
                                                                                                    
                                                                                                    
                                                                                                    
                                                                                                    
                                                                                                    
                                                                                                    
                                                                                                    
                                                                                                    
                                                                                                    
                                                                                                    
                                                                                                    
                                                                                                    
                           
<?xpacket end="w"?></metadata>
<defs>
    <style>
      .cls-1 {
        fill: #292b2a;
      }

      .cls-1, .cls-2 {
        fill-rule: evenodd;
      }

      .cls-2 {
        fill: #fff;
        stroke: #343a3f;
        stroke-linejoin: round;
        stroke-opacity: 0.88;
        stroke-width: 3px;
      }
    </style>
  </defs>
  <g id="Artboard_1" data-name="Artboard 1">
    <path id="Lexsury.1" class="cls-1" d="M576.873,539.782a21.106,21.106,0,0,0-10.625,2.5,36.588,36.588,0,0,0-9.125,8l-17.25,20.5q-4.5,5.5-8.625,7.5a22.425,22.425,0,0,1-9.875,2h-15.5l32.25-113.25q1.746-5.749,4.25-8.5a25.677,25.677,0,0,1,6.5-5,7.574,7.574,0,0,1,1.625-1.125,11.8,11.8,0,0,0,2.5-2,9.925,9.925,0,0,0,2.125-3.125,9.778,9.778,0,0,0,.75-3.25A5.079,5.079,0,0,0,553,439.407q-2.877-1.624-8.125-1.625h-58.75q-7,0-10.375,1.375a7.1,7.1,0,0,0-4.375,4.625,13.6,13.6,0,0,0-.5,2.75q0,2,2.25,5.25a49.764,49.764,0,0,1,2.375,4.375,10.927,10.927,0,0,1,.875,4.625,21.308,21.308,0,0,1-1,6.25l-30.5,107.75q-1.752,6-4.25,8.625a33.4,33.4,0,0,1-6.5,5.125,43.786,43.786,0,0,0-3.75,2.625,7.684,7.684,0,0,0-2.5,3.375,8.3,8.3,0,0,0-.75,3.25,5.347,5.347,0,0,0,2.875,4.75q2.877,1.752,8.125,1.75h117.5q11.5,0,17.375-4.25t9.125-15l8.25-29.25a19.154,19.154,0,0,0,.75-5,9.783,9.783,0,0,0-3.625-8.125q-3.627-2.873-10.625-2.875h0Zm98.746-69q-30.252,0-51.375,15.625t-27.375,46.375a90.555,90.555,0,0,0-2,17.5q0,26.752,17.75,40.75t45.5,14q18.75,0,32-6.75t20-16.375q6.75-9.623,6.5-18.375,0-3.248-2.75-3.25-2.5,0-9.5,2.5-8.5,2.752-14,4.125a47.19,47.19,0,0,1-11.5,1.375q-13,0-20.25-5.25t-7-18.25a152.1,152.1,0,0,0,22,1.5q23.25,0,40.375-7.125t20.875-23.625a36.156,36.156,0,0,0,1-8.75q0-15.75-14.25-25.875t-46-10.125h0Zm-22.25,59a116.545,116.545,0,0,1,6.125-20.75q3.621-8.748,7.375-13.125t6.5-4.375q3.75,0,4,7a41.72,41.72,0,0,1-5.25,21.75q-5.5,9.75-16,9.75a11.769,11.769,0,0,1-2.75-.25h0Zm209.25-57.75q-9,0-15,5t-11.5,17l-7,15.75q-7-15.75-13.875-24t-13.75-11a42.539,42.539,0,0,0-15.875-2.75,44.938,44.938,0,0,0-26.75,9q-12.5,9-15.75,22a21.581,21.581,0,0,0-.5,3.25q0,5.25,3.75,5.25a9.788,9.788,0,0,0,4.125-1.375,9.989,9.989,0,0,1,4.375-1.375,8.553,8.553,0,0,1,5.875,2.375q2.625,2.377,6.375,10.75t9.75,25.375l-12.5,11.75a26.7,26.7,0,0,0-15.5-5.25,19.046,19.046,0,0,0-12.125,4.25q-5.379,4.252-8.125,12.75a32.2,32.2,0,0,0-1.5,9.75q0,10.752,7,17.75t18,7a21.1,21.1,0,0,0,14.375-5.375q6.123-5.373,12.125-18.625l6.25-14q7.248,16.5,14.25,24.75t13.75,10.625a48.247,48.247,0,0,0,16,2.375,43.422,43.422,0,0,0,18.25-4.125,48.459,48.459,0,0,0,15.5-11.125,34.067,34.067,0,0,0,8.5-15.5,21.148,21.148,0,0,0,.5-3.75,6.046,6.046,0,0,0-1-3.625,3,3,0,0,0-2.5-1.375,10.6,10.6,0,0,0-4.25,1.375,10.733,10.733,0,0,1-4.5,1.375,8.093,8.093,0,0,1-5.75-2.375q-2.5-2.373-6.5-10.625t-10.25-25.25l12.5-11.75a26.689,26.689,0,0,0,15.5,5.25,19.037,19.037,0,0,0,12.125-4.25q5.373-4.248,8.125-12.75a33.835,33.835,0,0,0,1.5-9.75,24.644,24.644,0,0,0-6.75-17.625q-6.75-7.125-17.25-7.125h0Zm100.548-2.25q-31.5,0-48.625,12.125t-17.125,32.625a27.156,27.156,0,0,0,5.125,16.5,45.523,45.523,0,0,0,12.375,11.625,163.462,163.462,0,0,0,18.5,9.875q12,5.752,17.5,9.875t5.75,9.875q0,6.252-4.25,9.75a16.348,16.348,0,0,1-10.75,3.5,47.4,47.4,0,0,1-11.5-1.5,32.181,32.181,0,0,0,.75-6.75,25.069,25.069,0,0,0-8.875-19.75,31.4,31.4,0,0,0-21.375-7.75q-10.752,0-17.25,5.5t-6.5,16.25q0,15.75,19.625,24.75t53.125,9q29.748,0,48-9.75t22.253-26.5a52.073,52.073,0,0,0,1-7.5,25.554,25.554,0,0,0-5.63-16.5,47.722,47.722,0,0,0-13.75-11.625q-8.124-4.623-20.623-10.125-14.5-6.75-21-11.25t-6.5-11a9.317,9.317,0,0,1,3.875-8.5,17.178,17.178,0,0,1,10.375-3,30.373,30.373,0,0,1,8,1.25,19.6,19.6,0,0,0-1,6.25q0,9.5,8.625,15.75t21.128,6.25q12.24,0,19.12-5.5a17.42,17.42,0,0,0,6.88-14.25q0-8.5-8.13-15.25t-23.248-10.5q-15.129-3.75-35.875-3.75h0Zm233.823,33.75a39.253,39.253,0,0,0,2-11.25,17.9,17.9,0,0,0-6.88-14.75q-6.87-5.5-21.37-5.5a100.813,100.813,0,0,0-29.75,4.375q-14.25,4.377-15.5,10.125a4.6,4.6,0,0,0,.25,4,16.8,16.8,0,0,0,3.5,3.5,19.793,19.793,0,0,1,3.5,3.375,7.022,7.022,0,0,1,1.25,4.375,12.339,12.339,0,0,1-.75,3.75l-15.25,50.25q-3,6.5-6,9.25a11.025,11.025,0,0,1-7.75,2.75,7.666,7.666,0,0,1-5.25-1.75,6.579,6.579,0,0,1-2-5.25,15.293,15.293,0,0,1,1-5.25l15.75-52a34.734,34.734,0,0,0,1.75-11q0-9.5-6.75-15t-21.25-5.5a100.813,100.813,0,0,0-29.75,4.375q-14.25,4.377-15.75,10.125a4.6,4.6,0,0,0,.25,4,16.8,16.8,0,0,0,3.5,3.5,17.4,17.4,0,0,1,3.75,3.375,7.022,7.022,0,0,1,1.25,4.375,12.339,12.339,0,0,1-.75,3.75l-16,52.25a45.676,45.676,0,0,0-2.5,14.5q0,15.5,11.87,24.125t29.38,8.625a51.371,51.371,0,0,0,22.12-5.125,62.741,62.741,0,0,0,19.88-15.125,26.628,26.628,0,0,0,11.25,15.75q8.745,6,23.5,6a49.055,49.055,0,0,0,21.25-4.5,39.226,39.226,0,0,0,14.75-11.375q5.25-6.873,5-13.875a7.993,7.993,0,0,0-.88-3.875,2.509,2.509,0,0,0-2.12-1.625q-0.75,0-2.88,2.625a6.377,6.377,0,0,1-5.12,2.625,3.01,3.01,0,0,1-2.38-1,4.044,4.044,0,0,1-.87-2.75,13.307,13.307,0,0,1,.5-3Zm123.97-31.5q-19.5,0-31.5,17.75a21.182,21.182,0,0,0-8.75-13.125q-6.75-4.624-17-4.625a100.813,100.813,0,0,0-29.75,4.375q-14.25,4.377-15.75,10.125a4.6,4.6,0,0,0,.25,4,16.8,16.8,0,0,0,3.5,3.5,29.121,29.121,0,0,1,3.63,3.75,6.974,6.974,0,0,1,1.12,4.25,9.811,9.811,0,0,1-.5,3.5l-22.25,72.25q-1.755,6-4.25,8.75a22.748,22.748,0,0,1-6.25,4.75q-4.245,2.25-5.25,5.25a5.143,5.143,0,0,0,2.13,5.625c1.91,1.418,5.04,2.125,9.37,2.125h64q7.5,0,10.63-1.5a6.074,6.074,0,0,0,3.62-4.75,4.225,4.225,0,0,0-.75-3.25,19.08,19.08,0,0,0-4-3.25,22.365,22.365,0,0,1-5.12-4.125,7.823,7.823,0,0,1-1.88-5.375,10.514,10.514,0,0,1,.5-3.75l19.25-62.5q1.5-5,3.38-7a5.811,5.811,0,0,1,4.37-2,5.219,5.219,0,0,1,4,2,28.3,28.3,0,0,1,3.75,6.25,41.178,41.178,0,0,0,8.63,12q4.875,4.5,14.37,4.5a26.3,26.3,0,0,0,16.75-5.5q6.99-5.5,9.5-15.75a36.361,36.361,0,0,0,1-8.75,28.76,28.76,0,0,0-8.37-21q-8.385-8.5-22.38-8.5h0Zm164,0a22.354,22.354,0,0,0-14.38,5.125q-6.375,5.127-9.37,15.125a45.618,45.618,0,0,0-2,14,44.5,44.5,0,0,0,4,18.75,46.917,46.917,0,0,0,11.5,15.5q-5.76,15-11.75,23.125t-10.5,8.125q-3.75,0-4.5-6.25l-7.5-55q-2.25-19.747-9.88-29.25t-23.62-9.5a44.059,44.059,0,0,0-28.5,9.875,49.756,49.756,0,0,0-16.75,24.125,25,25,0,0,0-1.25,7.5c0,2.835.66,4.25,2,4.25,0.66,0,1.79-.583,3.37-1.75a7.41,7.41,0,0,1,4.13-1.75,4.269,4.269,0,0,1,3.62,1.875q1.38,1.875,2.13,6.625l10,61.25q2.25,13.5,8.37,19.875,6.135,6.375,18.88,8.625-13.5,13-29.5,13.75-2.01-13.752-9.38-21.625t-18.87-7.875a20.946,20.946,0,0,0-12.5,3.75,20.4,20.4,0,0,0-7.5,10.75,31.166,31.166,0,0,0-1.25,8.25,28.847,28.847,0,0,0,4.87,16,34.011,34.011,0,0,0,14.25,12q9.375,4.5,22.38,4.5,26.25,0,52.62-16.5,26.385-16.5,46.75-43.75a185.75,185.75,0,0,0,29.63-58,96.339,96.339,0,0,0,4.75-28.5q0-15.247-6.63-24.125a20.906,20.906,0,0,0-17.62-8.875h0Z" transform="translate(-285 -344)"/>
    <path id="Lexsury.2" class="cls-2" d="M579.376,534.243a21.116,21.116,0,0,0-10.625,2.5,36.609,36.609,0,0,0-9.125,8l-17.25,20.5q-4.5,5.5-8.625,7.5a22.411,22.411,0,0,1-9.875,2h-15.5l32.25-113.25q1.746-5.748,4.25-8.5a25.7,25.7,0,0,1,6.5-5A7.647,7.647,0,0,1,553,446.868a11.764,11.764,0,0,0,2.5-2,9.9,9.9,0,0,0,2.125-3.125,9.767,9.767,0,0,0,.75-3.25,5.08,5.08,0,0,0-2.875-4.625q-2.877-1.623-8.125-1.625h-58.75q-7,0-10.375,1.375a7.1,7.1,0,0,0-4.375,4.625,13.616,13.616,0,0,0-.5,2.75q0,2,2.25,5.25,1.5,2.5,2.375,4.375a10.93,10.93,0,0,1,.875,4.625,21.3,21.3,0,0,1-1,6.25l-30.5,107.75q-1.752,6-4.25,8.625a33.363,33.363,0,0,1-6.5,5.125,44.24,44.24,0,0,0-3.75,2.625,7.684,7.684,0,0,0-2.5,3.375,8.3,8.3,0,0,0-.75,3.25,5.346,5.346,0,0,0,2.875,4.75q2.877,1.752,8.125,1.75h117.5q11.5,0,17.375-4.25t9.125-15l8.25-29.25a19.154,19.154,0,0,0,.75-5A9.783,9.783,0,0,0,590,537.118q-3.627-2.871-10.625-2.875h0Zm98.746-69q-30.252,0-51.375,15.625t-27.375,46.375a90.555,90.555,0,0,0-2,17.5q0,26.754,17.75,40.75t45.5,14q18.75,0,32-6.75t20-16.375q6.75-9.621,6.5-18.375,0-3.246-2.75-3.25-2.5,0-9.5,2.5-8.5,2.754-14,4.125a47.19,47.19,0,0,1-11.5,1.375q-13,0-20.25-5.25t-7-18.25a152.1,152.1,0,0,0,22,1.5q23.25,0,40.375-7.125t20.875-23.625a36.15,36.15,0,0,0,1-8.75q0-15.75-14.25-25.875t-46-10.125h0Zm-22.25,59A116.57,116.57,0,0,1,662,503.493q3.621-8.748,7.375-13.125t6.5-4.375q3.75,0,4,7a41.72,41.72,0,0,1-5.25,21.75q-5.5,9.75-16,9.75a11.769,11.769,0,0,1-2.75-.25h0Zm209.25-57.75q-9,0-15,5t-11.5,17l-7,15.75q-7-15.75-13.875-24t-13.75-11a42.559,42.559,0,0,0-15.875-2.75,44.938,44.938,0,0,0-26.75,9q-12.5,9-15.75,22a21.6,21.6,0,0,0-.5,3.25q0,5.25,3.75,5.25A9.774,9.774,0,0,0,753,504.618a10,10,0,0,1,4.375-1.375,8.553,8.553,0,0,1,5.875,2.375q2.625,2.379,6.375,10.75t9.75,25.375l-12.5,11.75a26.7,26.7,0,0,0-15.5-5.25,19.046,19.046,0,0,0-12.125,4.25q-5.379,4.254-8.125,12.75a32.2,32.2,0,0,0-1.5,9.75q0,10.752,7,17.75t18,7A21.093,21.093,0,0,0,769,594.368q6.123-5.373,12.125-18.625l6.25-14q7.248,16.5,14.25,24.75t13.75,10.625a48.221,48.221,0,0,0,16,2.375,43.422,43.422,0,0,0,18.25-4.125,48.459,48.459,0,0,0,15.5-11.125,34.062,34.062,0,0,0,8.5-15.5,21.125,21.125,0,0,0,.5-3.75,6.046,6.046,0,0,0-1-3.625,3,3,0,0,0-2.5-1.375,10.612,10.612,0,0,0-4.25,1.375,10.733,10.733,0,0,1-4.5,1.375,8.089,8.089,0,0,1-5.75-2.375q-2.5-2.373-6.5-10.625t-10.25-25.25l12.5-11.75a26.689,26.689,0,0,0,15.5,5.25,19.031,19.031,0,0,0,12.125-4.25q5.373-4.248,8.125-12.75a33.83,33.83,0,0,0,1.5-9.75,24.644,24.644,0,0,0-6.75-17.625q-6.75-7.125-17.25-7.125h0Zm100.548-2.25q-31.5,0-48.625,12.125T899.92,508.993a27.152,27.152,0,0,0,5.125,16.5,45.523,45.523,0,0,0,12.375,11.625,163.3,163.3,0,0,0,18.5,9.875q12,5.754,17.5,9.875t5.75,9.875q0,6.252-4.25,9.75a16.342,16.342,0,0,1-10.75,3.5,47.4,47.4,0,0,1-11.5-1.5,32.181,32.181,0,0,0,.75-6.75,25.069,25.069,0,0,0-8.875-19.75,31.407,31.407,0,0,0-21.375-7.75q-10.752,0-17.25,5.5t-6.5,16.25q0,15.75,19.625,24.75t53.125,9q29.748,0,48-9.75t22.25-26.5a52.039,52.039,0,0,0,1-7.5,25.554,25.554,0,0,0-5.63-16.5,47.754,47.754,0,0,0-13.75-11.625,229.377,229.377,0,0,0-20.62-10.125q-14.5-6.75-21-11.25t-6.5-11a9.318,9.318,0,0,1,3.875-8.5,17.178,17.178,0,0,1,10.375-3,30.373,30.373,0,0,1,8,1.25,19.608,19.608,0,0,0-1,6.25q0,9.5,8.625,15.75t21.125,6.25q12.24,0,19.12-5.5a17.389,17.389,0,0,0,6.88-14.25q0-8.5-8.13-15.25-8.115-6.75-23.25-10.5t-35.87-3.75h0Zm233.82,33.75a39.248,39.248,0,0,0,2-11.25,17.926,17.926,0,0,0-6.87-14.75q-6.885-5.5-21.38-5.5a100.9,100.9,0,0,0-29.75,4.375q-14.25,4.377-15.5,10.125a4.6,4.6,0,0,0,.25,4,17.03,17.03,0,0,0,3.5,3.5,19.486,19.486,0,0,1,3.5,3.375,7.026,7.026,0,0,1,1.25,4.375,12.339,12.339,0,0,1-.75,3.75l-15.25,50.25q-3,6.5-6,9.25a11,11,0,0,1-7.75,2.75,7.666,7.666,0,0,1-5.25-1.75,6.609,6.609,0,0,1-2-5.25,15.3,15.3,0,0,1,1-5.25l15.75-52a34.449,34.449,0,0,0,1.75-11q0-9.5-6.75-15t-21.25-5.5a100.9,100.9,0,0,0-29.75,4.375q-14.25,4.377-15.75,10.125a4.6,4.6,0,0,0,.25,4,17.03,17.03,0,0,0,3.5,3.5,16.957,16.957,0,0,1,3.75,3.375,7.026,7.026,0,0,1,1.25,4.375,12.339,12.339,0,0,1-.75,3.75l-16,52.25a45.681,45.681,0,0,0-2.5,14.5q0,15.5,11.88,24.125t29.37,8.625a51.413,51.413,0,0,0,22.13-5.125,62.691,62.691,0,0,0,19.87-15.125,26.712,26.712,0,0,0,11.25,15.75q8.745,6,23.5,6a49.024,49.024,0,0,0,21.25-4.5,39.216,39.216,0,0,0,14.75-11.375q5.25-6.873,5-13.875a8.109,8.109,0,0,0-.87-3.875,2.533,2.533,0,0,0-2.13-1.625c-0.5,0-1.46.875-2.87,2.625a6.409,6.409,0,0,1-5.13,2.625,2.975,2.975,0,0,1-2.37-1,4,4,0,0,1-.88-2.75,13.933,13.933,0,0,1,.5-3Zm123.97-31.5q-19.5,0-31.5,17.75a21.147,21.147,0,0,0-8.75-13.125q-6.75-4.623-17-4.625a100.9,100.9,0,0,0-29.75,4.375q-14.25,4.377-15.75,10.125a4.639,4.639,0,0,0,.25,4,17.291,17.291,0,0,0,3.5,3.5,28.448,28.448,0,0,1,3.63,3.75,6.974,6.974,0,0,1,1.12,4.25,9.586,9.586,0,0,1-.5,3.5l-22.25,72.25q-1.74,6-4.25,8.75a22.728,22.728,0,0,1-6.25,4.75q-4.245,2.25-5.25,5.25a5.142,5.142,0,0,0,2.13,5.625q2.88,2.127,9.37,2.125h64q7.5,0,10.63-1.5a6.054,6.054,0,0,0,3.62-4.75,4.146,4.146,0,0,0-.75-3.25,18.84,18.84,0,0,0-4-3.25,22.585,22.585,0,0,1-5.12-4.125,7.821,7.821,0,0,1-1.88-5.375,10.755,10.755,0,0,1,.5-3.75l19.25-62.5q1.5-5,3.38-7a5.827,5.827,0,0,1,4.37-2,5.2,5.2,0,0,1,4,2,27.569,27.569,0,0,1,3.75,6.25,41.178,41.178,0,0,0,8.63,12q4.875,4.5,14.37,4.5a26.27,26.27,0,0,0,16.75-5.5q7.005-5.5,9.5-15.75a35.854,35.854,0,0,0,1-8.75,28.763,28.763,0,0,0-8.37-21q-8.385-8.5-22.38-8.5h0Zm154.05,0a22.352,22.352,0,0,0-14.37,5.125q-6.375,5.127-9.38,15.125a45.933,45.933,0,0,0-2,14,44.5,44.5,0,0,0,4,18.75,47.045,47.045,0,0,0,11.5,15.5q-5.745,15-11.75,23.125t-10.5,8.125q-3.75,0-4.5-6.25l-7.5-55q-2.25-19.746-9.87-29.25-7.635-9.5-23.63-9.5a44.1,44.1,0,0,0-28.5,9.875,49.76,49.76,0,0,0-16.75,24.125,25.331,25.331,0,0,0-1.25,7.5q0,4.254,2,4.25c0.67,0,1.79-.582,3.38-1.75a7.366,7.366,0,0,1,4.12-1.75,4.3,4.3,0,0,1,3.63,1.875q1.365,1.875,2.12,6.625l10,61.25q2.25,13.5,8.38,19.875t18.87,8.625q-13.5,13-29.5,13.75-1.995-13.752-9.37-21.625t-18.88-7.875a20.946,20.946,0,0,0-12.5,3.75,20.4,20.4,0,0,0-7.5,10.75,31.166,31.166,0,0,0-1.25,8.25,28.856,28.856,0,0,0,4.88,16,34.011,34.011,0,0,0,14.25,12q9.375,4.5,22.37,4.5,26.25,0,52.63-16.5t46.75-43.75a185.923,185.923,0,0,0,29.62-58,96.005,96.005,0,0,0,4.75-28.5q0-15.246-6.62-24.125a20.939,20.939,0,0,0-17.63-8.875h0Z" transform="translate(-285 -344)"/>
  </g>
</svg>
